<svg width="569" height="414" viewBox="0 0 569 414" fill="none" xmlns="http://www.w3.org/2000/svg">
<g clip-path="url(#clip0_608_36)">
<path d="M534.633 217.511C530.665 215.931 528.827 217.251 527.385 215.931C525.943 214.611 531.353 211.18 520.494 207.739C520.494 207.739 519.766 200.347 504.912 200.087C490.059 199.827 494.027 207.479 490.046 209.329C486.064 211.18 484.966 208.269 480.985 210.12C477.004 211.97 478.816 215.661 475.549 216.191C472.282 216.721 467.93 213.82 463.949 215.661C459.968 217.502 459.981 219.102 458.155 219.102C456.33 219.102 452.719 218.041 450.537 219.102C448.354 220.162 445.828 221.472 445.828 221.472H537.53C537.53 221.472 538.615 219.102 534.633 217.511Z" fill="#FFEFD3"/>
<path opacity="0.5" d="M534.633 217.511C530.665 215.931 528.827 217.251 527.385 215.931C525.943 214.611 531.353 211.18 520.494 207.739C520.494 207.739 519.766 200.347 504.912 200.087C490.059 199.827 494.027 207.479 490.046 209.329C486.064 211.18 484.966 208.269 480.985 210.12C477.004 211.97 478.816 215.661 475.549 216.191C472.282 216.721 467.93 213.82 463.949 215.661C459.968 217.502 459.981 219.102 458.155 219.102C456.33 219.102 452.719 218.041 450.537 219.102C448.354 220.162 445.828 221.472 445.828 221.472H537.53C537.53 221.472 538.615 219.102 534.633 217.511Z" fill="white"/>
<path d="M487.85 103.771C482.321 101.574 479.821 103.405 477.811 101.574C475.8 99.7427 483.326 95.03 468.248 90.2113C468.248 90.2113 467.256 79.9668 446.661 79.6102C426.067 79.2536 431.596 89.8547 426.067 92.4183C420.538 94.9818 419.044 90.9534 413.515 93.5169C407.986 96.0805 410.499 101.227 405.989 101.93C401.478 102.634 395.407 98.6344 389.918 101.198C384.429 103.761 384.389 105.959 381.876 105.959C379.363 105.959 374.35 104.494 371.295 105.959C368.239 107.424 364.774 109.245 364.774 109.245H491.818C491.818 109.245 493.379 105.968 487.85 103.771Z" fill="#FFEFD3"/>
<path opacity="0.5" d="M487.85 103.771C482.321 101.574 479.821 103.405 477.811 101.574C475.8 99.7427 483.326 95.03 468.248 90.2113C468.248 90.2113 467.256 79.9668 446.661 79.6102C426.067 79.2536 431.596 89.8547 426.067 92.4183C420.538 94.9818 419.044 90.9534 413.515 93.5169C407.986 96.0805 410.499 101.227 405.989 101.93C401.478 102.634 395.407 98.6344 389.918 101.198C384.429 103.761 384.389 105.959 381.876 105.959C379.363 105.959 374.35 104.494 371.295 105.959C368.239 107.424 364.774 109.245 364.774 109.245H491.818C491.818 109.245 493.379 105.968 487.85 103.771Z" fill="white"/>
<path d="M397.219 101.516C389.429 98.4127 385.884 100.996 383.053 98.4127C380.223 95.8299 390.844 89.1223 369.588 82.405C369.588 82.405 368.173 67.949 339.167 67.4382C310.16 66.9274 317.911 81.8942 310.067 85.5083C302.224 89.1223 300.147 83.4459 292.357 87.0599C284.566 90.6739 288.098 97.9019 281.775 98.9331C275.453 99.9643 266.895 94.2879 259.104 97.9019C251.314 101.516 251.3 104.648 247.756 104.648C244.211 104.648 237.174 102.586 232.875 104.648C228.577 106.71 223.617 109.293 223.617 109.293H402.894C402.894 109.293 405.023 104.61 397.219 101.516Z" fill="#FFEFD3"/>
<path opacity="0.5" d="M397.219 101.516C389.429 98.4127 385.884 100.996 383.053 98.4127C380.223 95.8299 390.844 89.1223 369.588 82.405C369.588 82.405 368.173 67.949 339.167 67.4382C310.16 66.9274 317.911 81.8942 310.067 85.5083C302.224 89.1223 300.147 83.4459 292.357 87.0599C284.566 90.6739 288.098 97.9019 281.775 98.9331C275.453 99.9643 266.895 94.2879 259.104 97.9019C251.314 101.516 251.3 104.648 247.756 104.648C244.211 104.648 237.174 102.586 232.875 104.648C228.577 106.71 223.617 109.293 223.617 109.293H402.894C402.894 109.293 405.023 104.61 397.219 101.516Z" fill="white"/>
<path d="M22.5681 188.561C24.7638 189.255 30.1207 189.168 30.1207 189.168C30.1207 189.168 28.9699 186.614 28.8641 186.46C27.7001 184.667 23.9702 181.709 20.928 182.007C20.4271 182.066 19.9488 182.2 19.5244 182.403C19.1001 182.605 18.7393 182.871 18.4657 183.182C18.1922 183.494 18.0121 183.843 17.9372 184.209C17.8623 184.574 17.8944 184.947 18.0313 185.303C18.5339 186.826 20.7031 187.963 22.5681 188.561Z" fill="#263238"/>
<path d="M92.7631 175.271C89.721 175.03 86.1497 178.066 85.0122 179.877C84.9064 180.032 83.7953 182.614 83.8614 182.614C83.2927 183.096 82.6843 183.578 82.0361 184.176C80.8457 185.245 79.523 186.45 78.2003 187.838C76.7521 189.317 75.427 190.859 74.2323 192.454C72.8737 194.237 71.7361 196.104 70.833 198.034C70.8286 198.057 70.8286 198.079 70.833 198.102C70.833 197.456 70.833 195.635 70.833 195.49C70.4758 193.563 68.1876 189.871 65.2116 189.467C64.7111 189.408 64.1992 189.427 63.7095 189.522C63.2198 189.618 62.7633 189.787 62.37 190.02C61.9766 190.253 61.6552 190.544 61.4269 190.874C61.1986 191.204 61.0684 191.565 61.0451 191.934C60.8731 193.505 62.3678 195.066 63.9418 196.059C65.6613 197.167 70.4097 198.256 70.7933 198.333C69.9438 200.309 69.2765 202.325 68.796 204.366C68.505 205.561 68.267 206.766 68.0421 207.97C68.0421 207.411 68.0421 206.91 68.0421 206.833C67.685 204.906 65.3967 201.215 62.4207 200.81C61.9165 200.748 61.4001 200.765 60.9056 200.86C60.4111 200.954 59.9498 201.124 59.5521 201.358C59.1545 201.592 58.8297 201.885 58.5991 202.218C58.3685 202.55 58.2374 202.915 58.2145 203.287C58.0426 204.848 59.6034 206.409 61.1112 207.402C62.6191 208.394 66.6797 209.387 67.7247 209.628L67.4733 211.025C67.103 213.261 66.7591 215.488 66.3226 217.666C66.1639 218.437 65.9787 219.188 65.7935 219.94C65.7935 219.439 65.7935 218.976 65.7935 218.976C65.4364 217.049 63.1482 213.358 60.1721 212.953C59.6712 212.897 59.1598 212.919 58.671 213.016C58.1821 213.113 57.7267 213.284 57.3341 213.517C56.9415 213.751 56.6204 214.041 56.3916 214.371C56.1628 214.7 56.0313 215.061 56.0056 215.43C55.8337 216.991 57.3283 218.562 58.9023 219.545C60.8876 220.511 63.0645 221.248 65.357 221.733C65.1322 222.494 64.9073 223.265 64.6428 223.997C64.4444 224.499 64.3121 224.961 64.074 225.482C63.836 226.002 63.6376 226.445 63.4259 226.946C62.9762 227.862 62.5 228.816 62.0239 229.703C61.7064 230.319 61.3758 230.907 61.0451 231.495C61.217 230.734 61.4948 229.24 61.4948 229.115C61.4467 227.352 60.7722 225.629 59.5372 224.113C59.5574 223.917 59.5574 223.721 59.5372 223.525C59.477 223.155 59.3096 222.799 59.0462 222.48C58.7827 222.16 58.4293 221.885 58.0091 221.673C57.589 221.461 57.1118 221.316 56.6091 221.248C56.1064 221.18 55.5896 221.191 55.093 221.28C52.1434 221.848 50.2784 225.616 50.1329 227.602C50.1329 227.717 50.2255 228.999 50.3181 229.799C50.1726 229.336 50.0271 228.884 49.8684 228.402C49.5642 227.438 49.207 226.474 48.8499 225.51C48.6383 225.029 48.4399 224.547 48.2282 224.046C48.0166 223.544 47.7521 223.082 47.5272 222.542C46.932 221.376 46.2045 220.22 45.5564 219.063C46.7072 218.861 50.7414 218.099 52.3683 217.203C53.9952 216.307 55.6882 214.823 55.675 213.252C55.6909 212.878 55.5969 212.506 55.3993 212.161C55.2017 211.816 54.9049 211.505 54.5291 211.251C54.1532 210.996 53.7069 210.803 53.2202 210.684C52.7334 210.566 52.2174 210.524 51.7069 210.563C48.678 210.804 46.0458 214.321 45.4903 216.268C45.4903 216.393 45.2787 217.82 45.1993 218.6C44.7628 217.916 44.3396 217.222 43.8766 216.528C42.5539 214.543 41.0725 212.558 39.6176 210.573C39.1811 209.965 38.7446 209.358 38.2949 208.751C38.6917 208.684 43.5856 207.864 45.3448 206.824C46.9585 205.918 48.678 204.433 48.6515 202.872C48.6672 202.498 48.5732 202.126 48.3756 201.78C48.1781 201.435 47.8817 201.124 47.5061 200.868C47.1305 200.613 46.6844 200.419 46.1976 200.299C45.7109 200.179 45.1947 200.137 44.6834 200.174C41.6545 200.415 39.0223 203.932 38.4668 205.879C38.4668 206.024 38.1758 208.086 38.1494 208.606C37.1838 207.267 36.2579 205.927 35.3982 204.578C34.246 202.756 33.2521 200.882 32.4221 198.969C32.6205 198.969 37.7129 198.102 39.525 197.042C41.1386 196.136 42.8449 194.661 42.8317 193.09C42.8474 192.716 42.7533 192.344 42.5558 191.998C42.3583 191.653 42.0618 191.342 41.6862 191.086C41.3107 190.831 40.8646 190.637 40.3778 190.517C39.8911 190.397 39.3748 190.355 38.8636 190.392C35.8347 190.633 33.2025 194.16 32.647 196.107C32.647 196.261 32.3295 198.468 32.3163 198.873C32.3163 198.757 32.2105 198.651 32.1708 198.535C31.4138 196.601 30.8959 194.62 30.6233 192.618C30.4513 191.51 30.372 190.45 30.3323 189.418C31.2846 189.332 35.623 188.908 37.5012 188.098C39.3795 187.289 41.1651 186.007 41.3899 184.436C41.4568 184.07 41.4175 183.698 41.2748 183.344C41.132 182.989 40.8888 182.661 40.561 182.379C40.2332 182.098 39.828 181.87 39.3716 181.709C38.9152 181.549 38.4177 181.46 37.9113 181.448C34.8559 181.448 31.7079 184.735 30.8746 186.624C30.8746 186.73 30.5175 187.809 30.3058 188.551C30.3058 188.088 30.3058 187.587 30.3058 187.154C30.3058 185.477 30.4646 183.935 30.5968 182.566C30.6894 181.795 30.7952 181.092 30.901 180.446C31.7872 180.003 35.3188 178.181 36.4034 176.89C37.488 175.598 38.3345 173.787 37.5409 172.331C37.3702 171.984 37.1012 171.666 36.7513 171.398C36.4014 171.131 35.9785 170.92 35.5098 170.779C35.041 170.639 34.537 170.571 34.0302 170.581C33.5234 170.591 33.0252 170.679 32.5676 170.838C29.9223 171.859 29.1419 175.839 29.5916 177.796C29.5916 177.969 30.6497 180.562 30.7026 180.542C30.5836 181.169 30.4646 181.843 30.3587 182.586C30.1736 183.944 29.9752 185.477 29.9223 187.183C29.8311 188.999 29.8886 190.817 30.0942 192.628C30.2901 194.66 30.7327 196.676 31.4169 198.651C31.4226 198.673 31.4226 198.696 31.4169 198.719C30.9407 198.169 29.5254 196.666 29.4064 196.56C27.6208 195.056 22.9649 192.917 20.1476 193.784C19.6864 193.938 19.2748 194.161 18.9395 194.438C18.6043 194.715 18.3531 195.041 18.2021 195.394C18.0511 195.746 18.0038 196.118 18.0632 196.485C18.1227 196.852 18.2876 197.206 18.5471 197.524C19.5921 198.902 22.0787 199.586 24.0892 199.798C26.3642 200.039 31.1391 199.027 31.5227 198.95C32.411 200.983 33.4893 202.97 34.7501 204.896C35.4114 206.014 36.0727 207.113 36.8531 208.211C36.4166 207.749 36.0198 207.334 35.9537 207.248C34.1681 205.744 29.5122 203.614 26.6949 204.482C26.24 204.639 25.8353 204.864 25.5069 205.142C25.1784 205.42 24.9334 205.746 24.7877 206.097C24.642 206.448 24.5987 206.818 24.6606 207.182C24.7225 207.546 24.8883 207.897 25.1473 208.211C26.179 209.589 28.6657 210.264 30.6894 210.476C32.7131 210.688 36.8267 209.898 37.9113 209.676C38.2023 210.091 38.48 210.515 38.7578 210.929C40.0805 212.943 41.5487 214.938 42.8317 216.933C43.2814 217.637 43.6914 218.34 44.1544 219.044L43.3872 218.234C41.6016 216.731 36.9457 214.591 34.1284 215.459C33.6672 215.612 33.2556 215.835 32.9204 216.112C32.5851 216.39 32.3339 216.715 32.1829 217.068C32.0319 217.421 31.9846 217.793 32.044 218.16C32.1035 218.527 32.2684 218.88 32.5279 219.198C33.5729 220.576 36.0463 221.26 38.07 221.472C40.4516 221.479 42.8205 221.219 45.0935 220.701C45.4903 221.434 45.8871 222.166 46.231 222.879C46.4426 223.381 46.6939 223.843 46.8791 224.344C47.0643 224.845 47.2495 225.308 47.4479 225.828C47.7521 226.792 48.0828 227.756 48.3605 228.72C48.5589 229.365 48.7309 229.982 48.9028 230.647C48.4663 229.944 47.5801 228.585 47.4611 228.479C46.0194 226.792 41.8529 224.171 38.9033 224.72C38.415 224.821 37.9613 224.995 37.5716 225.231C37.1819 225.468 36.8651 225.762 36.6417 226.094C36.4183 226.426 36.2934 226.788 36.2752 227.158C36.2569 227.527 36.3457 227.895 36.5357 228.238C37.2764 229.712 39.5911 230.657 41.5354 231.129C43.6782 231.611 48.4267 231.129 49.0219 231.129C49.3129 232.17 49.5774 233.172 49.8022 234.126C50.5959 237.432 51.1249 240.198 51.4027 242.145C51.4027 242.491 51.4953 242.8 51.5482 243.108H42.2894L45.649 246.212H61.2699L64.6296 243.108H56.0718C56.0718 243.012 56.1908 242.925 56.257 242.819C57.4341 241.036 59.0611 238.473 60.8202 235.341C61.3758 234.377 61.9445 233.288 62.5265 232.189C63.0953 232.276 67.8172 232.97 69.9865 232.613C71.9705 232.286 74.3778 231.466 75.2772 230.03C75.5033 229.699 75.6307 229.338 75.6512 228.968C75.6718 228.599 75.5849 228.231 75.3963 227.888C75.2076 227.544 74.9216 227.234 74.5569 226.977C74.1921 226.721 73.757 226.523 73.2799 226.397C70.3833 225.684 65.9655 228.084 64.3518 229.683C64.2592 229.77 63.373 230.878 62.8439 231.611C63.0688 231.168 63.3069 230.734 63.5317 230.262C63.9947 229.346 64.4179 228.421 64.8544 227.428L65.4496 225.954C65.6745 225.472 65.8068 224.932 65.9919 224.421C66.3887 223.217 66.7062 221.983 66.9972 220.73C68.095 221.019 72.0366 222.022 74.0736 221.916C76.1105 221.81 78.6501 221.27 79.8272 219.988C80.1184 219.686 80.3187 219.343 80.4153 218.981C80.5118 218.619 80.5024 218.246 80.3875 217.887C80.2726 217.527 80.055 217.19 79.7487 216.896C79.4425 216.602 79.0546 216.359 78.6104 216.181C75.8989 215.16 71.0314 217.039 69.1003 218.437C68.9812 218.523 67.7776 219.641 67.0898 220.268C67.2617 219.516 67.4204 218.764 67.5527 218.003C67.9231 215.796 68.2141 213.56 68.5183 211.324C68.5976 210.64 68.7034 209.956 68.8093 209.271C69.1928 209.377 73.8487 210.64 76.1237 210.524C78.1607 210.418 80.7002 209.879 81.8774 208.597C82.1763 208.293 82.3834 207.947 82.4849 207.58C82.5864 207.214 82.5801 206.836 82.4663 206.472C82.3526 206.108 82.1339 205.765 81.8249 205.467C81.5159 205.168 81.1236 204.921 80.6738 204.742C77.949 203.73 73.0948 205.609 71.1636 207.007C71.0182 207.113 69.2457 208.722 68.8225 209.146C69.0341 207.652 69.2722 206.149 69.5896 204.684C70.0018 202.702 70.5895 200.742 71.3488 198.815C71.534 198.863 76.375 200.193 78.7162 200.068C80.7399 199.971 83.2927 199.422 84.4699 198.14C84.7704 197.837 84.9785 197.49 85.0802 197.123C85.1819 196.756 85.175 196.377 85.0598 196.012C84.9446 195.647 84.7238 195.304 84.4122 195.007C84.1007 194.709 83.7055 194.463 83.253 194.285C80.6076 193.264 75.674 195.143 73.7429 196.54C73.5974 196.656 71.6927 198.391 71.3753 198.719C71.3753 198.613 71.4546 198.487 71.5075 198.381C72.3397 196.462 73.4065 194.601 74.6952 192.82C75.383 191.857 76.1237 190.893 76.8777 190.035C77.7374 190.344 81.7319 191.76 83.8482 191.818C85.9645 191.876 88.4909 191.539 89.8664 190.324C90.1953 190.048 90.4411 189.725 90.5883 189.375C90.7354 189.026 90.7805 188.658 90.7207 188.294C90.6609 187.931 90.4976 187.581 90.2411 187.267C89.9846 186.953 89.6407 186.681 89.2316 186.469C86.692 185.236 81.5732 186.72 79.4437 187.954C79.3246 188.021 78.2532 188.802 77.4729 189.38C77.83 188.985 78.1739 188.57 78.5178 188.195C79.8405 186.797 81.0706 185.573 82.2345 184.494C82.8959 183.887 83.5572 183.337 84.0863 182.836C85.1577 182.836 89.4829 182.73 91.3743 182.084C93.2658 181.439 95.3424 180.273 95.7656 178.74C95.9413 178.368 96.0001 177.972 95.9378 177.581C95.8754 177.19 95.6935 176.814 95.4054 176.481C95.1173 176.148 94.7303 175.867 94.273 175.657C93.8157 175.448 93.2998 175.316 92.7631 175.271ZM59.1536 234.685C57.3151 237.76 55.6353 240.265 54.4184 242.01C54.1671 242.366 53.9555 242.675 53.7439 242.973H53.5455C53.5455 242.626 53.4264 242.26 53.347 241.846C52.9767 239.918 52.3947 237.095 51.4821 233.77C51.2043 232.719 50.8736 231.601 50.5165 230.454C51.9418 230.023 53.3328 229.534 54.683 228.99C56.52 230.152 58.5672 231.124 60.7673 231.881C60.225 232.844 59.6827 233.808 59.1536 234.685Z" fill="#263238"/>
<path d="M76.7322 189.418C76.7322 189.418 77.6977 186.826 77.7374 186.653C78.1078 184.725 77.248 180.726 74.4968 179.752C74.0344 179.602 73.5336 179.524 73.0271 179.523C72.5206 179.523 72.0197 179.601 71.5569 179.75C71.0941 179.9 70.6798 180.12 70.3409 180.394C70.0019 180.668 69.746 180.991 69.5897 181.342C68.8489 182.817 69.7748 184.629 70.9123 185.872C72.2218 187.337 76.7322 189.418 76.7322 189.418Z" fill="#263238"/>
<path d="M324.339 198.757C327.342 199.721 334.683 199.586 334.683 199.586C334.683 199.586 333.109 196.088 332.976 195.876C331.363 193.428 326.27 189.37 322.13 189.785C321.445 189.865 320.791 190.05 320.211 190.327C319.631 190.605 319.137 190.968 318.763 191.394C318.388 191.819 318.141 192.298 318.038 192.798C317.934 193.298 317.977 193.808 318.162 194.295C318.85 196.386 321.786 197.938 324.339 198.757Z" fill="#FFEFD3"/>
<path d="M420.446 180.562C416.292 180.234 411.359 184.417 409.864 186.865C409.732 187.086 408.211 190.613 408.29 190.613H408.37C407.589 191.259 406.756 191.963 405.87 192.753C404.243 194.208 402.417 195.856 400.579 197.755C398.598 199.788 396.779 201.902 395.129 204.087C393.274 206.526 391.716 209.081 390.474 211.719V211.816C390.474 210.929 390.474 208.433 390.407 208.24C389.931 205.542 386.823 200.53 382.723 199.981C382.036 199.903 381.335 199.932 380.664 200.064C379.993 200.197 379.368 200.431 378.83 200.751C378.291 201.07 377.85 201.469 377.537 201.921C377.223 202.373 377.043 202.868 377.009 203.373C376.771 205.513 378.9 207.662 380.977 209.011C383.318 210.534 389.826 212.018 390.341 212.134C389.175 214.843 388.256 217.605 387.59 220.403C387.193 222.031 386.863 223.689 386.558 225.337C386.558 224.566 386.558 223.882 386.558 223.785C386.082 221.087 382.974 216.075 378.86 215.526C378.174 215.448 377.474 215.477 376.804 215.61C376.134 215.742 375.51 215.976 374.972 216.296C374.434 216.616 373.995 217.015 373.683 217.467C373.37 217.919 373.192 218.413 373.16 218.918C372.922 221.058 375.051 223.207 377.128 224.556C379.204 225.906 384.746 227.274 386.215 227.611C386.109 228.247 385.99 228.884 385.884 229.539C385.395 232.594 384.905 235.649 384.31 238.627C384.098 239.677 383.834 240.709 383.582 241.74C383.582 241.056 383.582 240.477 383.582 240.391C383.106 237.692 379.998 232.681 375.898 232.131C375.211 232.054 374.509 232.082 373.839 232.215C373.168 232.347 372.543 232.581 372.004 232.901C371.466 233.221 371.025 233.62 370.712 234.071C370.398 234.523 370.218 235.018 370.184 235.524C369.945 237.663 372.075 239.812 374.152 241.162C376.228 242.511 381.241 243.744 382.987 244.159C382.683 245.209 382.379 246.26 382.022 247.262C381.744 247.946 381.559 248.621 381.241 249.295C380.924 249.97 380.646 250.635 380.342 251.3C379.72 252.553 379.085 253.854 378.424 255.078C377.987 255.916 377.538 256.726 377.101 257.535C377.326 256.485 377.71 254.432 377.71 254.259C377.668 251.868 376.785 249.525 375.144 247.455C375.155 247.187 375.132 246.919 375.078 246.655C374.989 246.153 374.756 245.67 374.395 245.238C374.034 244.806 373.552 244.434 372.981 244.146C372.41 243.858 371.762 243.66 371.08 243.566C370.398 243.472 369.696 243.484 369.02 243.6C364.985 244.38 362.406 249.546 362.234 252.273C362.234 252.437 362.367 254.201 362.486 255.28C362.274 254.644 362.089 254.018 361.864 253.353C361.441 252.052 360.964 250.76 360.462 249.373C360.184 248.708 359.906 248.043 359.629 247.358C359.351 246.674 358.98 245.99 358.65 245.306C357.856 243.706 356.944 242.125 356.004 240.545C357.565 240.275 363.107 239.244 365.329 238C367.551 236.757 369.879 234.743 369.866 232.594C369.882 232.092 369.755 231.593 369.492 231.129C369.229 230.665 368.836 230.246 368.338 229.898C367.84 229.551 367.248 229.283 366.601 229.112C365.953 228.94 365.263 228.869 364.575 228.903C360.422 229.23 356.811 234.059 356.057 236.719C356.057 236.883 355.766 238.839 355.66 239.918C355.065 238.955 354.483 237.991 353.835 237.075C351.97 234.348 349.986 231.64 348.002 228.922C347.394 228.084 346.812 227.255 346.216 226.416C346.772 226.33 353.385 225.212 355.872 223.814C358.081 222.581 360.435 220.557 360.409 218.408C360.425 217.906 360.298 217.407 360.035 216.943C359.771 216.478 359.378 216.059 358.881 215.712C358.383 215.365 357.791 215.097 357.143 214.926C356.496 214.754 355.806 214.683 355.118 214.717C350.965 215.044 347.354 219.873 346.6 222.532C346.6 222.735 346.203 225.549 346.164 226.272C344.841 224.431 343.518 222.59 342.407 220.75C340.822 218.246 339.462 215.671 338.333 213.04C338.585 213.04 345.502 211.854 348.042 210.428C350.251 209.194 352.605 207.171 352.579 205.021C352.599 204.519 352.474 204.018 352.212 203.553C351.951 203.087 351.558 202.667 351.059 202.319C350.56 201.971 349.967 201.703 349.318 201.533C348.668 201.363 347.976 201.294 347.288 201.33C343.135 201.658 339.537 206.477 338.783 209.146C338.717 209.358 338.347 212.384 338.333 212.934C338.333 212.779 338.175 212.625 338.122 212.481C337.078 209.832 336.37 207.119 336.005 204.376C335.767 202.863 335.661 201.407 335.595 199.991C336.918 199.865 342.923 199.287 345.41 198.188C347.896 197.09 350.436 195.297 350.7 193.177C350.795 192.676 350.745 192.166 350.551 191.681C350.358 191.195 350.027 190.744 349.579 190.358C349.131 189.972 348.577 189.658 347.952 189.438C347.327 189.218 346.646 189.097 345.952 189.081C341.772 189.081 337.46 193.582 336.31 196.165C336.31 196.309 335.82 197.793 335.542 198.873C335.542 198.227 335.542 197.572 335.542 196.945C335.542 194.642 335.741 192.541 335.939 190.671C336.058 189.611 336.204 188.647 336.349 187.78C337.566 187.173 342.394 184.687 343.875 182.904C345.357 181.121 346.521 178.673 345.436 176.668C345.203 176.192 344.834 175.756 344.355 175.39C343.875 175.025 343.295 174.736 342.653 174.545C342.01 174.353 341.319 174.262 340.625 174.277C339.931 174.293 339.249 174.415 338.624 174.635C334.921 176.032 333.942 181.477 334.55 184.156C334.55 184.388 336.005 187.944 336.071 187.915H336.138C335.979 188.773 335.82 189.698 335.675 190.71C335.41 192.58 335.159 194.69 335.079 197.003C334.966 199.491 335.045 201.981 335.318 204.462C335.62 207.244 336.257 210.002 337.222 212.702V212.799C336.561 212.047 334.577 209.994 334.458 209.84C332.011 207.787 325.635 204.858 321.786 206.053C321.155 206.263 320.592 206.568 320.133 206.947C319.674 207.327 319.331 207.773 319.125 208.256C318.919 208.739 318.855 209.248 318.938 209.75C319.02 210.252 319.247 210.736 319.604 211.17C321.019 213.049 324.419 213.984 327.183 214.283C330.291 214.611 336.839 213.223 337.354 213.117C338.432 215.844 339.758 218.517 341.323 221.116C342.222 222.638 343.188 224.152 344.193 225.655C343.598 225.019 343.055 224.45 342.963 224.373C340.529 222.32 334.14 219.391 330.305 220.586C329.672 220.795 329.107 221.099 328.647 221.478C328.187 221.858 327.842 222.303 327.635 222.786C327.428 223.27 327.363 223.779 327.444 224.282C327.526 224.784 327.753 225.269 328.109 225.703C329.524 227.582 332.937 228.517 335.688 228.806C338.439 229.096 344.1 228.007 345.582 227.708C345.978 228.276 346.362 228.855 346.759 229.433C348.65 232.179 350.555 234.917 352.314 237.644C352.936 238.608 353.504 239.571 354.073 240.535C353.531 239.967 353.081 239.494 353.002 239.427C350.555 237.374 344.18 234.444 340.331 235.63C339.699 235.841 339.135 236.147 338.676 236.527C338.218 236.908 337.874 237.354 337.668 237.838C337.462 238.322 337.398 238.832 337.481 239.335C337.564 239.838 337.791 240.322 338.148 240.757C339.563 242.636 342.963 243.571 345.727 243.86C348.492 244.149 353.663 243.166 355.356 242.81C355.899 243.773 356.441 244.804 356.904 245.787C357.195 246.472 357.539 247.108 357.79 247.802C358.041 248.496 358.306 249.161 358.557 249.826C358.994 251.127 359.443 252.466 359.814 253.748C360.091 254.635 360.316 255.483 360.568 256.331C359.959 255.367 358.729 253.507 358.597 253.362C356.613 251.059 350.912 247.464 346.865 248.216C346.197 248.355 345.577 248.594 345.045 248.919C344.513 249.244 344.081 249.647 343.777 250.101C343.472 250.556 343.303 251.052 343.279 251.557C343.255 252.063 343.377 252.566 343.637 253.035C344.656 255.049 347.817 256.35 350.489 256.89C353.425 257.545 359.92 256.948 360.726 256.89C361.123 258.306 361.48 259.685 361.785 260.986C362.882 265.506 363.557 269.303 363.98 271.963C364.06 272.435 364.112 272.859 364.179 273.254H351.6L356.19 277.504H377.63L382.22 273.254H370.501L370.766 272.868C372.366 270.421 374.601 266.913 377.009 262.624C377.776 261.265 378.556 259.81 379.337 258.306C380.117 258.422 386.558 259.376 389.548 258.885C392.272 258.432 395.566 257.314 396.783 255.357C397.089 254.904 397.261 254.408 397.288 253.903C397.315 253.398 397.196 252.895 396.939 252.425C396.683 251.956 396.293 251.531 395.797 251.177C395.301 250.824 394.708 250.551 394.058 250.375C390.09 249.411 384.045 252.688 381.823 254.876C381.691 255.001 380.501 256.514 379.76 257.487C380.064 256.87 380.382 256.273 380.699 255.637C381.334 254.384 381.916 253.112 382.538 251.782L383.371 249.768C383.662 249.093 383.86 248.361 384.112 247.657C384.654 246.009 385.09 244.323 385.434 242.607C386.942 243.012 392.339 244.38 395.129 244.236C397.92 244.091 401.399 243.349 403.066 241.547C403.466 241.133 403.741 240.662 403.874 240.165C404.007 239.668 403.994 239.157 403.837 238.663C403.68 238.17 403.381 237.707 402.961 237.304C402.541 236.901 402.009 236.566 401.399 236.324C397.682 234.926 391.029 237.499 388.384 239.417C388.225 239.533 386.532 241.065 385.633 241.923C385.857 240.892 386.082 239.87 386.254 238.82C386.77 235.803 387.167 232.738 387.577 229.674C387.696 228.71 387.841 227.804 387.974 226.869C388.503 227.014 394.865 228.739 398 228.585C400.777 228.44 404.269 227.698 405.936 225.896C406.334 225.481 406.608 225.011 406.739 224.514C406.871 224.017 406.858 223.506 406.701 223.013C406.544 222.521 406.246 222.058 405.827 221.654C405.408 221.251 404.877 220.917 404.269 220.672C400.552 219.275 393.899 221.848 391.254 223.766C391.042 223.911 388.609 226.118 388.053 226.657C388.344 224.605 388.675 222.561 389.098 220.547C389.669 217.831 390.473 215.143 391.505 212.5C391.757 212.577 398.383 214.427 401.597 214.235C404.375 214.09 407.867 213.348 409.534 211.546C409.934 211.133 410.21 210.662 410.344 210.166C410.478 209.669 410.467 209.158 410.311 208.665C410.155 208.172 409.857 207.708 409.439 207.304C409.02 206.901 408.489 206.566 407.88 206.322C404.163 204.925 397.497 207.498 394.852 209.416C394.653 209.57 392.048 211.941 391.611 212.394C391.677 212.24 391.717 212.076 391.783 211.931C392.927 209.303 394.392 206.755 396.161 204.318C397.1 202.959 398.119 201.706 399.137 200.463C400.328 200.897 405.751 202.824 408.687 202.911C411.623 202.998 415.049 202.525 416.927 200.868C417.384 200.487 417.726 200.04 417.931 199.557C418.136 199.073 418.2 198.564 418.117 198.061C418.035 197.559 417.809 197.075 417.453 196.64C417.098 196.206 416.621 195.83 416.054 195.538C412.576 193.852 405.565 195.875 402.656 197.572C402.497 197.668 401.029 198.738 400.01 199.499C400.486 198.959 400.949 198.4 401.425 197.89C403.171 195.962 404.931 194.295 406.518 192.82C407.417 191.982 408.264 191.24 409.057 190.556C410.526 190.556 416.438 190.401 419.03 189.515C421.623 188.628 424.44 187.048 425.049 184.937C425.204 184.424 425.203 183.893 425.047 183.38C424.89 182.868 424.582 182.386 424.144 181.969C423.705 181.553 423.147 181.211 422.508 180.968C421.87 180.724 421.166 180.586 420.446 180.562ZM374.429 261.911C371.93 266.122 369.615 269.563 367.948 271.943C367.618 272.425 367.313 272.849 367.036 273.244H366.758C366.678 272.782 366.586 272.281 366.48 271.702C365.964 269.014 365.157 265.197 363.927 260.648C363.544 259.212 363.094 257.68 362.605 256.109C364.56 255.55 366.468 254.906 368.319 254.182C370.461 255.868 375.937 257.844 376.652 258.094C375.911 259.405 375.157 260.696 374.429 261.911Z" fill="#FFEFD3"/>
<path d="M398.555 199.933C398.555 199.933 399.878 196.377 399.878 196.145C400.394 193.456 399.217 188.031 395.447 186.701C394.813 186.493 394.126 186.386 393.431 186.384C392.736 186.383 392.048 186.489 391.413 186.695C390.778 186.9 390.209 187.201 389.744 187.577C389.279 187.953 388.928 188.397 388.714 188.879C387.709 190.893 388.992 193.37 390.5 195.076C392.339 197.08 398.542 199.933 398.555 199.933Z" fill="#FFEFD3"/>
<path d="M189.108 228.488H31.1391V292.721H189.108V228.488Z" fill="white" stroke="#263238" stroke-linecap="round" stroke-linejoin="round"/>
<path d="M189.108 228.488H144.321V292.721H189.108V228.488Z" fill="#263238" stroke="#263238" stroke-linecap="round" stroke-linejoin="round"/>
<path d="M305.954 147.958H147.985V356.396H305.954V147.958Z" fill="white" stroke="#263238" stroke-linecap="round" stroke-linejoin="round"/>
<path d="M305.954 147.958H261.168V356.396H305.954V147.958Z" fill="#263238" stroke="#263238" stroke-linecap="round" stroke-linejoin="round"/>
<path d="M189.108 292.336H31.1391V356.569H189.108V292.336Z" fill="white" stroke="#263238" stroke-linecap="round" stroke-linejoin="round"/>
<path d="M262.874 292.336H177.19V356.569H262.874V292.336Z" fill="#263238" stroke="#263238" stroke-linecap="round" stroke-linejoin="round"/>
<path d="M311.112 292.336H183.843V356.569H311.112V292.336Z" fill="white" stroke="#263238" stroke-linecap="round" stroke-linejoin="round"/>
<path d="M316.297 259.087L234.092 180.311H189.081V200.848L128.304 259.087H316.297Z" fill="#263238" stroke="#263238" stroke-linecap="round" stroke-linejoin="round"/>
<path d="M189.081 180.311L106.863 259.087H271.286L189.081 180.311Z" fill="white" stroke="#263238" stroke-linecap="round" stroke-linejoin="round"/>
<path d="M411.623 259.482H253.655V356.569H411.623V259.482Z" fill="#FFEFD3" stroke="#263238" stroke-linecap="round" stroke-linejoin="round"/>
<path d="M411.623 259.482H351.441V356.569H411.623V259.482Z" fill="#263238" stroke="#263238" stroke-linecap="round" stroke-linejoin="round"/>
<path d="M245.811 259.482H87.8427V356.569H245.811V259.482Z" fill="#FFEFD3" stroke="#263238" stroke-linecap="round" stroke-linejoin="round"/>
<path d="M245.811 259.482H185.629V356.569H245.811V259.482Z" fill="#263238" stroke="#263238" stroke-linecap="round" stroke-linejoin="round"/>
<path d="M432.032 267.597L391.175 262.778C391.175 262.778 388.873 259.068 387.696 258.21C386.519 257.352 379.654 257.641 379.654 257.641C379.654 257.641 378.331 258.21 380.249 258.923C382.167 259.636 383.582 259.434 383.979 259.887C384.376 260.34 386.096 265.216 387.656 265.669C388.86 265.944 390.112 266.087 391.373 266.093C391.373 266.093 433.606 277.774 435.749 277.494C437.892 277.215 439.268 273.215 439.268 273.215L432.032 267.597Z" fill="white" stroke="#263238" stroke-linecap="round" stroke-linejoin="round"/>
<path d="M386.73 262.316C386.73 262.316 383.979 259.839 383.159 259.839C382.339 259.839 382.352 260.802 383 261.255C383.967 262.166 384.784 263.156 385.434 264.204C386.241 265.39 389.323 265.621 389.323 265.621" fill="white"/>
<path d="M386.73 262.316C386.73 262.316 383.979 259.839 383.159 259.839C382.339 259.839 382.352 260.802 383 261.255C383.967 262.166 384.784 263.156 385.434 264.204C386.241 265.39 389.323 265.621 389.323 265.621" stroke="#263238" stroke-linecap="round" stroke-linejoin="round"/>
<path d="M451.793 256.62L428.567 267.452L436.503 279.701L458.804 269.158C458.804 269.158 462.547 259.328 451.793 256.62Z" fill="white" stroke="#263238" stroke-linecap="round" stroke-linejoin="round"/>
<path d="M442.006 255.772L450.219 256.196L452.375 248.785L444.36 246.934L436.344 248.361L437.905 253.064L442.006 255.772Z" fill="white" stroke="#263238" stroke-linecap="round" stroke-linejoin="round"/>
<path d="M419.52 251.493C417.818 252.294 415.876 252.783 413.859 252.919C410.34 253.208 406.822 250.028 406.822 246.366C406.822 242.703 418.938 234.541 427.35 233.683C435.762 232.825 444.161 243.802 445.339 246.086C446.516 248.37 443.58 249.363 441.225 249.363C438.871 249.363 437.707 249.218 436.926 249.218C436.146 249.218 437.707 250.78 435.167 251.637C432.628 252.495 429.308 252.351 427.734 252.775C426.16 253.199 420.313 252.919 419.52 251.493Z" fill="#263238" stroke="#263238" stroke-linecap="round" stroke-linejoin="round"/>
<path d="M416.398 249.074C417.599 251.12 419.179 253.036 421.094 254.769C423.832 257.054 426.57 256.764 426.755 257.333C426.94 257.902 427.535 259.617 429.109 260.041C429.606 260.154 430.134 260.174 430.645 260.1C431.155 260.026 431.632 259.86 432.032 259.617C432.032 259.617 438.884 261.323 441.027 260.754C443.169 260.186 443.963 255.483 443.381 253.921C442.687 252.672 441.616 251.552 440.246 250.645C440.246 250.645 440.061 245.942 437.323 245.508C434.585 245.074 432.032 247.223 432.628 248.399C433.223 249.575 433.805 250.25 433.606 250.683C433.408 251.117 429.89 250.25 429.109 249.826C428.329 249.401 427.932 251.531 424.996 251.676C422.059 251.82 416.398 249.074 416.398 249.074Z" fill="white" stroke="#263238" stroke-linecap="round" stroke-linejoin="round"/>
<path d="M451.397 247.647C451.397 247.647 447.296 257.198 446.503 258.904C445.709 260.61 448.077 264.465 448.077 264.465L456.343 248.785L451.397 247.647Z" fill="white" stroke="#263238" stroke-linecap="round" stroke-linejoin="round"/>
<path d="M467.785 290.611L466.316 296.393C466.316 296.393 456.886 307.129 451.291 315.292C445.696 323.455 448.645 326.24 448.923 327.31C449.201 328.38 491.077 350.295 491.077 350.295H498.445L466.925 323.436L488.432 303.467C488.432 303.467 501.659 325.161 505.23 327.734C508.801 330.307 540.599 348.994 540.599 348.994L547.08 349.64L519.369 317.653C519.369 317.653 507.875 290.592 502.862 286.081C497.849 281.571 495.786 279.644 495.786 279.644L467.785 290.611Z" fill="#263238" stroke="#263238" stroke-linecap="round" stroke-linejoin="round"/>
<path d="M474.358 298.33L488.419 303.496L478.221 302.465" stroke="white" stroke-width="0.5" stroke-linecap="round" stroke-linejoin="round"/>
<path d="M466.912 323.465L457.851 321.45" stroke="white" stroke-width="0.5" stroke-linecap="round" stroke-linejoin="round"/>
<path d="M477.189 292.317L479.768 294.389L477.705 297.203L480.8 297.771L483.128 294.196L481.58 292.317" stroke="white" stroke-width="0.5" stroke-linecap="round" stroke-linejoin="round"/>
<path d="M454.915 250.066C454.915 250.066 449.055 261.043 448.302 263.607C447.548 266.171 447.918 269.592 450.259 273.717C452.6 277.841 461.793 284.828 463.367 286.399C464.941 287.97 464.147 290.254 467.467 291.526C470.787 292.799 478.538 291.835 483.842 289.898C487.995 288.385 495.627 282.699 495.826 280.848C496.024 278.998 484.874 269.023 479.001 262.036C473.128 255.049 470.205 251.926 464.928 249.932C459.65 247.937 456.343 248.785 454.915 250.066Z" fill="white" stroke="#263238" stroke-linecap="round" stroke-linejoin="round"/>
<path d="M458.579 266.575C458.579 266.575 473.671 266.334 474.98 266.334" stroke="#263238" stroke-linecap="round" stroke-linejoin="round"/>
<path d="M456.608 267.732C456.608 267.732 477.943 273.707 484.834 273.948" stroke="#263238" stroke-linecap="round" stroke-linejoin="round"/>
<path d="M433.858 269.592C433.858 269.592 385.355 266.171 383.212 265.881C381.069 265.592 377.326 260.523 376.731 259.954C376.136 259.386 370.117 257.825 369.112 257.825C368.107 257.825 364.152 258.297 365.713 259.01C367.562 260.049 369.295 261.193 370.898 262.431C372.755 264.028 374.78 265.517 376.956 266.884C378.689 267.691 380.58 268.302 382.564 268.696C382.564 268.696 434.44 278.275 436.794 277.706C439.148 277.138 434.651 269.447 434.651 269.447L433.858 269.592Z" fill="white" stroke="#263238" stroke-linecap="round" stroke-linejoin="round"/>
<path d="M463.909 252.495C462.84 252.104 461.631 251.963 460.448 252.091C459.265 252.218 458.164 252.609 457.296 253.208C454.174 255.338 432.072 268.879 432.072 268.879L437.746 280.704L469.425 263.173C469.425 263.173 472.943 259.318 470.007 256.051" fill="white"/>
<path d="M463.909 252.495C462.84 252.104 461.631 251.963 460.448 252.091C459.265 252.218 458.164 252.609 457.296 253.208C454.174 255.338 432.072 268.879 432.072 268.879L437.746 280.704L469.425 263.173C469.425 263.173 472.943 259.318 470.007 256.051" stroke="#263238" stroke-linecap="round" stroke-linejoin="round"/>
<path d="M491.077 350.314L486.064 353.533C486.064 353.533 478.988 354.603 479.279 356.106C479.57 357.61 490.482 356.752 492.506 356.752C494.529 356.752 500.759 355.249 501.645 353.745C502.532 352.242 498.405 350.314 498.405 350.314H491.077Z" fill="white" stroke="#263238" stroke-linecap="round" stroke-linejoin="round"/>
<path d="M540.585 349.023L538.231 353.745C538.231 353.745 531.446 355.894 532.041 357.186C532.636 358.477 546.471 357.822 547.662 356.752C548.852 355.682 547.067 349.669 547.067 349.669L540.585 349.023Z" fill="white" stroke="#263238" stroke-linecap="round" stroke-linejoin="round"/>
<path d="M146.98 115.827C146.98 115.827 149.334 119.567 156.794 120.28C168.328 121.388 176.635 113.254 177.428 105.949C178.222 98.644 177.23 91.7822 177.23 88.1971C177.23 84.612 175.907 77.1816 173.5 75.0324C171.093 72.8833 166.04 76.6033 162.297 82.3279C158.554 88.0525 157.006 91.2039 152.668 96.2154C148.329 101.227 145.605 104.667 145.208 108.387C145.078 110.93 145.682 113.465 146.98 115.827Z" fill="#263238" stroke="#263238" stroke-linecap="round" stroke-linejoin="round"/>
<path d="M118.093 170.944C118.093 170.944 108.08 165.932 106.704 164.785C105.329 163.638 103.358 165.653 104.535 168.794C105.712 171.936 112.987 177.815 114.945 177.815C116.902 177.815 120.447 172.659 120.447 172.659L118.093 170.944Z" fill="white" stroke="#263238" stroke-linecap="round" stroke-linejoin="round"/>
<path d="M114.759 172.235L115.857 169.816C112.677 168.267 109.621 166.588 106.704 164.785C105.382 163.648 103.358 165.653 104.535 168.794C105.712 171.936 112.987 177.815 114.945 177.815C116.016 177.815 117.59 176.302 118.714 174.924C116.823 173.748 114.759 172.235 114.759 172.235Z" fill="white" stroke="#263238" stroke-linecap="round" stroke-linejoin="round"/>
<path d="M139.11 139.738C139.11 139.738 121.823 156.921 118.093 159.35C114.363 161.778 111.81 163.205 111.81 163.205C107.514 162.79 103.249 162.217 99.0327 161.489C94.9059 160.632 91.7711 160.342 92.9483 162.781C94.1255 165.219 106.109 169.932 109.257 170.654C112.405 171.377 112.59 170.51 113.767 169.787C114.945 169.064 119.468 164.776 123.198 162.202C126.928 159.629 137.351 155.186 141.478 148.71C145.604 142.234 145.988 138.398 143.832 138.543C142.178 138.748 140.582 139.152 139.11 139.738Z" fill="white" stroke="#263238" stroke-linecap="round" stroke-linejoin="round"/>
<path d="M143.832 138.591C142.182 138.781 140.587 139.169 139.11 139.738C139.11 139.738 121.823 156.921 118.093 159.35C116.135 160.632 114.508 161.624 113.397 162.241C115.664 162.836 117.695 163.829 119.309 165.132C120.632 164.072 121.955 163.002 123.198 162.135C126.941 159.562 137.351 155.119 141.478 148.643C145.604 142.166 145.988 138.446 143.832 138.591Z" fill="#263238" stroke="#263238" stroke-linecap="round" stroke-linejoin="round"/>
<path d="M183.526 132.153C183.526 132.153 153.263 134.726 146.98 135.729C140.697 136.731 138.528 138.022 137.933 139.169C137.338 140.316 118.093 170.973 118.093 170.973C118.093 170.973 118.093 172.264 120.447 172.688C120.447 172.688 138.131 158.81 142.06 155.514C145.988 152.218 149.731 146.349 149.731 146.349C149.731 146.349 180.153 151.071 191.581 147.64C203.009 144.21 203.565 137.194 203.168 135.758C202.771 134.322 183.526 132.153 183.526 132.153Z" fill="#263238" stroke="#263238" stroke-linecap="round" stroke-linejoin="round"/>
<path d="M176.053 93.7868C177.692 95.6383 179.202 97.549 180.576 99.5114C181.357 100.947 177.23 108.532 177.825 111.25C178.42 113.967 185.484 120.694 185.484 122.815C185.484 124.935 179.981 132.548 179.981 132.548L203.168 136.702C203.168 136.702 204.491 123.817 204.491 116.232C204.491 108.648 196.435 98.3356 191.912 95.6179C187.388 92.9001 182.878 89.4596 182.878 89.4596L176.053 93.7868Z" fill="white" stroke="#263238" stroke-linecap="round" stroke-linejoin="round"/>
<path d="M174.611 72.546C173.061 71.8845 171.255 71.6129 169.472 71.7731C167.688 71.9333 166.027 72.5165 164.744 73.4326C162.945 74.6662 160.961 76.4588 160.961 78.3284C161.177 82.8599 163.51 87.2017 167.574 90.6353C172.098 94.2108 177.204 95.2131 180.55 94.2108C183.896 93.2085 184.677 88.1971 182.309 82.646C179.941 77.0948 178.341 74.3482 174.651 72.6231L174.611 72.546Z" fill="white" stroke="#263238" stroke-linecap="round" stroke-linejoin="round"/>
<path d="M172.72 76.3238C172.72 76.3238 177.627 80.0439 179.783 80.757C181.939 81.4702 182.15 79.6102 181.754 76.4588C181.357 73.3073 176.251 70.1655 173.5 70.1655C170.749 70.1655 171.146 73.5964 172.72 76.3238Z" fill="#263238" stroke="#263238" stroke-linecap="round" stroke-linejoin="round"/>
<path d="M173.5 75.0324C172.765 78.9535 170.359 82.6076 166.622 85.4793C160.339 90.298 150.313 98.7982 147.959 103.521C145.929 107.456 145.588 111.748 146.98 115.827C145.536 114.133 144.643 112.22 144.371 110.236C144.098 108.251 144.452 106.248 145.406 104.378C148.541 97.6321 154.665 90.6353 155.035 84.6216C155.406 78.6079 156.212 71.1293 163.289 68.7296C170.365 66.3299 174.095 70.021 173.5 75.0324Z" fill="#263238" stroke="#263238" stroke-linecap="round" stroke-linejoin="round"/>
<path d="M171.251 74.7915C171.251 74.7915 173.804 77.9236 166.172 83.8313C158.54 89.7391 151.557 94.7119 151.557 94.7119" stroke="white" stroke-width="0.5" stroke-linecap="round" stroke-linejoin="round"/>
<path d="M149.705 116.714C150.36 117.157 151.089 117.539 151.874 117.851" stroke="white" stroke-width="0.5" stroke-linecap="round" stroke-linejoin="round"/>
<path d="M164.109 89.2475C164.109 89.2475 152.668 97.4682 148.237 103.029C144.983 107.096 145.049 111.789 147.813 115.008" stroke="white" stroke-width="0.5" stroke-linecap="round" stroke-linejoin="round"/>
<path d="M157.323 83.0122C156.789 83.1272 156.239 83.1983 155.683 83.2242" stroke="white" stroke-width="0.5" stroke-linecap="round" stroke-linejoin="round"/>
<path d="M169.32 71.0715C169.32 71.0715 166.093 79.2825 159.718 82.2123" stroke="white" stroke-width="0.5" stroke-linecap="round" stroke-linejoin="round"/>
<path d="M191.965 95.6468C190.192 94.577 188.42 93.4013 186.912 92.3604C184.961 94.5564 182.424 96.4442 179.452 97.9116C179.867 98.4291 180.243 98.9632 180.576 99.5114C181.357 100.947 177.23 108.532 177.825 111.25C178.42 113.967 185.484 120.694 185.484 122.815C185.484 124.935 179.981 132.548 179.981 132.548L203.168 136.702C203.168 136.702 204.491 123.817 204.491 116.232C204.491 108.648 196.488 98.3645 191.965 95.6468Z" fill="#FFEFD3" stroke="#263238" stroke-linecap="round" stroke-linejoin="round"/>
<path d="M184.902 99.5114C184.902 99.5114 180.378 101.516 183.91 106.672C187.441 111.828 196.687 120.983 196.687 120.983C196.687 120.983 183.91 128.433 181.357 130.004C179.283 131.197 176.863 132.027 174.28 132.433C173.698 132.433 167.601 131.575 166.622 131.719C165.643 131.864 161.516 133.58 162.654 133.869C164.291 133.987 165.943 133.939 167.561 133.724C169.417 134.387 171.41 134.823 173.46 135.015C176.211 135.16 179.743 133.579 179.743 133.579C179.743 133.579 206.66 123.846 208.631 122.275C210.601 120.704 195.655 100.514 193.896 99.0777C192.813 98.2204 191.353 97.6649 189.769 97.5068" fill="#FFEFD3"/>
<path d="M184.902 99.5114C184.902 99.5114 180.378 101.516 183.91 106.672C187.441 111.828 196.687 120.983 196.687 120.983C196.687 120.983 183.91 128.433 181.357 130.004C179.283 131.197 176.863 132.027 174.28 132.433C173.698 132.433 167.601 131.575 166.622 131.719C165.643 131.864 161.516 133.58 162.654 133.869C164.291 133.987 165.943 133.939 167.561 133.724C169.417 134.387 171.41 134.823 173.46 135.015C176.211 135.16 179.743 133.579 179.743 133.579C179.743 133.579 206.66 123.846 208.631 122.275C210.601 120.704 195.655 100.514 193.896 99.0777C192.813 98.2204 191.353 97.6649 189.769 97.5068" stroke="#263238" stroke-linecap="round" stroke-linejoin="round"/>
<path d="M177.442 131.7C176.437 132.045 175.374 132.291 174.28 132.433C173.698 132.433 167.601 131.575 166.622 131.719C165.643 131.864 161.516 133.579 162.654 133.869C164.291 133.987 165.943 133.939 167.561 133.724C169.417 134.387 171.41 134.823 173.46 135.015C175.451 134.969 177.396 134.565 179.121 133.84L177.442 131.7Z" fill="white" stroke="#263238" stroke-linecap="round" stroke-linejoin="round"/>
<path d="M99.0327 161.528C94.9059 160.67 91.7711 160.381 92.9483 162.819C94.1255 165.258 106.109 169.97 109.257 170.693C112.405 171.416 112.59 170.548 113.767 169.826C114.811 169.066 115.796 168.265 116.717 167.426L109.839 164.814L111.81 163.243C107.514 162.828 103.249 162.256 99.0327 161.528Z" fill="white" stroke="#263238" stroke-linecap="round" stroke-linejoin="round"/>
<path d="M112.193 170.664C108.86 168.794 105.58 166.809 98.9665 163.648C97.0972 162.697 95.1191 161.865 93.0541 161.162C92.5912 161.451 92.4721 161.952 92.8822 162.79C94.0594 165.219 106.043 169.941 109.191 170.664C109.668 170.829 110.187 170.921 110.716 170.932C111.244 170.944 111.769 170.875 112.26 170.732L112.193 170.664Z" fill="#263238" stroke="#263238" stroke-linecap="round" stroke-linejoin="round"/>
<path d="M568.772 356.107H13.5342V360.405H568.772V356.107Z" fill="#263238" stroke="#263238" stroke-linecap="round" stroke-linejoin="round"/>
</g>
<defs>
<clipPath id="clip0_608_36">
<rect width="569" height="414" fill="white"/>
</clipPath>
</defs>
</svg>
