<svg width="248" height="230" viewBox="0 0 248 230" fill="none" xmlns="http://www.w3.org/2000/svg">
<path d="M150.008 76.4422H142.74C142.507 76.443 142.282 76.3569 142.109 76.2009C141.936 76.0449 141.828 75.8303 141.806 75.5991L140.352 60.7515H152.397L150.942 75.5989C150.92 75.8301 150.812 76.0448 150.639 76.2008C150.467 76.3569 150.242 76.443 150.008 76.4422Z" fill="#E6E6E6"/>
<path d="M152.378 62.6194H140.371C140.122 62.6192 139.884 62.5207 139.708 62.3456C139.532 62.1705 139.433 61.9331 139.433 61.6855V59.4439C139.433 59.1963 139.532 58.9589 139.708 58.7838C139.884 58.6088 140.122 58.5103 140.371 58.51H152.378C152.626 58.5103 152.865 58.6088 153.041 58.7838C153.217 58.9589 153.316 59.1963 153.316 59.4439V61.6855C153.316 61.9331 153.217 62.1705 153.041 62.3456C152.865 62.5207 152.626 62.6192 152.378 62.6194Z" fill="#CCCCCC"/>
<path d="M64.97 60.4922H36.1758V51.7889C45.2747 45.4843 53.3364 46.0323 63.9417 52.3009L64.97 60.4922Z" fill="#6A7B76"/>
<path d="M29.5081 215.08L23.2042 215.08L22.2617 190.871L29.5091 190.871L29.5081 215.08Z" fill="#FFB8B8"/>
<path d="M31.1155 221.164L10.7896 221.164V220.908C10.7895 219.873 10.9942 218.849 11.3917 217.893C11.7893 216.937 12.3721 216.069 13.1067 215.338C13.8414 214.606 14.7135 214.026 15.6734 213.63C16.6333 213.234 17.6621 213.031 18.701 213.031L31.1159 213.031L31.1155 221.164Z" fill="#263238"/>
<path d="M65.0142 215.08L71.3181 215.08L72.2606 190.871L65.0132 190.871L65.0142 215.08Z" fill="#FFB8B8"/>
<path d="M63.4062 213.031L75.8206 213.031C76.8595 213.031 77.8888 213.234 78.8487 213.63C79.8086 214.026 80.6807 214.606 81.4154 215.338C82.15 216.069 82.7328 216.937 83.1304 217.893C83.528 218.849 83.7326 219.873 83.7326 220.908V221.164L63.4067 221.164L63.4062 213.031Z" fill="#263238"/>
<path d="M65.1798 211.978C64.6538 211.976 64.144 211.797 63.7336 211.469C63.3232 211.141 63.0366 210.685 62.9205 210.174L47.2962 142.32C47.2619 142.148 47.1676 141.993 47.0299 141.883C46.8922 141.773 46.7199 141.715 46.5434 141.719H46.5395C46.3624 141.716 46.1897 141.775 46.0523 141.887C45.9149 141.998 45.8215 142.154 45.7887 142.328L31.4407 209.724C31.3287 210.24 31.0433 210.702 30.6317 211.034C30.22 211.366 29.7068 211.548 29.1771 211.55H22.3422C22.0268 211.55 21.7148 211.486 21.4252 211.361C21.1357 211.237 20.8748 211.055 20.6584 210.826C20.4421 210.598 20.275 210.328 20.1674 210.033C20.0597 209.738 20.0137 209.424 20.0323 209.11L25.1232 123.688L27.1718 123.084L27.2102 123.085L67.4492 123.435L76.0193 208.764C76.0493 209.068 76.018 209.375 75.9274 209.668C75.8368 209.96 75.6887 210.231 75.4916 210.466C75.2946 210.7 75.0526 210.893 74.7798 211.034C74.507 211.174 74.2089 211.259 73.9027 211.284L65.3652 211.97C65.3031 211.975 65.2413 211.978 65.1798 211.978Z" fill="#263238"/>
<path d="M48.5629 44.8939C55.5377 44.8939 61.1918 39.2642 61.1918 32.3197C61.1918 25.3752 55.5377 19.7456 48.5629 19.7456C41.5882 19.7456 35.9341 25.3752 35.9341 32.3197C35.9341 39.2642 41.5882 44.8939 48.5629 44.8939Z" fill="#FFB8B8"/>
<path d="M40.8263 133.054C38.6108 133.081 36.404 132.772 34.282 132.137C32.3948 131.57 30.6439 130.625 29.1373 129.359C27.6307 128.093 26.4001 126.534 25.5213 124.777C25.2429 124.249 25.1811 123.633 25.3491 123.06C26.7419 118.327 33.4725 93.7245 29.1781 74.1667C28.572 71.4498 28.5216 68.6391 29.03 65.9024C29.5384 63.1657 30.5952 60.5589 32.1373 58.2376C33.6435 55.9345 35.6002 53.9571 37.8906 52.4232C40.181 50.8894 42.7582 49.8306 45.4685 49.3099L45.4686 49.3094C46.1809 49.1709 46.8971 49.0574 47.5969 48.9714C50.5929 48.6043 53.6334 48.9009 56.5008 49.8403C59.3682 50.7796 61.9916 52.3383 64.1834 54.4049C66.4402 56.5121 68.2012 59.09 69.3404 61.9541C70.4796 64.8182 70.9688 67.8976 70.773 70.972L67.4725 123.705C67.4497 124.101 67.324 124.483 67.1079 124.816C66.8917 125.148 66.5924 125.419 66.2394 125.601C62.4383 127.584 51.0199 133.054 40.8263 133.054Z" fill="#FFEFD3"/>
<path d="M62.8294 23.064C61.5175 19.7814 59.1146 17.0461 56.0216 15.3146C52.9286 13.5831 49.3328 12.9603 45.8342 13.55L49.8161 16.7537C44.8688 16.9196 39.6612 16.5669 36.1288 20.0196C37.2534 19.9886 38.7273 22.3835 39.8518 22.3524C37.7494 22.3938 35.8429 23.8647 34.9142 25.7432C34.0542 27.6732 33.853 29.8306 34.3414 31.8852C34.7567 33.9377 37.9243 38.7462 38.777 40.6601C38.6303 35.6583 48.5203 23.7275 53.3498 24.9727C50.8962 25.8791 48.767 27.4886 47.2308 29.5983C50.5164 27.9474 54.2322 27.342 57.8749 27.8643C58.7066 28.0542 59.5646 28.102 60.4124 28.0057C60.932 27.9034 61.4166 27.6701 61.8198 27.3282C62.2231 26.9863 62.5316 26.5471 62.7158 26.0526C62.9 25.5582 62.9538 25.025 62.8721 24.5039C62.7904 23.9828 62.5759 23.4913 62.2491 23.0763L62.8294 23.064Z" fill="#263238"/>
<path d="M39.9563 129.887C39.6373 129.886 39.3218 129.82 39.0297 129.692L15.0685 119.279C14.5595 119.062 14.1464 118.669 13.9052 118.172C13.664 117.676 13.6109 117.11 13.7557 116.577L29.6182 56.9147C29.9131 55.8046 30.4274 54.7641 31.1311 53.8543C31.8348 52.9445 32.7137 52.1836 33.7164 51.6161C34.719 51.0487 35.8253 50.686 36.9705 50.5494C38.1156 50.4129 39.2766 50.5051 40.3855 50.8208L46.7282 52.6231L42.2631 127.717C42.2402 128.087 42.1279 128.447 41.9358 128.765C41.7438 129.083 41.4775 129.351 41.1597 129.545C40.7981 129.767 40.3815 129.886 39.9563 129.887Z" fill="#6A7B76"/>
<path d="M84.3035 116.577L83.2493 112.619L81.7223 106.865L80.9869 104.106L79.4599 98.3666L68.4409 56.9136C68.1469 55.803 67.6331 54.762 66.9297 53.8517C66.2262 52.9414 65.3472 52.1802 64.3443 51.6127C63.3414 51.0453 62.2348 50.6829 61.0893 50.547C59.9439 50.4111 58.7827 50.5044 57.6739 50.8213L51.334 52.6234L54.4756 105.442L54.7997 110.956L55.0053 114.432V114.437L55.3342 119.92L55.7972 127.717C55.8349 128.302 56.0941 128.852 56.5225 129.255C56.9508 129.657 57.5166 129.884 58.1057 129.888C58.4243 129.886 58.7392 129.82 59.0314 129.693L82.9922 119.28C83.5015 119.063 83.9148 118.669 84.1558 118.173C84.3968 117.676 84.4492 117.109 84.3035 116.577Z" fill="#6A7B76"/>
<path d="M80.9866 104.106L54.7998 110.956L54.4753 105.442L79.46 98.3666L80.9866 104.106Z" fill="#CCCCCC"/>
<path d="M83.249 112.619L55.3339 119.92L55.0054 114.437V114.432L81.7223 106.865L83.249 112.619Z" fill="#CCCCCC"/>
<path d="M43.2615 106.63L42.9371 112.041L17.2542 104.423L18.7602 98.7608L43.2615 106.63Z" fill="#CCCCCC"/>
<path d="M42.7262 115.604L16.5183 107.182L15.0117 112.86L42.4074 120.985L42.7262 115.604Z" fill="#CCCCCC"/>
<path d="M16.9755 121.263C17.7569 121.06 18.484 120.689 19.1057 120.176C19.7274 119.663 20.2286 119.02 20.5739 118.293C20.9191 117.567 21.1002 116.773 21.1042 115.969C21.1082 115.165 20.9352 114.37 20.5972 113.64L32.918 75.1277L24.1813 73.3059L12.8853 111.064C11.6909 111.711 10.7762 112.771 10.3146 114.044C9.85292 115.318 9.87642 116.715 10.3806 117.973C10.8848 119.23 11.8346 120.259 13.0501 120.866C14.2656 121.472 15.6623 121.614 16.9755 121.263Z" fill="#FFB8B8"/>
<path d="M33.26 56.1947C35.7687 56.4495 37.1798 59.258 36.5561 62.7549L33.563 79.536C33.3386 80.7939 32.2988 81.7899 31.4346 81.5748L21.3101 79.055C20.531 78.8611 20.2441 77.7591 20.6856 76.6564L26.7636 61.4751C28.0836 58.1782 30.8278 55.9476 33.26 56.1947Z" fill="#FFEFD3"/>
<path d="M48.5161 8.78473C52.7903 8.78519 56.8965 10.442 59.9652 13.4043C63.034 16.3665 64.8242 20.4017 64.9569 24.6553H68.0551C68.3278 24.6553 68.5894 24.7632 68.7823 24.9552C68.9751 25.1473 69.0834 25.4077 69.0835 25.6792V29.7749C69.0834 30.0464 68.9751 30.3069 68.7823 30.4989C68.5894 30.6909 68.3278 30.7988 68.0551 30.7988H33.0906C32.8179 30.7988 32.5563 30.6909 32.3635 30.4989C32.1706 30.3069 32.0623 30.0464 32.0623 29.7749V25.1673C32.0622 23.0159 32.4878 20.8855 33.3147 18.8979C34.1416 16.9103 35.3536 15.1043 36.8815 13.583C38.4094 12.0618 40.2232 10.855 42.2195 10.0317C44.2158 9.20845 46.3554 8.78472 48.5161 8.78473Z" fill="#6A7B76"/>
<path d="M50.4823 110.052H43.214C42.9807 110.053 42.7557 109.967 42.5829 109.811C42.4102 109.655 42.3023 109.44 42.2803 109.209L40.8254 94.3611H52.8708L51.4159 109.209C51.394 109.44 51.2861 109.654 51.1134 109.81C50.9406 109.967 50.7155 110.053 50.4823 110.052Z" fill="#E6E6E6"/>
<path d="M52.8516 96.2291H40.8448C40.5961 96.2288 40.3577 96.1303 40.1818 95.9552C40.006 95.7801 39.907 95.5427 39.9067 95.2951V93.0536C39.907 92.806 40.006 92.5686 40.1818 92.3935C40.3577 92.2184 40.5961 92.1199 40.8448 92.1196H52.8516C53.1003 92.1199 53.3388 92.2184 53.5146 92.3935C53.6905 92.5686 53.7894 92.806 53.7897 93.0536V95.2951C53.7894 95.5427 53.6905 95.7801 53.5146 95.9552C53.3388 96.1303 53.1003 96.2288 52.8516 96.2291Z" fill="#CCCCCC"/>
<path d="M47.0042 102.089C47.2868 102.122 47.5665 102.176 47.8405 102.253L67.1975 85.7247L66.066 79.6604L75.0347 76.764L78.0856 87.3058C78.3321 88.1574 78.2945 89.0657 77.9784 89.8942C77.6623 90.7227 77.0848 91.4268 76.3326 91.9007L51.8176 107.347C51.835 108.438 51.5183 109.508 50.9097 110.416C50.3011 111.324 49.4293 112.025 48.4105 112.427C47.3916 112.83 46.2739 112.914 45.2059 112.668C44.138 112.422 43.1705 111.859 42.4321 111.052C41.6937 110.246 41.2194 109.235 41.0723 108.153C40.9252 107.072 41.1122 105.971 41.6086 104.998C42.1049 104.025 42.887 103.226 43.8508 102.706C44.8147 102.186 45.9145 101.971 47.0042 102.089Z" fill="#FFB8B8"/>
<path d="M67.2478 57.5808C69.9275 56.8339 72.6051 58.8647 73.5023 62.3245L77.8078 78.9273C78.1305 80.1719 77.5037 81.4945 76.5246 81.6347L65.0549 83.2773C64.1723 83.4037 63.3947 82.5025 63.3623 81.3158L62.917 64.9777C62.8203 61.4295 64.6497 58.3049 67.2478 57.5808Z" fill="#FFEFD3"/>
<path d="M221.417 163.636C216.136 156.642 211.961 148.884 209.038 140.633C208.868 140.139 208.88 139.602 209.071 139.116C209.263 138.631 209.621 138.228 210.082 137.981L228.153 128.34C228.446 128.183 228.77 128.094 229.102 128.081C229.434 128.068 229.765 128.13 230.069 128.263C230.379 128.397 230.654 128.599 230.873 128.855C231.092 129.111 231.25 129.413 231.334 129.739C233.438 137.691 237.392 145.038 242.876 151.185C243.101 151.436 243.267 151.734 243.359 152.057C243.452 152.381 243.469 152.721 243.41 153.052C243.352 153.378 243.221 153.687 243.026 153.954C242.831 154.222 242.577 154.442 242.284 154.597L224.213 164.238C223.75 164.484 223.216 164.558 222.704 164.447C222.192 164.337 221.736 164.049 221.417 163.636Z" fill="#CCCCCC"/>
<path d="M222.65 162.713C222.747 162.834 222.884 162.917 223.036 162.948C223.188 162.98 223.347 162.957 223.484 162.885L241.555 153.243C241.643 153.198 241.719 153.133 241.777 153.053C241.835 152.973 241.874 152.881 241.891 152.784C241.91 152.682 241.904 152.576 241.875 152.476C241.846 152.376 241.794 152.284 241.724 152.207C236.078 145.878 232.008 138.315 229.842 130.129C229.817 130.028 229.769 129.934 229.702 129.854C229.634 129.775 229.549 129.712 229.453 129.671C229.362 129.63 229.264 129.611 229.164 129.615C229.065 129.62 228.969 129.646 228.882 129.694L210.811 139.335C210.674 139.409 210.567 139.528 210.509 139.671C210.451 139.815 210.445 139.974 210.492 140.122C213.364 148.226 217.464 155.844 222.65 162.713Z" fill="white"/>
<path d="M229.34 142.099L219.498 146.425C219.123 146.589 218.699 146.598 218.317 146.451C217.936 146.304 217.629 146.012 217.463 145.64L217.22 145.091C217.055 144.718 217.046 144.295 217.193 143.916C217.341 143.536 217.634 143.23 218.008 143.065L227.851 138.74C228.225 138.576 228.649 138.566 229.031 138.713C229.412 138.86 229.719 139.152 229.885 139.524L230.128 140.073C230.293 140.446 230.302 140.869 230.155 141.248C230.007 141.628 229.714 141.934 229.34 142.099Z" fill="#CCCCCC"/>
<path d="M232.939 148.754L223.097 153.08C222.723 153.244 222.298 153.254 221.917 153.106C221.535 152.959 221.228 152.668 221.063 152.295L220.819 151.746C220.655 151.373 220.645 150.951 220.793 150.571C220.941 150.191 221.234 149.886 221.608 149.721L231.45 145.395C231.824 145.231 232.249 145.221 232.63 145.369C233.011 145.516 233.318 145.807 233.484 146.18L233.727 146.729C233.892 147.102 233.902 147.524 233.754 147.904C233.606 148.284 233.313 148.589 232.939 148.754Z" fill="#CCCCCC"/>
<path d="M209.856 143.208C209.177 142.774 208.601 142.196 208.171 141.515C207.74 140.835 207.465 140.069 207.364 139.272C207.263 138.474 207.338 137.664 207.586 136.898C207.833 136.133 208.246 135.431 208.795 134.842L204.645 76.1932L216.601 77.3477L216.929 134.782C217.862 135.767 218.4 137.058 218.441 138.411C218.482 139.764 218.023 141.085 217.151 142.124C216.28 143.162 215.055 143.846 213.711 144.046C212.366 144.246 210.994 143.948 209.856 143.208Z" fill="#A0616A"/>
<path d="M207.351 95.8998C207.071 95.6993 206.84 95.4388 206.674 95.1375C206.509 94.8362 206.414 94.5017 206.395 94.1588L205.519 78.3517C205.432 76.7856 205.931 75.243 206.919 74.0214C207.907 72.7997 209.314 71.9855 210.87 71.7358C212.425 71.486 214.018 71.8184 215.341 72.6688C216.665 73.5193 217.626 74.8275 218.038 76.3413L221.886 90.4738C222.046 91.0635 221.964 91.6922 221.659 92.2221C221.354 92.752 220.85 93.1397 220.258 93.3002L209.311 96.2554C208.979 96.3459 208.63 96.3609 208.291 96.2994C207.951 96.2378 207.63 96.1013 207.351 95.8998Z" fill="#FFEFD3"/>
<path d="M186.973 215.311H180.669L177.67 191.102H186.974L186.973 215.311Z" fill="#A0616A"/>
<path d="M176.167 213.518H188.324V221.139H168.512C168.512 220.138 168.71 219.147 169.095 218.223C169.48 217.298 170.043 216.458 170.754 215.75C171.465 215.042 172.309 214.481 173.238 214.098C174.166 213.715 175.162 213.518 176.167 213.518Z" fill="#263238"/>
<path d="M210.626 215.311H204.322L201.323 191.102H210.627L210.626 215.311Z" fill="#A0616A"/>
<path d="M199.819 213.518H211.976V221.139H192.165C192.165 220.138 192.363 219.147 192.747 218.223C193.132 217.298 193.696 216.458 194.407 215.75C195.117 215.042 195.961 214.481 196.89 214.098C197.819 213.715 198.814 213.518 199.819 213.518Z" fill="#263238"/>
<path d="M186.675 203.115L179.736 202.786C179.145 202.758 178.587 202.505 178.177 202.08C177.767 201.655 177.536 201.09 177.532 200.501C175.703 172.385 173.169 142.237 177.048 130.59C177.045 130.258 177.115 129.93 177.252 129.627C177.389 129.325 177.59 129.055 177.841 128.837C178.093 128.619 178.388 128.458 178.708 128.364C179.028 128.27 179.364 128.246 179.694 128.294L207.457 132.306C208.005 132.383 208.508 132.654 208.872 133.07C209.236 133.485 209.437 134.018 209.438 134.569C212.983 148.36 213.143 173.366 213.009 199.349C213.011 199.653 212.953 199.955 212.838 200.236C212.722 200.518 212.552 200.774 212.337 200.989C212.122 201.205 211.866 201.376 211.584 201.493C211.303 201.61 211 201.67 210.695 201.67H203.213C202.662 201.673 202.127 201.477 201.708 201.12C201.288 200.763 201.011 200.268 200.928 199.725L196.312 170.509C196.245 170.081 196.024 169.692 195.691 169.414C195.358 169.136 194.935 168.987 194.501 168.995C194.066 169.003 193.649 169.167 193.327 169.458C193.005 169.748 192.799 170.144 192.747 170.574L189.083 201.088C189.014 201.647 188.742 202.162 188.319 202.535C187.896 202.909 187.351 203.116 186.785 203.118C186.749 203.118 186.712 203.117 186.675 203.115Z" fill="#263238"/>
<path d="M191.561 134.572C185.442 131.188 180.661 130.298 178.356 130.069C178.05 130.04 177.753 129.949 177.483 129.801C177.213 129.654 176.976 129.454 176.786 129.213C176.592 128.97 176.45 128.69 176.368 128.391C176.285 128.092 176.265 127.779 176.308 127.471L182.96 78.2978C183.343 75.421 184.459 72.6896 186.202 70.3636C187.944 68.0375 190.256 66.1942 192.916 65.009C195.491 63.8303 198.327 63.3273 201.152 63.5478C203.978 63.7683 206.7 64.7051 209.059 66.2689C209.287 66.4198 209.511 66.574 209.73 66.7313C212.447 68.7134 214.514 71.452 215.671 74.6018C216.827 77.7517 217.021 81.1719 216.228 84.4313C212.149 101.047 210.747 128.286 210.508 133.578C210.489 134.029 210.337 134.465 210.07 134.83C209.802 135.195 209.433 135.473 209.007 135.629C206.498 136.537 203.849 137.006 201.179 137.017C197.815 137.037 194.503 136.195 191.561 134.572Z" fill="#FFEFD3"/>
<path d="M197.125 58.3321C204.1 58.3321 209.754 52.7025 209.754 45.758C209.754 38.8135 204.1 33.1838 197.125 33.1838C190.15 33.1838 184.496 38.8135 184.496 45.758C184.496 52.7025 190.15 58.3321 197.125 58.3321Z" fill="#A0616A"/>
<path d="M206.062 55.7061C203.706 58.2048 199.33 56.8634 199.023 53.4498C198.999 53.1848 199.001 52.918 199.029 52.6533C199.187 51.1412 200.065 49.7685 199.854 48.1719C199.807 47.7745 199.658 47.3959 199.422 47.0717C197.545 44.5686 193.138 48.1913 191.366 45.9253C190.28 44.5359 191.557 42.3482 190.723 40.7953C189.623 38.7456 186.363 39.7567 184.319 38.6342C182.045 37.3853 182.181 33.9113 183.678 31.7983C185.504 29.2213 188.705 27.8462 191.866 27.648C195.027 27.4499 198.166 28.3007 201.117 29.4457C204.47 30.7468 207.795 32.5449 209.859 35.4804C212.368 39.0504 212.609 43.8498 211.354 48.0242C210.591 50.5635 207.986 53.6656 206.062 55.7061Z" fill="#263238"/>
<path d="M216.063 67.9309C215.842 66.8967 213.944 65.4837 211.23 64.3318C206.866 62.572 202.146 61.8634 197.455 62.2637C192.764 62.6641 188.234 64.162 184.235 66.6356C183.956 66.6506 183.69 66.7563 183.477 66.9367C183.264 67.1171 183.117 67.3621 183.057 67.6339L173.925 107.848L172.738 113.085L171.951 116.551L170.763 121.773L170.131 124.563C170.09 124.742 170.089 124.927 170.126 125.106C170.163 125.285 170.238 125.454 170.346 125.602C170.454 125.75 170.593 125.873 170.752 125.963C170.912 126.053 171.089 126.108 171.272 126.125L210.705 129.514C210.741 129.514 210.782 129.519 210.818 129.519C211.143 129.517 211.456 129.392 211.693 129.17C211.929 128.948 212.072 128.644 212.093 128.321L212.469 122.633L212.87 116.551L213.045 113.915L213.44 107.848L216.068 67.9974V67.9616L216.063 67.9309Z" fill="#6A7B76"/>
<path d="M151.361 70.4622C151.424 70.7384 151.465 71.0192 151.484 71.3018L173.572 83.9891L178.941 80.9118L184.664 88.3721L173.179 96.5227L147.98 76.7292C146.952 77.1078 145.833 77.166 144.771 76.8959C143.709 76.6259 142.755 76.0403 142.036 75.2172C141.316 74.3941 140.866 73.3725 140.744 72.2882C140.621 71.2038 140.834 70.1082 141.352 69.147C141.871 68.1858 142.671 67.4045 143.647 66.9071C144.622 66.4097 145.726 66.2198 146.813 66.3626C147.899 66.5053 148.916 66.9741 149.729 67.7064C150.541 68.4387 151.11 69.3999 151.361 70.4622Z" fill="#A0616A"/>
<path d="M174.361 82.9102C174.324 82.5688 174.364 82.2235 174.479 81.8998C174.595 81.5761 174.781 81.2822 175.025 81.0399L186.267 69.8442C187.381 68.7351 188.868 68.0758 190.441 67.9935C192.014 67.9113 193.562 68.4118 194.787 69.3986C196.011 70.3855 196.825 71.7887 197.072 73.3378C197.319 74.8869 196.981 76.4721 196.123 77.7878L188.117 90.0707C187.783 90.5827 187.258 90.9417 186.658 91.0689C186.058 91.196 185.432 91.0811 184.917 90.7491L175.402 84.6013C175.113 84.415 174.869 84.1663 174.688 83.8736C174.508 83.581 174.396 83.2517 174.361 82.9102Z" fill="#FFEFD3"/>
<path d="M213.44 107.848L213.044 113.915L172.738 113.085L173.925 107.848H213.44Z" fill="#CCCCCC"/>
<path d="M212.87 116.551L212.469 122.633L170.763 121.773L171.951 116.551H212.87Z" fill="#CCCCCC"/>
<path d="M197.372 21.3276C193.098 21.3281 188.992 22.9849 185.923 25.9471C182.854 28.9094 181.064 32.9446 180.931 37.1982H177.833C177.561 37.1982 177.299 37.3061 177.106 37.4981C176.913 37.6901 176.805 37.9506 176.805 38.2221V42.3178C176.805 42.5893 176.913 42.8497 177.106 43.0418C177.299 43.2338 177.561 43.3417 177.833 43.3417H212.798C213.071 43.3417 213.332 43.2338 213.525 43.0418C213.718 42.8497 213.826 42.5893 213.826 42.3178V37.7101C213.826 35.5587 213.401 33.4284 212.574 31.4408C211.747 29.4532 210.535 27.6472 209.007 26.1259C207.479 24.6046 205.665 23.3979 203.669 22.5746C201.673 21.7513 199.533 21.3276 197.372 21.3276Z" fill="#6A7B76"/>
</svg>
