<svg width="326" height="197" viewBox="0 0 326 178" fill="none" xmlns="http://www.w3.org/2000/svg">
<g clip-path="url(#clip0_148_3854)">
<path d="M35.6562 86.6338C35.6562 86.6338 38.7365 83.0325 35.846 80.7453C35.846 80.7453 33.7348 79.4643 32.0131 79.5685C32.0131 79.5685 34.4527 83.6673 33.6635 84.0752C32.8743 84.4828 31.2739 79.3113 31.2739 79.3113C31.2739 79.3113 26.4695 78.8443 24.9238 79.5891C24.9238 79.5891 29.0309 82.9572 28.1659 83.1578C27.3009 83.3584 22.8643 80.0524 22.8643 80.0524C22.8643 80.0524 18.3928 80.815 18.631 83.5486C18.8693 86.2821 20.4102 87.1262 21.0875 87.0537C21.7649 86.981 25.7262 85.4657 25.8126 86.0216C25.8991 86.5777 23.5144 88.3949 21.8444 88.4799C21.8444 88.4799 24.997 91.964 27.0924 90.9584C29.1877 89.9529 29.3665 88.3591 30.6727 87.7612C31.9789 87.1633 33.0938 87.1648 32.5546 87.7745C32.0153 88.3841 29.6515 88.9767 28.9046 90.3007C28.1575 91.6246 27.4876 92.5177 29.6553 92.1907C31.8232 91.8639 35.347 90.2744 35.5016 88.4543L35.6562 86.6338Z" fill="#B74846"/>
<path d="M20.828 83.6222C20.828 83.6222 32.9738 83.1531 35.6561 86.6338C35.6561 86.6338 36.2493 88.4139 38.0747 90.0352L38.3592 90.8121C38.3592 90.8121 36.2546 88.5884 35.5015 88.454C35.5015 88.454 36.679 84.1417 20.828 83.6222Z" fill="#B74846"/>
<path d="M38.0745 90.0353C38.0745 90.0353 40.6816 91.9671 40.8626 95.4193L40.3894 95.4617C40.3894 95.4617 39.5568 91.8922 38.0519 90.4964C36.5471 89.1006 38.0745 90.0353 38.0745 90.0353Z" fill="#B74846"/>
<path d="M46.4263 82.1049C46.4263 82.1049 41.5261 79.3551 43.8129 75.6233C43.8129 75.6233 45.6422 73.3318 47.6023 72.7425C47.6023 72.7425 46.557 78.3077 47.6023 78.4386C48.6476 78.5696 48.3209 72.1534 48.3209 72.1534C48.3209 72.1534 53.4823 69.6655 55.508 69.8619C55.508 69.8619 52.3063 75.2959 53.3518 75.1649C54.3972 75.034 57.9907 69.5346 57.9907 69.5346C57.9907 69.5346 63.2828 68.5525 64.1321 71.695C64.9815 74.8378 63.6095 76.4091 62.8254 76.6053C62.0414 76.8019 57.0107 76.7363 57.1412 77.391C57.2717 78.0457 60.6694 79.0934 62.564 78.5042C62.564 78.5042 60.4732 83.6763 57.7293 83.4145C54.9853 83.1527 54.1358 81.4504 52.437 81.3194C50.7383 81.1884 49.4969 81.6468 50.3462 82.1051C51.1955 82.5634 54.0706 82.2553 55.4425 83.4242C56.8145 84.5931 57.9253 85.3132 55.3773 85.837C52.8289 86.3607 48.2556 86.0333 47.3409 84.0692C46.4261 82.1051 46.4263 82.1049 46.4263 82.1049Z" fill="#D0665F"/>
<path d="M61.7149 72.6771C61.7149 72.6771 47.9943 77.1291 46.4263 82.1049C46.4263 82.1049 46.4916 84.331 45.1196 86.8842V87.8663C45.1196 87.8663 46.557 84.5274 47.3411 84.0691C47.3411 84.0691 44.2703 79.7481 61.7149 72.6771Z" fill="#B74846"/>
<path d="M45.1196 86.8844C45.1196 86.8844 43.0037 90.1042 44.2099 94.0235L44.7543 93.877C44.7543 93.877 44.226 89.5601 45.3329 87.3888C46.44 85.2177 45.1196 86.8844 45.1196 86.8844Z" fill="#B74846"/>
<path d="M38.6306 78.3126C38.6306 78.3126 45.0899 74.688 42.0754 69.7688C42.0754 69.7688 39.6638 66.7482 37.0803 65.9715C37.0803 65.9715 38.4583 73.3072 37.0803 73.48C35.7021 73.6526 36.1329 65.195 36.1329 65.195C36.1329 65.195 29.3292 61.9152 26.6591 62.1741C26.6591 62.1741 30.8792 69.3373 29.5013 69.1647C28.1233 68.992 23.3864 61.7426 23.3864 61.7426C23.3864 61.7426 16.4103 60.4482 15.2908 64.5907C14.1711 68.7332 15.9797 70.8045 17.0131 71.0634C18.0466 71.3224 24.6784 71.236 24.5061 72.099C24.3338 72.9621 19.8553 74.3429 17.3577 73.5662C17.3577 73.5662 20.1136 80.384 23.731 80.0389C27.3483 79.6938 28.4678 77.4498 30.7072 77.2772C32.9463 77.1048 34.5828 77.7087 33.4631 78.3128C32.3435 78.9171 28.554 78.5108 26.7453 80.0517C24.9367 81.5925 23.4727 82.5419 26.8315 83.2322C30.1903 83.9225 36.2191 83.4911 37.4248 80.902L38.6306 78.3126Z" fill="#D0665F"/>
<path d="M18.4773 65.8849C18.4773 65.8849 36.5634 71.7535 38.6305 78.3124C38.6305 78.3124 38.5443 81.2467 40.3529 84.6125V85.9071C40.3529 85.9071 38.4581 81.5055 37.4246 80.9016C37.4248 80.9018 41.4725 75.2058 18.4773 65.8849Z" fill="#B74846"/>
<path d="M40.353 84.6127C40.353 84.6127 43.1423 88.857 41.5522 94.0235L40.8344 93.8304C40.8344 93.8304 41.5308 88.14 40.0717 85.2778C38.6126 82.4159 40.353 84.6127 40.353 84.6127Z" fill="#B74846"/>
<path d="M38.8482 105.227C31.8602 105.227 26.1954 99.5507 26.1954 92.5484H51.5011C51.5011 99.5505 45.8362 105.227 38.8482 105.227Z" fill="#CCCCCC"/>
<path d="M42.5849 105.13C42.0634 105.195 41.5384 105.227 41.0129 105.227C34.0251 105.227 28.3607 99.5503 28.3607 92.548H31.5039C31.5039 99.0173 36.3386 104.354 42.5849 105.13Z" fill="#E8E8E8"/>
<path d="M26.0204 105.872H51.6755C51.6755 105.458 51.5111 105.06 51.2183 104.766C50.9256 104.473 50.5285 104.308 50.1145 104.308H27.5816C27.3766 104.308 27.1735 104.349 26.9841 104.427C26.7947 104.506 26.6226 104.621 26.4776 104.766C26.3326 104.912 26.2176 105.084 26.1392 105.274C26.0607 105.464 26.0204 105.667 26.0204 105.872Z" fill="#CCCCCC"/>
<path d="M51.9171 92.548V92.937H25.9073V92.548H51.9171Z" fill="#E8E8E8"/>
<path d="M95.635 101.242L97.5196 110.894L93.4556 111.236L88.8698 101.841L95.635 101.242Z" fill="#6A7B76"/>
<path d="M248.742 84.7316L250.626 94.3839L246.562 94.726L241.976 85.3306L248.742 84.7316Z" fill="#6A7B76"/>
<path d="M221.394 154V177.706H192.703V154H221.394Z" fill="#CCCCCC"/>
<path d="M235.739 154V177.706H207.048V154H235.739Z" fill="#E8E8E8"/>
<path d="M267.504 154V177.706H238.813V154H267.504Z" fill="#CCCCCC"/>
<path d="M281.85 154V177.706H253.159V154H281.85Z" fill="#E8E8E8"/>
<path d="M246.003 130.569V154.275H217.312V130.569H246.003Z" fill="#CCCCCC"/>
<path d="M260.348 130.569V154.275H231.657V130.569H260.348Z" fill="#E8E8E8"/>
<path d="M237.82 47.0377C237.434 48.2243 232.669 49.805 225.529 51.521C224.203 51.839 222.875 52.1456 221.544 52.4406C197.196 57.8447 129.864 66.7055 125.617 66.3545C119.748 65.8697 102.431 12.8506 102.431 12.8506C102.431 12.8506 136.055 8.63956 162.776 5.46358C171.917 4.37832 203.724 0.689576 209.626 0.0474766C218.769 -0.946636 238.442 45.1156 237.82 47.0377Z" fill="#D0665F"/>
<path d="M227.742 41.0865C227.742 41.0865 213.375 5.03013 212.29 1.98659C211.807 0.630053 210.727 0.238218 209.681 0.220864C211.48 -0.14083 212.801 -0.297018 212.801 -0.297018C216.379 -0.686114 219.804 1.22813 221.316 4.46237C224.614 11.5165 231.114 25.0508 237.276 38.3039C237.039 38.3241 227.742 41.0865 227.742 41.0865Z" fill="#DB7C79"/>
<path d="M293.986 67.1905C293.347 76.6965 283.206 83.8089 272.145 85.0118L250.236 87.3943L246.099 33.3253C246.099 33.3253 266.325 24.6517 272.185 29.7136C277.319 34.148 291.908 52.3254 293.816 63.8158C294.008 64.969 294.061 66.0961 293.986 67.1905Z" fill="#DB7C79"/>
<path d="M293.986 67.1905C293.347 76.6965 283.206 83.8089 272.145 85.0118L261.398 86.1804C268.1 81.1143 273.149 67.1982 293.986 67.1905Z" fill="#D0665F"/>
<path d="M232.217 40.1761C232.217 40.1761 260.33 23.6487 266.87 31.7366C270.343 36.031 280.517 53.5637 282.374 65.0596C284.177 76.2294 273.949 84.8151 262.605 86.0487L242.457 88.2397L232.217 40.1761Z" fill="#D0665F"/>
<path d="M275.439 75.4689C275.135 75.7531 274.826 76.0313 274.511 76.3034C270.562 79.721 265.249 82.6758 259.038 84.8253C254.344 86.4491 249.138 87.6125 243.622 88.1671L234.042 89.2117L233.912 89.2259L188.565 94.1687L162.572 97.0025L162.187 97.0444L162.184 97.0341L160.803 92.704L147.736 48.9404C147.736 48.9404 261.382 34.146 271.181 38.1014C275.732 39.9375 279.206 49.2164 281.698 59.5865C283.024 65.1082 280.542 70.6965 275.439 75.4689Z" fill="#B74846"/>
<path d="M275.439 75.4689C275.135 75.7531 274.826 76.0313 274.511 76.3034C270.562 79.721 265.249 82.6758 259.038 84.8253C254.344 86.4491 249.138 87.6126 243.622 88.1672L234.042 89.2117L233.912 89.2259L188.565 94.1687L162.572 97.0026L162.184 97.0342L160.802 92.7041C176.422 88.0817 198.151 82.749 221.173 80.4757C243.161 78.3048 261.548 76.2769 275.439 75.4689Z" fill="#A33333"/>
<path d="M183.063 79.7468C182.265 88.9855 173.137 95.7783 163.144 96.865L142.996 99.056L138.685 44.5228C138.685 44.5228 157.267 36.5111 162.705 41.6189C167.47 46.0935 181.057 64.3799 182.913 75.8759C183.127 77.206 183.172 78.4988 183.063 79.7468Z" fill="#DB7C79"/>
<path d="M183.063 79.7468C182.265 88.9855 173.137 95.7783 163.144 96.865L147.021 98.6183C154.079 93.2835 162.89 79.7051 183.063 79.7468Z" fill="#D0665F"/>
<path d="M171.574 81.3788C171.16 85.0374 169.441 88.2985 166.894 90.9573L166.893 90.9586C165.372 92.5448 163.556 93.9157 161.543 95.028C159.071 96.3961 156.303 97.3749 153.425 97.8823C153.275 97.9077 153.126 97.9327 152.977 97.9568C152.858 97.9755 152.737 97.993 152.618 98.0093C152.419 98.039 152.22 98.066 152.02 98.0902C151.915 98.1026 151.808 98.1154 151.7 98.1271L131.553 100.318L131.55 100.309L130.389 100.449C128.308 100.698 126.226 100.945 124.145 101.188C123.808 101.228 123.477 101.266 123.15 101.304C123.028 101.318 122.906 101.331 122.788 101.344C120.803 101.573 119.048 101.769 117.794 101.897C116.032 102.079 114.36 102.15 112.775 102.1C110.73 102.038 108.833 101.778 107.07 101.302C106.758 101.218 106.447 101.127 106.14 101.027C105.83 100.927 105.523 100.819 105.218 100.703C104.418 100.4 103.64 100.04 102.891 99.6256C100.968 98.5602 99.2493 97.1341 97.7218 95.3141C96.6591 94.0482 95.687 92.5917 94.8033 90.9321C93.72 88.9031 92.7705 86.5695 91.9414 83.9127C91.9197 83.8453 91.898 83.7781 91.8774 83.7094C91.5009 82.488 91.1493 81.1991 90.8226 79.8407C90.6711 79.2092 90.5275 78.5759 90.3916 77.9409C89.9007 75.6531 89.4727 73.1829 89.1021 70.5223C89.0698 70.2891 89.0381 70.0557 89.0071 69.8223L88.9865 69.6661C88.7072 67.5507 88.4631 65.3192 88.2524 62.9638C88.1598 61.932 88.0743 60.878 87.9946 59.7986C87.9582 59.3079 87.9237 58.8127 87.89 58.3127C87.7223 55.8021 87.5879 53.1684 87.4829 50.407C87.4361 49.1668 87.3947 47.901 87.3602 46.6088C87.2171 41.2844 87.179 35.5155 87.2317 29.2785C87.29 22.1988 87.7018 17.2096 88.9493 15.9477C90.7894 14.0864 94.9278 12.9675 97.8285 12.3846L97.8309 12.3844C99.6298 12.0224 100.951 11.8665 100.951 11.8665C101.016 11.8594 101.081 11.8534 101.146 11.8476C101.304 11.8341 101.461 11.8251 101.62 11.8207C101.682 11.8185 101.745 11.8172 101.807 11.817C101.849 11.8159 101.89 11.8159 101.931 11.817C101.993 11.817 102.055 11.8181 102.117 11.8205C102.302 11.8257 102.488 11.8374 102.672 11.8556C102.678 11.855 102.686 11.8563 102.692 11.8569C102.746 11.8622 102.801 11.8675 102.855 11.8751C102.959 11.8863 103.063 11.9009 103.165 11.9168C103.236 11.9283 103.305 11.9398 103.375 11.9524L103.521 11.9804C104.097 12.0966 104.659 12.2724 105.199 12.5048C107.041 13.2991 108.581 14.7435 109.467 16.6422C114.249 26.8948 119.022 37.1519 123.785 47.4135C123.813 47.4756 123.843 47.5375 123.871 47.5996C124.201 48.3091 124.531 49.0217 124.862 49.7343C124.894 49.8061 124.928 49.879 124.962 49.9506L125.013 50.0597C125.248 49.9364 125.49 49.8078 125.742 49.6781C125.75 49.6726 125.759 49.6679 125.768 49.664C126.876 49.0845 127.993 48.5216 129.118 47.9756L129.12 47.9754C129.774 47.6574 130.43 47.3455 131.09 47.0395C133.006 46.1512 135.079 45.2524 137.193 44.4437C138.127 44.083 139.07 43.7433 140.02 43.4248C141.231 43.0189 142.437 42.655 143.619 42.3547C143.659 42.3435 143.692 42.3355 143.721 42.3278C143.861 42.2924 144 42.2593 144.139 42.2252C144.973 42.0242 145.792 41.8543 146.588 41.7237H146.59C150.663 41.0571 154.134 41.4101 155.949 43.6597C156.627 44.5009 157.561 45.8481 158.639 47.5574C160.868 51.0918 163.711 56.1765 166.18 61.5369C168.634 66.8621 170.718 72.4597 171.464 77.0838C171.703 78.5649 171.731 79.9994 171.574 81.3788Z" fill="#B74846"/>
<path d="M115.892 53.2497C115.892 53.2497 101.524 17.1933 100.439 14.1498C99.956 12.7931 98.8763 12.4012 97.8297 12.3841C99.6295 12.0224 100.951 11.8662 100.951 11.8662C104.529 11.4771 107.953 13.3913 109.465 16.6256C114.654 27.7258 119.833 38.8313 125 49.9419C124.763 49.9623 115.892 53.2497 115.892 53.2497Z" fill="#DB7C79"/>
<path d="M265.125 87.3942C265.014 87.3292 261.551 88.2177 260.583 88.2398C259.736 88.259 256.551 87.5389 256.192 86.7465C256.141 86.6332 259.876 86.4058 260.465 86.0351C260.759 85.8506 261.998 85.0533 263.04 85.1278C264.083 85.2025 264.641 85.1229 264.641 85.1229L265.125 87.3942Z" fill="#FFB27D"/>
<path d="M303.732 48.4472C303.732 48.4472 298.773 52.5079 293.984 49.5197C293.984 49.5197 293.376 46.6174 293.732 44.629C293.776 44.3842 293.817 44.1469 293.856 43.9209C294.247 41.6799 294.406 40.4112 294.406 40.4112H294.412C294.665 40.3571 302.917 38.6444 302.862 38.9049C301.599 44.9275 303.732 48.4472 303.732 48.4472Z" fill="#FFB27D"/>
<path d="M301.823 40.2024C300.827 41.436 297.789 43.6447 293.856 43.9209C294.247 41.6799 294.406 40.4112 294.406 40.4112H294.412C294.634 40.394 302.118 39.8391 301.823 40.2024Z" fill="#ED975D"/>
<path d="M292.845 39.8774C292.845 39.8774 301.082 43.5265 303.271 38.3512C305.46 33.1757 307.997 30.1613 302.83 27.6125C297.663 25.0638 295.8 26.6019 294.65 28.1512C293.5 29.7006 290.758 38.7949 292.845 39.8774Z" fill="#FFB27D"/>
<path d="M302.701 39.7661C302.804 39.8637 304.552 40.7829 309.375 34.433C310.132 33.4361 310.953 31.1262 310.062 28.7816C309.17 26.437 304.923 23.927 301.273 22.4963C297.622 21.0654 296.314 23.0292 295.021 25.0066C293.664 27.0825 290.615 28.4287 290.615 28.4287C293.537 30.8692 297.958 28.9944 299.239 29.6802C300.521 30.3659 300.6 32.6071 300.573 33.3159C300.546 34.0245 300.596 34.627 302.424 34.333C304.251 34.0391 302.743 36.9106 302.36 37.4422C302.36 37.442 301.837 38.9509 302.701 39.7661Z" fill="#A9453D"/>
<path d="M315.307 177.618H320.616C321.729 177.618 322.965 176.501 323.275 174.457C323.585 172.411 325.872 171.296 326.367 169.622C326.863 167.949 324.326 165.593 324.326 165.593L323.902 165.047L323.461 164.478L319.256 165.469C319.256 165.469 319.152 166.472 319.087 167.75C319.042 168.673 319.017 169.74 319.07 170.675C319.194 172.907 318.446 175.31 316.468 175.744C314.488 176.178 315.307 177.618 315.307 177.618Z" fill="#6A7B76"/>
<path d="M278.35 177.618H292.422C292.556 177.591 292.659 177.562 292.721 177.531C293.66 177.059 293.366 173.455 293.253 172.341C293.231 172.135 293.216 172.014 293.216 172.014C293.216 172.014 288.268 168.048 287.587 171.085C287.565 171.178 287.541 171.272 287.514 171.364V171.366C286.655 174.207 282.815 175.497 280.597 175.857C278.902 176.133 278.463 177.123 278.35 177.618Z" fill="#6A7B76"/>
<path d="M281.186 96.3001C281.186 96.3001 281.938 105.696 282.821 116.989C284.021 132.331 285.465 151.176 285.608 154.746C285.855 160.945 286.846 170.861 286.846 170.861C286.846 170.861 289.195 173.217 293.897 172.224C293.897 172.224 298.086 158.069 299.283 143.091L299.339 142.351C300.452 127.104 302.184 94.9986 302.184 94.9986L281.186 96.3001Z" fill="#263238"/>
<path d="M283.986 95.6749C283.986 95.6749 283.5 101.537 286.205 112.536C288.191 120.606 299.283 143.092 299.283 143.092L299.339 142.351C300.452 127.105 302.183 94.9988 302.183 94.9988L283.986 95.6749Z" fill="#1E282E"/>
<path d="M283.986 95.6749C283.986 95.6749 298.163 131.443 307.07 147.433C315.976 163.424 318.76 167.886 318.76 167.886C318.76 167.886 323.862 165.841 324.326 164.446C324.326 164.446 320.92 133.576 314.956 126.05C311.586 121.798 307.627 109.037 307.441 104.575C307.255 100.112 306.235 91.2803 306.235 91.2803L283.986 95.6749Z" fill="#263238"/>
<path d="M283.273 94.9986C285.257 95.1188 306.188 94.3256 306.193 93.1541C306.212 89.0801 307.062 82.4856 308.123 74.4763C308.315 73.0013 308.468 71.5216 308.583 70.0386C308.876 66.226 308.889 62.555 308.605 59.2383C308.078 53.0767 305.467 48.1087 302.803 45.7919C302.453 45.4988 301.163 46.4802 298.999 47.3596C297 48.1706 295.417 47.5892 293.62 47.0857L291.323 49.1112C289.412 50.8961 287.365 53.6176 286.367 56.0689C286.367 56.0695 283.096 94.9866 283.273 94.9986Z" fill="#FFEFD3"/>
<path d="M286.367 56.0695L292.084 57.4015L299.951 78.7523C300.503 80.2493 301.499 81.541 302.806 82.4533C304.112 83.3656 305.666 83.8547 307.259 83.8547L306.569 94.3945L281.186 96.3005L286.367 56.0695Z" fill="#263238"/>
<path d="M263.889 86.0414C263.481 84.4139 264.284 83.9874 264.284 83.9874C264.284 83.9874 280.46 77.96 281.801 77.2576C283.143 76.5553 293.037 61.7137 293.037 61.7137C293.037 61.7137 296.757 55.6164 300.778 56.0963C304.272 56.5134 306.03 58.872 306.91 61.2611C307.96 64.1078 307.134 67.3092 304.871 69.3261C299.791 73.8533 289.601 82.806 287.052 84.0774C281.379 86.9076 265.005 88.1682 265.005 88.1682C265.005 88.1682 264.21 87.3195 263.889 86.0414Z" fill="#FFEFD3"/>
<path d="M298.008 51.2171C299.339 49.978 303.607 46.5739 303.607 46.5739C303.607 46.5739 303.272 46.2116 303.149 46.0922C303.071 46.0162 302.803 45.7922 302.803 45.7922C302.234 45.6715 297.822 48.9967 296.354 50.3074C294.585 51.8858 289.833 56.8769 289.833 56.8769L292.084 57.4013C292.084 57.4013 296.441 52.6757 298.008 51.2171Z" fill="#374952"/>
<path d="M186.128 111.208V112.896C186.128 113.487 185.937 113.97 185.704 113.97H124.235C124.002 113.97 123.811 113.487 123.811 112.896V111.208C123.811 110.618 124.002 110.135 124.235 110.135H185.704C185.937 110.135 186.128 110.618 186.128 111.208Z" fill="#C4C4C4"/>
<path d="M186.128 111.208V112.896C186.128 113.487 185.953 113.97 185.739 113.97H136.939C136.725 113.97 136.55 113.487 136.55 112.896V111.208C136.55 110.618 136.725 110.135 136.939 110.135H185.739C185.953 110.135 186.128 110.618 186.128 111.208Z" fill="#D4D4D4"/>
<path d="M170.57 113.97V177.708H126.931V113.97H170.57Z" fill="#CCCCCC"/>
<path d="M182.8 113.97V177.708H139.16V113.97H182.8Z" fill="#E8E8E8"/>
<path d="M180.456 174.189H141.506V115.771H180.456V174.189ZM141.926 173.768H180.035V116.192H141.926V173.768Z" fill="#C4C4C4"/>
<path d="M180.245 135.096V135.517H141.716V135.096H180.245Z" fill="#C4C4C4"/>
<path d="M180.245 154.798V155.22H141.716V154.798H180.245Z" fill="#C4C4C4"/>
<path d="M164.928 119.538H157.779C157.612 119.538 157.452 119.471 157.333 119.352C157.215 119.234 157.149 119.074 157.148 118.906C157.149 118.739 157.215 118.578 157.333 118.46C157.452 118.341 157.612 118.274 157.779 118.274H164.928C165.096 118.274 165.256 118.341 165.374 118.46C165.492 118.578 165.559 118.739 165.559 118.906C165.559 119.074 165.492 119.234 165.374 119.353C165.256 119.471 165.096 119.538 164.928 119.538Z" fill="#C4C4C4"/>
<path d="M164.928 138.805H157.779C157.612 138.804 157.452 138.737 157.333 138.619C157.215 138.5 157.149 138.34 157.148 138.173C157.149 138.005 157.215 137.844 157.333 137.726C157.452 137.608 157.612 137.541 157.779 137.54H164.928C165.096 137.541 165.256 137.607 165.374 137.726C165.492 137.844 165.559 138.005 165.559 138.173C165.559 138.34 165.492 138.501 165.374 138.619C165.256 138.737 165.096 138.804 164.928 138.805Z" fill="#C4C4C4"/>
<path d="M164.928 158.888H157.779C157.612 158.888 157.452 158.821 157.333 158.703C157.215 158.584 157.149 158.424 157.148 158.256C157.149 158.089 157.215 157.928 157.333 157.81C157.452 157.691 157.612 157.625 157.779 157.624H164.928C165.096 157.625 165.256 157.691 165.374 157.81C165.492 157.928 165.559 158.089 165.559 158.256C165.559 158.424 165.492 158.584 165.374 158.703C165.256 158.821 165.096 158.888 164.928 158.888Z" fill="#C4C4C4"/>
<path d="M55.1341 132.257V177.706H0.128296V132.257H55.1341Z" fill="#CCCCCC"/>
<path d="M82.6371 132.257V177.706H27.6312V132.257H82.6371Z" fill="#E8E8E8"/>
<path d="M61.8642 105.897V132.232H29.9916V105.897H61.8642Z" fill="#E8E8E8"/>
<path d="M45.9279 105.897V132.232H14.0553V105.897H45.9279Z" fill="#CCCCCC"/>
<path d="M96.2775 146.322V177.706H58.2944V146.322H96.2775Z" fill="#E8E8E8"/>
<path d="M77.286 146.322V177.706H39.303V146.322H77.286Z" fill="#CCCCCC"/>
<path d="M153.085 98.0446L154.97 107.697L150.906 108.039L146.32 98.6437L153.085 98.0446Z" fill="#6A7B76"/>
<path d="M84.5911 47.1871C84.5911 47.1871 87.9384 52.6582 93.4422 51.4177C93.4422 51.4177 94.9698 48.8779 95.2876 46.883C95.3266 46.6374 95.3658 46.3996 95.4037 46.1736C95.7716 43.9286 96.0379 42.6782 96.0379 42.6782C96.0379 42.6782 96.0366 42.6774 96.0328 42.6763C95.8113 42.5415 88.5828 38.2003 88.5493 38.4646C87.7621 44.5679 84.5911 47.1871 84.5911 47.1871Z" fill="#FFB27D"/>
<path d="M89.1043 40.0327C89.639 41.526 91.7808 44.6143 95.4039 46.1736C95.7718 43.9286 96.0382 42.6781 96.0382 42.6781C96.0382 42.6781 96.0369 42.6774 96.0331 42.6763C95.8285 42.5866 88.9448 39.5922 89.1043 40.0327Z" fill="#ED975D"/>
<path d="M97.6046 42.6897C97.6046 42.6897 88.6274 43.4158 88.2622 37.8068C87.8971 32.1978 86.4925 28.514 92.2086 27.8132C97.9248 27.1125 99.179 29.1798 99.7552 31.0223C100.332 32.8647 99.9304 42.3563 97.6046 42.6897Z" fill="#FFB27D"/>
<path d="M88.4184 39.3309C88.2886 39.3888 86.3365 39.68 83.8702 32.0922C83.483 30.9012 83.4675 28.4492 85.0798 26.5296C86.6922 24.6101 91.5269 23.6423 95.4441 23.4965C99.3613 23.3507 99.9509 25.6365 100.521 27.9305C101.12 30.3387 103.557 32.6161 103.557 32.6161C99.9954 33.9557 96.438 30.7264 95.0024 30.9507C93.5668 31.175 92.7558 33.2652 92.5481 33.9433C92.3405 34.6213 92.0953 35.1736 90.4661 34.2927C88.8369 33.4117 89.3171 36.6211 89.5045 37.2493C89.5045 37.2493 89.5025 38.8464 88.4184 39.3309Z" fill="#263238"/>
<path d="M93.4349 178.219H79.3628C79.2281 178.193 79.126 178.164 79.064 178.133C78.1245 177.661 78.4185 174.057 78.5315 172.943C78.5532 172.737 78.5687 172.616 78.5687 172.616C78.5687 172.616 83.5168 168.65 84.1979 171.687C84.2196 171.782 84.2442 171.874 84.2706 171.966V171.968C85.1296 174.809 88.9695 176.099 91.1876 176.459C92.8822 176.735 93.3219 177.725 93.4349 178.219Z" fill="#6A7B76"/>
<path d="M56.4775 178.219H51.1688C50.0561 178.219 48.8194 177.103 48.5098 175.059C48.2003 173.013 45.9126 171.898 45.4175 170.224C44.9222 168.551 47.4591 166.195 47.4591 166.195L47.8831 165.649L48.3243 165.08L52.5295 166.071C52.5295 166.071 52.6332 167.074 52.6981 168.352C52.7431 169.275 52.7678 170.342 52.7153 171.277C52.5915 173.509 53.3389 175.912 55.317 176.346C57.2962 176.78 56.4775 178.219 56.4775 178.219Z" fill="#6A7B76"/>
<path d="M90.5985 96.9023C90.5985 96.9023 89.8469 106.298 88.9637 117.592C87.7632 132.933 86.3196 151.778 86.1767 155.348C85.9299 161.547 84.9391 171.463 84.9391 171.463C84.9391 171.463 82.59 173.819 77.888 172.826C77.888 172.826 73.6982 158.671 72.5013 143.694C72.4826 143.447 72.464 143.2 72.4457 142.953C71.3324 127.707 69.6011 95.6007 69.6011 95.6007L90.5985 96.9023Z" fill="#263238"/>
<path d="M86.8049 98.7579C86.8049 98.7579 88.285 102.139 85.5794 113.138C83.5941 121.208 72.5015 143.694 72.5015 143.694C72.4828 143.447 72.4643 143.2 72.4459 142.954C71.3326 127.707 69.6013 95.6009 69.6013 95.6009L86.8049 98.7579Z" fill="#1E282E"/>
<path d="M87.7986 96.2768C87.7986 96.2768 73.6211 132.045 64.7148 148.035C55.8082 164.026 53.0249 168.488 53.0249 168.488C53.0249 168.488 47.9222 166.443 47.4583 165.049C47.4583 165.049 50.8641 134.178 56.8287 126.653C60.199 122.4 64.1582 109.639 64.3438 105.177C64.5294 100.714 65.5499 91.8824 65.5499 91.8824L87.7986 96.2768Z" fill="#263238"/>
<path d="M88.52 97.8938C86.6075 97.3524 67.106 89.6938 67.4865 88.5862C68.8079 84.7332 70.1733 78.226 71.8049 70.3137C72.1086 68.8577 72.4501 67.41 72.8292 65.9719C73.806 62.2755 75.001 58.805 76.3587 55.7672C78.8824 50.1234 82.9807 46.2948 86.2577 44.9868C86.6842 44.8257 87.5801 46.178 89.3345 47.7229C90.9551 49.1487 92.6403 49.1218 94.5025 49.2398L96.0055 51.9107C97.2234 54.227 98.2612 57.4724 98.3978 60.1163C98.3978 60.1163 88.691 97.9406 88.52 97.8938Z" fill="#FFEFD3"/>
<path d="M98.3976 60.1163L92.562 59.4866L78.1146 77.0483C77.1016 78.2797 75.7363 79.1705 74.2027 79.6005C72.6691 80.0305 71.0407 79.9792 69.5371 79.4534L65.5497 91.8822L90.0627 99.8117L98.3976 60.1163Z" fill="#263238"/>
<path d="M89.0012 51.6919C88.1519 50.0825 85.2417 45.4596 85.2417 45.4596C85.2417 45.4596 85.6032 45.265 85.7284 45.2066C85.8571 45.1467 86.2573 44.9866 86.2573 44.9866C86.8348 45.0606 89.9063 49.6563 90.8623 51.3789C92.0133 53.4532 94.7753 59.7297 94.7753 59.7297L92.5617 59.4866C92.5621 59.4866 90.0013 53.5864 89.0012 51.6919Z" fill="#374952"/>
<path d="M97.2356 96.4463C97.2356 96.4463 98.6909 97.2144 99.5557 97.1762C100.42 97.1383 101.028 97.2753 102.311 97.5496C103.594 97.8242 103.646 98.2579 102.693 98.4716C101.74 98.6853 100.661 98.2761 101.145 98.792C101.63 99.3077 106.212 99.7494 106.155 100.334C106.098 100.918 101.932 102.612 100.407 102.08C98.8815 101.547 95.3165 98.4203 95.3165 98.4203L97.2356 96.4463Z" fill="#FFB27D"/>
<path d="M97.0296 98.3289C98.3518 97.2994 97.9823 96.4679 97.9823 96.4679C97.9823 96.4679 88.9518 81.7301 88.3276 80.3487C87.7036 78.9671 89.0417 61.1686 89.0417 61.1686C89.0417 61.1686 89.8631 54.0697 86.4016 51.9641C83.3937 50.1342 82.4018 48.6339 80.2387 49.9709C77.661 51.5644 75.4459 57.5088 75.9873 60.4948C77.2027 67.1974 78.7732 79.8999 79.9982 82.4756C82.7249 88.2084 94.8424 99.3141 94.8424 99.3141C94.8424 99.3141 95.9911 99.1375 97.0296 98.3289Z" fill="#FFEFD3"/>
<path d="M95.7156 35.3743C95.9083 35.3602 96.0791 35.5974 96.0966 35.9041C96.1141 36.211 95.9739 36.476 95.7856 36.4899C95.5975 36.504 95.4092 36.2669 95.4092 35.96C95.3873 35.6533 95.5229 35.3882 95.7156 35.3743Z" fill="#48606B"/>
<path d="M98.9951 35.1045C99.1834 35.0906 99.3542 35.3278 99.3715 35.6345C99.3892 35.9414 99.2576 36.2062 99.0651 36.2203C98.8724 36.2342 98.706 35.9971 98.6841 35.6904C98.6666 35.3835 98.8068 35.1186 98.9951 35.1045Z" fill="#48606B"/>
<path d="M97.861 38.7123C98.3428 38.8036 98.8385 38.6716 99.2228 38.3497C98.5935 37.6187 98.0662 36.8054 97.6554 35.9322L97.861 38.7123Z" fill="#ED847E"/>
<path d="M94.4416 39.9909C94.4273 39.9722 94.4196 39.9493 94.4196 39.9258C94.4196 39.9023 94.4273 39.8795 94.4416 39.8608L94.4421 39.8601C94.4496 39.8519 94.4588 39.8455 94.4689 39.8411C94.4791 39.8366 94.49 39.8344 94.5011 39.8345C94.5121 39.8345 94.5231 39.8369 94.5332 39.8415C94.5433 39.846 94.5523 39.8526 94.5597 39.8608C95.0472 40.4404 95.7667 40.7376 96.495 40.6604C96.5062 40.6607 96.5173 40.6632 96.5276 40.6678C96.5379 40.6724 96.5471 40.679 96.5549 40.6872C96.5626 40.6954 96.5687 40.705 96.5727 40.7156C96.5767 40.7261 96.5786 40.7373 96.5783 40.7486C96.5786 40.7599 96.5767 40.7711 96.5727 40.7817C96.5687 40.7923 96.5627 40.8019 96.5549 40.8101C96.5472 40.8183 96.5379 40.8249 96.5276 40.8296C96.5174 40.8342 96.5063 40.8367 96.495 40.837C96.3696 40.8485 96.2438 40.8485 96.1185 40.837C95.4748 40.8074 94.8698 40.5022 94.4416 39.9909Z" fill="#48606B"/>
<path d="M94.2445 34.8953C94.1662 34.8402 94.1446 34.7278 94.1964 34.6443C94.4852 34.1438 94.9847 33.823 95.5361 33.7843C95.6306 33.7843 95.7069 33.8654 95.7069 33.9655C95.7024 34.0654 95.626 34.1445 95.5317 34.1469C95.0982 34.1887 94.7087 34.4456 94.481 34.8396C94.4646 34.8654 94.4419 34.8865 94.4151 34.9011C94.3884 34.9158 94.3583 34.9234 94.3279 34.9233C94.2986 34.919 94.2704 34.9096 94.2445 34.8953Z" fill="#48606B"/>
<path d="M99.8841 34.3003C99.6828 33.8915 99.3042 33.6148 98.8727 33.5611C98.8695 33.5611 98.8663 33.5609 98.8632 33.5605C98.7719 33.5528 98.7033 33.4677 98.7106 33.3705C98.7199 33.2708 98.8003 33.1955 98.8945 33.1984C99.4402 33.2691 99.9196 33.6155 100.182 34.1283C100.228 34.217 100.199 34.3287 100.116 34.3794C100.085 34.3884 100.052 34.3884 100.02 34.3794C99.9927 34.3783 99.966 34.3705 99.9423 34.3567C99.9186 34.3429 99.8987 34.3236 99.8841 34.3003Z" fill="#48606B"/>
<path d="M88.6942 25.2982C85.4409 24.2414 83.7036 28.2994 86.7724 32.3284C89.7001 32.8359 92.8655 30.2934 94.4036 28.715C95.7575 27.3204 91.9471 26.3548 88.6942 25.2982Z" fill="#263238"/>
<path d="M87.755 25.6774C94.6844 18.2969 100.254 25.7958 100.367 27.6204C100.367 27.6204 102.201 28.2701 103.163 28.0871C100.7 31.8305 95.3053 32.0427 89.6199 30.3492C85.1562 28.1372 86.0686 24.6844 87.755 25.6774Z" fill="#263238"/>
<path d="M85.8054 24.0996C88.8133 23.8558 88.7929 26.0016 88.7929 26.0016C87.8546 25.2812 86.8549 24.6447 85.8054 24.0996Z" fill="#263238"/>
<path d="M88.4626 22.902C87.1812 25.001 88.7369 25.779 88.7369 25.779C88.5652 24.8294 88.4734 23.867 88.4626 22.902Z" fill="#263238"/>
<path d="M296.773 33.7381C296.585 33.6912 296.376 33.8952 296.306 34.1944C296.236 34.4938 296.329 34.7792 296.512 34.8252C296.695 34.8714 296.921 34.6703 296.974 34.3681C297.048 34.0695 296.96 33.7849 296.773 33.7381Z" fill="#263238"/>
<path d="M293.588 32.9073C293.405 32.8611 293.196 33.0651 293.126 33.3645C293.056 33.6637 293.14 33.9474 293.328 33.9944C293.515 34.0411 293.72 33.8362 293.794 33.5379C293.864 33.2387 293.771 32.9533 293.588 32.9073Z" fill="#263238"/>
<path d="M294.086 36.6567C293.596 36.6636 293.13 36.4481 292.807 36.0648C293.552 35.4532 294.211 34.7428 294.766 33.9533L294.086 36.6567Z" fill="#ED847E"/>
<path d="M297.235 38.5054C297.253 38.4894 297.264 38.4682 297.268 38.445C297.272 38.4219 297.268 38.398 297.258 38.3771L297.257 38.3764C297.251 38.3671 297.243 38.3592 297.234 38.3532C297.225 38.3471 297.214 38.343 297.203 38.3412C297.192 38.3394 297.181 38.3398 297.171 38.3425C297.16 38.3452 297.15 38.3501 297.141 38.3569C296.561 38.8441 295.802 39.0127 295.097 38.8112C295.075 38.8079 295.052 38.8136 295.034 38.8272C295.016 38.8408 295.004 38.861 295 38.8835C294.998 38.8946 294.998 38.906 295 38.9171C295.002 38.9282 295.006 38.9387 295.013 38.9482C295.019 38.9576 295.027 38.9657 295.036 38.9721C295.046 38.9784 295.056 38.9828 295.067 38.9851C295.189 39.018 295.313 39.0395 295.438 39.0499C296.077 39.1316 296.726 38.9354 297.235 38.5054Z" fill="#263238"/>
<path d="M298.304 33.5198C298.391 33.479 298.431 33.372 298.394 33.2808C298.196 32.7379 297.759 32.336 297.222 32.2027C297.129 32.1864 297.04 32.2533 297.023 32.3518C297.01 32.4509 297.072 32.5421 297.164 32.5606C297.584 32.6766 297.924 32.9968 298.08 33.4241C298.092 33.4523 298.111 33.477 298.135 33.4961C298.159 33.5151 298.187 33.5278 298.217 33.5329C298.247 33.5338 298.276 33.5293 298.304 33.5198Z" fill="#263238"/>
<path d="M292.851 31.9618C293.119 31.5937 293.539 31.3863 293.974 31.4077C293.977 31.4081 293.98 31.4086 293.983 31.4088C294.075 31.417 294.157 31.345 294.166 31.248C294.174 31.1481 294.108 31.0601 294.014 31.0467C293.465 31.0224 292.933 31.2809 292.587 31.7409C292.526 31.8204 292.536 31.9353 292.608 31.9996C292.638 32.014 292.671 32.0197 292.703 32.0162C292.731 32.0197 292.758 32.0166 292.784 32.0071C292.809 31.9977 292.832 31.9821 292.851 31.9618Z" fill="#263238"/>
<path d="M305.018 24.6747C308.272 23.618 310.009 27.6759 306.94 31.705C304.012 32.2124 300.847 29.67 299.309 28.0915C297.955 26.6969 301.765 25.7313 305.018 24.6747Z" fill="#A9453D"/>
<path d="M305.957 25.054C299.028 17.6734 293.459 25.1723 293.345 26.9969C293.345 26.9969 291.511 27.6467 290.549 27.4636C293.012 31.207 298.407 31.4193 304.092 29.7257C308.556 27.5137 307.644 24.061 305.957 25.054Z" fill="#A9453D"/>
<path d="M307.907 23.4762C304.9 23.2324 304.92 25.3782 304.92 25.3782C305.858 24.6577 306.858 24.0212 307.907 23.4762Z" fill="#A9453D"/>
<path d="M305.25 22.2786C306.532 24.3775 304.976 25.1555 304.976 25.1555C305.148 24.2059 305.239 23.2436 305.25 22.2786Z" fill="#A9453D"/>
</g>
<defs>
<clipPath id="clip0_148_3854">
<rect width="326" height="178" fill="white"/>
</clipPath>
</defs>
</svg>
