<svg width="518" height="383" viewBox="0 0 518 383" fill="none" xmlns="http://www.w3.org/2000/svg">
<g clip-path="url(#clip0_85_115)">
<path d="M297.753 259.714C297.753 259.714 228.829 251.449 204.705 238.363C180.582 225.277 1.37854 219.078 1.37854 259.714C1.37854 300.35 207.462 318.258 207.462 318.258L315.673 312.059L297.753 259.714Z" fill="#BE6F72"/>
<path opacity="0.1" d="M297.753 259.714C297.753 259.714 228.829 251.449 204.705 238.363C180.582 225.277 1.37854 219.078 1.37854 259.714C1.37854 300.35 207.462 318.258 207.462 318.258L315.673 312.059L297.753 259.714Z" fill="black"/>
<path d="M277.765 252.138L292.239 294.152L519 296.907V234.919C519 234.919 432.155 214.946 363.231 257.648C363.231 257.648 281.9 248.006 277.765 252.138Z" fill="#263238"/>
<path d="M18.5081 234.575C18.5081 236.922 23.776 238.665 24.294 240.929C24.8077 243.176 21.6779 246.591 22.6682 248.736C23.692 250.929 24.9014 253.031 26.2834 255.018C27.5809 256.875 31.5888 256.604 33.2321 258.344C34.841 259.925 36.5454 261.407 38.3356 262.779C40.0794 264.228 42.4418 264.532 44.4247 265.866C46.3101 267.135 46.0819 271.788 48.1675 272.943C50.1604 274.047 53.211 273.159 55.3728 274.151C57.4478 275.103 58.5421 278.547 60.7604 279.39C62.8998 280.202 65.5477 279.852 67.8095 280.556C69.9985 281.237 72.4478 281.126 74.7416 281.7C76.969 282.256 78.6703 285.593 80.9874 286.043C83.245 286.481 85.8907 285.312 88.2251 285.644C90.5047 285.968 93.1559 283.085 95.501 283.303C97.7963 283.517 99.9593 284.851 102.31 284.959C104.615 285.065 106.894 286.079 109.245 286.079C111.596 286.079 114.022 288.283 116.327 288.178C118.677 288.07 120.805 284.729 123.101 284.516C125.446 284.297 128.243 287.787 130.523 287.463C132.857 287.131 134.706 283.715 136.964 283.277C139.282 282.827 142.275 285.268 144.503 284.711C146.797 284.138 148.159 280.164 150.348 279.483C152.61 278.78 155.413 279.733 157.553 278.92C159.771 278.078 162.474 278.213 164.549 277.261C166.711 276.269 168.263 273.921 170.256 272.817C172.341 271.662 173.303 268.797 175.188 267.529C177.171 266.194 180.193 266.365 181.937 264.915C183.778 263.385 187.227 263.306 188.781 261.659C190.424 259.918 191.089 256.995 192.386 255.138C193.753 253.183 191.071 249.049 192.025 246.982C193.015 244.838 197.154 243.966 197.667 241.721C198.197 239.375 198.469 236.979 198.478 234.575C198.478 232.228 194.939 230.434 194.421 228.169C193.907 225.923 196.512 222.698 195.522 220.553C194.568 218.486 194.689 215.308 193.323 213.353C192.025 211.496 188.787 210.769 187.144 209.028C185.59 207.382 182.809 206.923 180.968 205.393C179.225 203.944 179.447 199.573 177.464 198.239C175.579 196.971 172.946 196.392 170.861 195.237C168.868 194.133 166.047 194.319 163.886 193.327C161.811 192.375 158.561 194.251 156.342 193.409C154.203 192.597 152.468 190.821 150.206 190.118C148.017 189.437 146.988 184.244 144.694 183.671C142.467 183.114 139.726 184.038 137.409 183.588C135.152 183.15 132.114 187.247 129.78 186.915C127.5 186.591 125.795 181.121 123.45 180.903C121.154 180.689 118.566 183.522 116.216 183.415C113.911 183.309 111.596 184.969 109.245 184.969C106.894 184.969 104.552 182.691 102.247 182.796C99.8966 182.904 97.8239 185.915 95.5287 186.128C93.1834 186.346 90.3043 181.767 88.0244 182.092C85.6901 182.423 83.8864 185.963 81.6289 186.401C79.3111 186.851 76.4082 184.654 74.1802 185.211C71.8861 185.784 70.5059 189.546 68.3166 190.227C66.0549 190.931 64.6614 193.585 62.522 194.397C60.3033 195.24 56.1821 191.298 54.1068 192.251C51.945 193.243 50.0777 194.96 48.0849 196.064C45.9993 197.219 42.6838 196.638 40.7985 197.906C38.8154 199.241 38.3279 202.822 36.584 204.271C34.7429 205.801 31.7061 206.262 30.1523 207.908C28.509 209.649 28.2808 212.769 26.9834 214.626C25.6171 216.581 25.6598 219.29 24.7058 221.357C23.7159 223.502 21.073 225.124 20.5595 227.369C20.0418 229.633 18.5081 232.228 18.5081 234.575Z" fill="#AD6359"/>
<path d="M266.737 277.622C266.737 277.622 188.853 237.674 138.538 252.827C88.2231 267.979 17.9203 241.807 9.64938 250.761C1.37848 259.714 -10.3387 356.139 88.9123 361.649C188.163 367.159 272.94 345.119 272.94 345.119L266.737 277.622Z" fill="#BE6F72"/>
<path d="M285.079 273.367C285.079 273.367 254.331 271.423 255.709 282.443C257.088 293.463 258.466 378.868 266.737 380.934C275.008 383 340.486 383 367.367 383H519V250.959C519 250.959 411.478 244.562 357.717 271.423C357.717 271.423 293.082 270.491 285.079 273.367Z" fill="#6A7B76"/>
<path d="M141.033 66.8357C143.971 67.0015 146.804 67.9819 149.216 69.6669C151.628 71.3519 153.522 73.675 154.686 76.3755C158.101 84.6224 153.705 94.3097 147.105 100.323C140.506 106.337 132.029 109.775 124.327 114.293C113.982 120.362 104.686 128.786 99.5095 139.6C94.3332 150.414 93.7827 163.81 99.8672 174.141C105.515 183.73 115.784 189.469 125.577 194.762" stroke="#2B3049" stroke-miterlimit="10"/>
<path d="M113.463 16.5571C116.401 16.723 119.234 17.7034 121.646 19.3884C124.058 21.0734 125.952 23.3964 127.117 26.0969C130.531 34.3439 126.135 44.0311 119.536 50.0449C112.936 56.0586 104.459 59.4961 96.7573 64.0143C86.412 70.083 77.116 78.5075 71.9397 89.3215C66.7634 100.136 66.2129 113.531 72.2974 123.862C77.9448 133.451 88.2138 139.19 98.0077 144.483" stroke="#3F3D56" stroke-miterlimit="10"/>
<path d="M22.8158 28.1209C25.2405 26.4548 28.0818 25.4965 31.021 25.3536C33.9603 25.2106 36.8812 25.8887 39.4564 27.3117C47.2083 31.7442 49.6668 42.0933 48.1328 50.8854C46.5988 59.6776 42.0017 67.5813 38.6794 75.8656C34.217 86.9929 32.0274 99.3409 34.5593 111.058C37.0911 122.776 44.8621 133.705 56.0022 138.152C66.3422 142.279 77.9778 140.535 88.9646 138.729" stroke="#3F3D56" stroke-miterlimit="10"/>
<path d="M102.697 132.06C93.5614 132.06 86.1553 128.465 86.1553 124.031C86.1553 119.597 93.5614 116.002 102.697 116.002C111.833 116.002 119.239 119.597 119.239 124.031C119.239 128.465 111.833 132.06 102.697 132.06Z" fill="#38A18A"/>
<path d="M104.765 130.682C95.6291 130.682 88.2231 127.088 88.2231 122.654C88.2231 118.219 95.6291 114.625 104.765 114.625C113.901 114.625 121.307 118.219 121.307 122.654C121.307 127.088 113.901 130.682 104.765 130.682Z" stroke="#3F3D56" stroke-miterlimit="10"/>
<path d="M66.8566 125.172C57.7208 125.172 50.3147 121.578 50.3147 117.144C50.3147 112.709 57.7208 109.115 66.8566 109.115C75.9924 109.115 83.3984 112.709 83.3984 117.144C83.3984 121.578 75.9924 125.172 66.8566 125.172Z" fill="#38A18A"/>
<path d="M68.9243 123.795C59.7885 123.795 52.3825 120.2 52.3825 115.766C52.3825 111.332 59.7885 107.737 68.9243 107.737C78.0601 107.737 85.4661 111.332 85.4661 115.766C85.4661 120.2 78.0601 123.795 68.9243 123.795Z" stroke="#3F3D56" stroke-miterlimit="10"/>
<path d="M61.3426 155.477C52.2068 155.477 44.8008 151.883 44.8008 147.449C44.8008 143.014 52.2068 139.42 61.3426 139.42C70.4784 139.42 77.8844 143.014 77.8844 147.449C77.8844 151.883 70.4784 155.477 61.3426 155.477Z" fill="#38A18A"/>
<path d="M63.4104 154.1C54.2746 154.1 46.8685 150.505 46.8685 146.071C46.8685 141.637 54.2746 138.042 63.4104 138.042C72.5462 138.042 79.9522 141.637 79.9522 146.071C79.9522 150.505 72.5462 154.1 63.4104 154.1Z" stroke="#3F3D56" stroke-miterlimit="10"/>
<path d="M64.7888 79.7151C55.653 79.7151 48.247 76.1205 48.247 71.6863C48.247 67.2521 55.653 63.6575 64.7888 63.6575C73.9246 63.6575 81.3307 67.2521 81.3307 71.6863C81.3307 76.1205 73.9246 79.7151 64.7888 79.7151Z" fill="#38A18A"/>
<path d="M66.8566 78.3376C57.7208 78.3376 50.3147 74.7429 50.3147 70.3087C50.3147 65.8745 57.7208 62.2799 66.8566 62.2799C75.9924 62.2799 83.3984 65.8745 83.3984 70.3087C83.3984 74.7429 75.9924 78.3376 66.8566 78.3376Z" stroke="#3F3D56" stroke-miterlimit="10"/>
<path d="M106.143 74.8938C97.0076 74.8938 89.6015 71.2992 89.6015 66.865C89.6015 62.4308 97.0076 58.8362 106.143 58.8362C115.279 58.8362 122.685 62.4308 122.685 66.865C122.685 71.2992 115.279 74.8938 106.143 74.8938Z" fill="#38A18A"/>
<path d="M108.211 73.5164C99.0753 73.5164 91.6693 69.9218 91.6693 65.4876C91.6693 61.0534 99.0753 57.4587 108.211 57.4587C117.347 57.4587 124.753 61.0534 124.753 65.4876C124.753 69.9218 117.347 73.5164 108.211 73.5164Z" stroke="#3F3D56" stroke-miterlimit="10"/>
<path d="M87.5339 57.6752C78.3981 57.6752 70.9921 54.0806 70.9921 49.6464C70.9921 45.2122 78.3981 41.6176 87.5339 41.6176C96.6697 41.6176 104.076 45.2122 104.076 49.6464C104.076 54.0806 96.6697 57.6752 87.5339 57.6752Z" fill="#38A18A"/>
<path d="M89.6016 56.2976C80.4658 56.2976 73.0598 52.703 73.0598 48.2688C73.0598 43.8346 80.4658 40.24 89.6016 40.24C98.7374 40.24 106.143 43.8346 106.143 48.2688C106.143 52.703 98.7374 56.2976 89.6016 56.2976Z" stroke="#3F3D56" stroke-miterlimit="10"/>
<path d="M46.8686 61.1189C37.7328 61.1189 30.3267 57.5243 30.3267 53.0901C30.3267 48.6559 37.7328 45.0613 46.8686 45.0613C56.0044 45.0613 63.4104 48.6559 63.4104 53.0901C63.4104 57.5243 56.0044 61.1189 46.8686 61.1189Z" fill="#38A18A"/>
<path d="M48.9363 59.7414C39.8005 59.7414 32.3945 56.1467 32.3945 51.7125C32.3945 47.2783 39.8005 43.6837 48.9363 43.6837C58.0721 43.6837 65.4781 47.2783 65.4781 51.7125C65.4781 56.1467 58.0721 59.7414 48.9363 59.7414Z" stroke="#3F3D56" stroke-miterlimit="10"/>
<path d="M16.5418 83.8476C7.40603 83.8476 1.52588e-05 80.2529 1.52588e-05 75.8187C1.52588e-05 71.3845 7.40603 67.7899 16.5418 67.7899C25.6776 67.7899 33.0837 71.3845 33.0837 75.8187C33.0837 80.2529 25.6776 83.8476 16.5418 83.8476Z" fill="#38A18A"/>
<path d="M18.6096 82.47C9.47375 82.47 2.06774 78.8754 2.06774 74.4412C2.06774 70.007 9.47375 66.4124 18.6096 66.4124C27.7454 66.4124 35.1514 70.007 35.1514 74.4412C35.1514 78.8754 27.7454 82.47 18.6096 82.47Z" stroke="#3F3D56" stroke-miterlimit="10"/>
<path d="M123.375 43.9002C114.239 43.9002 106.833 40.3056 106.833 35.8714C106.833 31.4372 114.239 27.8425 123.375 27.8425C132.51 27.8425 139.916 31.4372 139.916 35.8714C139.916 40.3056 132.51 43.9002 123.375 43.9002Z" fill="#38A18A"/>
<path d="M125.442 42.5227C116.306 42.5227 108.9 38.9281 108.9 34.4939C108.9 30.0597 116.306 26.4651 125.442 26.4651C134.578 26.4651 141.984 30.0597 141.984 34.4939C141.984 38.9281 134.578 42.5227 125.442 42.5227Z" stroke="#3F3D56" stroke-miterlimit="10"/>
<path d="M113.036 17.7278C103.9 17.7278 96.494 14.1332 96.494 9.69899C96.494 5.26479 103.9 1.67017 113.036 1.67017C122.172 1.67017 129.578 5.26479 129.578 9.69899C129.578 14.1332 122.172 17.7278 113.036 17.7278Z" fill="#38A18A"/>
<path d="M115.104 16.3504C105.968 16.3504 98.5617 12.7557 98.5617 8.32155C98.5617 3.88735 105.968 0.292725 115.104 0.292725C124.239 0.292725 131.645 3.88735 131.645 8.32155C131.645 12.7557 124.239 16.3504 115.104 16.3504Z" stroke="#3F3D56" stroke-miterlimit="10"/>
<path d="M17.2311 37.0127C8.09527 37.0127 0.689255 33.4181 0.689255 28.9839C0.689255 24.5497 8.09527 20.9551 17.2311 20.9551C26.3669 20.9551 33.7729 24.5497 33.7729 28.9839C33.7729 33.4181 26.3669 37.0127 17.2311 37.0127Z" fill="#38A18A"/>
<path d="M19.2988 35.6353C10.163 35.6353 2.75694 32.0407 2.75694 27.6065C2.75694 23.1723 10.163 19.5776 19.2988 19.5776C28.4346 19.5776 35.8406 23.1723 35.8406 27.6065C35.8406 32.0407 28.4346 35.6353 19.2988 35.6353Z" stroke="#3F3D56" stroke-miterlimit="10"/>
<path d="M169.554 100.377C160.418 100.377 153.012 96.7828 153.012 92.3487C153.012 87.9145 160.418 84.3198 169.554 84.3198C178.69 84.3198 186.096 87.9145 186.096 92.3487C186.096 96.7828 178.69 100.377 169.554 100.377Z" fill="#38A18A"/>
<path d="M171.622 99C162.486 99 155.08 95.4054 155.08 90.9712C155.08 86.537 162.486 82.9424 171.622 82.9424C180.757 82.9424 188.163 86.537 188.163 90.9712C188.163 95.4054 180.757 99 171.622 99Z" stroke="#3F3D56" stroke-miterlimit="10"/>
<path d="M112.347 96.245C103.211 96.245 95.8047 92.6504 95.8047 88.2162C95.8047 83.782 103.211 80.1874 112.347 80.1874C121.482 80.1874 128.888 83.782 128.888 88.2162C128.888 92.6504 121.482 96.245 112.347 96.245Z" fill="#38A18A"/>
<path d="M114.414 94.8675C105.279 94.8675 97.8725 91.2728 97.8725 86.8386C97.8725 82.4044 105.279 78.8098 114.414 78.8098C123.55 78.8098 130.956 82.4044 130.956 86.8386C130.956 91.2728 123.55 94.8675 114.414 94.8675Z" stroke="#3F3D56" stroke-miterlimit="10"/>
<path d="M37.2191 102.444C28.0833 102.444 20.6773 98.8491 20.6773 94.4149C20.6773 89.9807 28.0833 86.3861 37.2191 86.3861C46.3549 86.3861 53.7609 89.9807 53.7609 94.4149C53.7609 98.8491 46.3549 102.444 37.2191 102.444Z" fill="#38A18A"/>
<path d="M39.2869 101.066C30.1511 101.066 22.745 97.4716 22.745 93.0374C22.745 88.6032 30.1511 85.0085 39.2869 85.0085C48.4227 85.0085 55.8287 88.6032 55.8287 93.0374C55.8287 97.4716 48.4227 101.066 39.2869 101.066Z" stroke="#3F3D56" stroke-miterlimit="10"/>
<path d="M77.1952 105.199C68.0594 105.199 60.6534 101.604 60.6534 97.1699C60.6534 92.7357 68.0594 89.1411 77.1952 89.1411C86.331 89.1411 93.7371 92.7357 93.7371 97.1699C93.7371 101.604 86.331 105.199 77.1952 105.199Z" fill="#38A18A"/>
<path d="M79.263 103.821C70.1272 103.821 62.7211 100.227 62.7211 95.7924C62.7211 91.3582 70.1272 87.7635 79.263 87.7635C88.3988 87.7635 95.8048 91.3582 95.8048 95.7924C95.8048 100.227 88.3988 103.821 79.263 103.821Z" stroke="#3F3D56" stroke-miterlimit="10"/>
<path d="M74.4382 36.324C65.3024 36.324 57.8964 32.7294 57.8964 28.2952C57.8964 23.861 65.3024 20.2664 74.4382 20.2664C83.574 20.2664 90.9801 23.861 90.9801 28.2952C90.9801 32.7294 83.574 36.324 74.4382 36.324Z" fill="#38A18A"/>
<path d="M76.506 34.9464C67.3702 34.9464 59.9642 31.3518 59.9642 26.9176C59.9642 22.4834 67.3702 18.8888 76.506 18.8888C85.6418 18.8888 93.0478 22.4834 93.0478 26.9176C93.0478 31.3518 85.6418 34.9464 76.506 34.9464Z" stroke="#3F3D56" stroke-miterlimit="10"/>
<path d="M145.43 79.0263C136.294 79.0263 128.888 75.4317 128.888 70.9975C128.888 66.5633 136.294 62.9686 145.43 62.9686C154.566 62.9686 161.972 66.5633 161.972 70.9975C161.972 75.4317 154.566 79.0263 145.43 79.0263Z" fill="#38A18A"/>
<path d="M147.498 77.6488C138.362 77.6488 130.956 74.0542 130.956 69.62C130.956 65.1858 138.362 61.5912 147.498 61.5912C156.634 61.5912 164.04 65.1858 164.04 69.62C164.04 74.0542 156.634 77.6488 147.498 77.6488Z" stroke="#3F3D56" stroke-miterlimit="10"/>
<path d="M135.781 110.02C126.645 110.02 119.239 106.425 119.239 101.991C119.239 97.5569 126.645 93.9623 135.781 93.9623C144.917 93.9623 152.323 97.5569 152.323 101.991C152.323 106.425 144.917 110.02 135.781 110.02Z" fill="#38A18A"/>
<path d="M137.849 108.642C128.713 108.642 121.307 105.048 121.307 100.614C121.307 96.1795 128.713 92.5848 137.849 92.5848C146.984 92.5848 154.39 96.1795 154.39 100.614C154.39 105.048 146.984 108.642 137.849 108.642Z" stroke="#3F3D56" stroke-miterlimit="10"/>
<g opacity="0.3">
<path d="M135.396 156.812C133.061 152.637 132.635 148.434 134.444 147.423C136.254 146.413 139.613 148.978 141.948 153.153C144.283 157.328 144.709 161.531 142.9 162.542C141.091 163.552 137.731 160.987 135.396 156.812Z" fill="#38A18A"/>
<path d="M136.487 157.443C134.152 153.268 133.725 149.065 135.535 148.054C137.344 147.044 140.704 149.609 143.039 153.784C145.374 157.959 145.8 162.162 143.991 163.173C142.181 164.183 138.822 161.618 136.487 157.443Z" stroke="#3F3D56" stroke-miterlimit="10"/>
</g>
<g opacity="0.3">
<path d="M49.1726 176.826C47.7903 175.283 49.5609 171.446 53.1273 168.256C56.6937 165.067 60.7055 163.732 62.0878 165.276C63.47 166.819 61.6994 170.656 58.133 173.846C54.5666 177.035 50.5549 178.37 49.1726 176.826Z" fill="#38A18A"/>
<path d="M49.5504 175.625C48.1681 174.082 49.9387 170.245 53.5051 167.055C57.0715 163.866 61.0832 162.531 62.4655 164.074C63.8478 165.618 62.0772 169.455 58.5108 172.644C54.9444 175.834 50.9326 177.168 49.5504 175.625Z" stroke="#3F3D56" stroke-miterlimit="10"/>
</g>
<g opacity="0.3">
<path d="M126.368 133.435C124.985 131.892 126.756 128.055 130.323 124.865C133.889 121.676 137.901 120.341 139.283 121.885C140.665 123.428 138.895 127.265 135.328 130.455C131.762 133.644 127.75 134.979 126.368 133.435Z" fill="#38A18A"/>
<path d="M126.746 132.234C125.363 130.691 127.134 126.854 130.7 123.664C134.267 120.475 138.278 119.14 139.661 120.683C141.043 122.227 139.272 126.064 135.706 129.253C132.14 132.443 128.128 133.777 126.746 132.234Z" stroke="#3F3D56" stroke-miterlimit="10"/>
</g>
</g>
<defs>
<clipPath id="clip0_85_115">
<rect width="519" height="383" fill="white" transform="matrix(-1 0 0 1 519 0)"/>
</clipPath>
</defs>
</svg>
