<svg width="299" height="185" viewBox="0 0 299 185" fill="none" xmlns="http://www.w3.org/2000/svg">
<path d="M236.412 9.33148C222.859 9.33148 211.873 21.5491 211.873 36.6204V55.7685H217.75L221.152 48.674L220.302 55.7685H258.077L261.17 49.3189L260.397 55.7685H264.65V40.7338C264.65 23.3908 252.007 9.33148 236.412 9.33148Z" fill="#263238"/>
<path d="M224.567 43.747C224.567 43.747 232.226 61.6551 222.014 65.2367L232.226 99.0063L249.587 97.983L254.182 86.7264L253.161 69.8416L251.629 58.5851C251.629 58.5851 240.907 61.1434 241.928 42.212L224.567 43.747Z" fill="#A0616A"/>
<path d="M220.482 64.725C220.482 64.725 203.632 63.1901 205.164 75.4699C206.696 87.7498 208.227 90.3081 208.227 90.3081L209.759 108.728L200.568 114.356H191.888C191.888 114.356 165.336 120.496 178.612 127.148C191.888 133.799 196.483 122.031 196.483 122.031C196.483 122.031 220.993 122.031 222.524 117.938C224.056 113.844 220.482 64.725 220.482 64.725Z" fill="#A0616A"/>
<path d="M253.161 59.6084C253.161 59.6084 268.99 53.9802 270.011 66.26C271.032 78.5399 271.032 79.5632 271.032 79.5632L274.096 96.9596C274.096 96.9596 280.223 112.309 280.223 116.914C280.223 121.519 284.819 135.846 284.819 135.846C284.819 135.846 290.946 155.801 284.308 155.289C277.67 154.777 276.649 133.799 276.649 133.799L262.863 106.17L258.778 89.2847L253.161 59.6084Z" fill="#A0616A"/>
<path d="M223.035 62.6784H218.95L218.44 84.1681C218.44 84.1681 211.802 93.378 219.972 101.565L222.014 114.868L259.288 113.333L261.841 99.5179C261.841 99.5179 266.947 88.2614 259.799 78.0282L253.161 57.0501H249.587C249.587 57.0501 257.865 87.6362 240.396 88.2614C226.099 88.7731 223.035 62.6784 223.035 62.6784Z" fill="#FFEFD3"/>
<path d="M241.294 184.636C241.359 178.129 241.416 174.221 241.416 174.221C241.416 174.221 241.031 178.129 240.377 184.636H200.275C210.872 151.179 220.589 123.682 220.983 122.578C220.985 122.565 220.989 122.554 220.993 122.542L222.231 118.412V118.409L222.755 116.658V116.65L223.308 114.814L224.057 112.31L257.245 111.287L258.173 113.378L261.332 120.495C261.606 120.574 261.866 120.697 262.102 120.859C267.782 124.587 274.873 151.899 281.337 184.636L241.294 184.636Z" fill="#263238"/>
<path d="M260.82 107.193L220.482 108.728C220.482 108.728 218.641 122.543 220.482 122.543C220.993 122.543 262.863 126.124 262.352 119.984C261.841 113.844 260.82 107.193 260.82 107.193Z" fill="#263238"/>
<path d="M232.459 49.6072C240.382 49.6072 246.806 43.1706 246.806 35.2307C246.806 27.2908 240.382 20.8542 232.459 20.8542C224.535 20.8542 218.112 27.2908 218.112 35.2307C218.112 43.1706 224.535 49.6072 232.459 49.6072Z" fill="#A0616A"/>
<path d="M243.388 16.8487C240.924 13.6697 237.29 11.6561 233.233 11.6561H232.752C223.463 11.6561 215.933 20.0788 215.933 30.4687L219.045 30.4688L219.548 26.6349L220.285 30.4688H238.744L240.291 27.2252L239.904 30.4688H243.536C245.231 38.902 242.796 47.3353 236.231 55.7685H242.418L245.511 49.2814L244.737 55.7685H256.53L258.85 40.8481C258.85 29.6741 252.371 20.1988 243.388 16.8487Z" fill="#263238"/>
<path d="M246.778 18.4198C251.854 18.4198 255.969 14.2964 255.969 9.20989C255.969 4.12341 251.854 0 246.778 0C241.702 0 237.587 4.12341 237.587 9.20989C237.587 14.2964 241.702 18.4198 246.778 18.4198Z" fill="#263238"/>
<path d="M166.472 95.2248C173.392 95.2248 179.001 89.6038 179.001 82.67C179.001 75.7362 173.392 70.1152 166.472 70.1152C159.553 70.1152 153.943 75.7362 153.943 82.67C153.943 89.6038 159.553 95.2248 166.472 95.2248Z" fill="#6A7B76"/>
<path d="M76.6668 72.8527C76.6626 73.2124 76.5706 73.5657 76.3989 73.8816C76.2272 74.1976 75.9809 74.4667 75.6816 74.6654L75.5993 74.717H38.4844L38.6337 74.2612C38.6594 74.1804 41.3763 66.2795 53.4041 67.805C54.5386 67.4163 65.6087 63.7943 72.2353 67.8635C75.1753 69.6693 76.6668 71.3478 76.6668 72.8527Z" fill="#E9F2FC"/>
<path d="M135.934 137.13C139.67 137.21 142.642 139.923 142.642 139.923C142.642 139.923 139.557 142.506 135.821 142.425C132.085 142.345 129.114 139.632 129.114 139.632C129.114 139.632 132.199 137.05 135.934 137.13Z" fill="#6C63FF"/>
<path d="M117.154 124.352C120.529 125.959 124.399 124.869 124.399 124.869C124.399 124.869 122.797 121.175 119.422 119.568C116.047 117.961 112.177 119.051 112.177 119.051C112.177 119.051 113.779 122.745 117.154 124.352Z" fill="#6C63FF"/>
<path d="M117.496 122.755C121.217 122.415 124.474 124.776 124.474 124.776C124.474 124.776 121.699 127.689 117.978 128.03C114.257 128.371 111 126.01 111 126.01C111 126.01 113.775 123.096 117.496 122.755Z" fill="#FFEFD3"/>
<path d="M131.137 123.401C130.78 127.128 133.122 130.402 133.122 130.402C133.122 130.402 136.041 127.634 136.398 123.907C136.755 120.179 134.413 116.905 134.413 116.905C134.413 116.905 131.493 119.674 131.137 123.401Z" fill="#FFEFD3"/>
<path d="M148.661 146.259C146.709 149.452 147.381 153.424 147.381 153.424C147.381 153.424 151.216 152.219 153.168 149.026C155.12 145.833 154.448 141.861 154.448 141.861C154.448 141.861 150.613 143.067 148.661 146.259Z" fill="#FFEFD3"/>
<path d="M142.999 180.974L143.283 180.781C142.281 179.324 141.733 177.6 141.711 175.83C141.719 173.24 142.988 170.845 144.216 168.528C144.443 168.098 144.671 167.67 144.889 167.241C145.806 165.495 146.537 163.656 147.069 161.756C148.974 154.666 147.099 146.3 142.055 139.378C138.053 133.886 132.088 129.085 123.818 124.698L123.658 125.002C131.88 129.363 137.807 134.132 141.777 139.58C146.761 146.419 148.615 154.676 146.738 161.667C146.212 163.544 145.49 165.36 144.584 167.085C144.366 167.512 144.139 167.939 143.912 168.367C142.665 170.72 141.376 173.154 141.367 175.829C141.39 177.668 141.958 179.459 142.999 180.974Z" fill="#FFEFD3"/>
<path d="M107.518 125.15C109.319 125.15 110.779 123.687 110.779 121.882C110.779 120.077 109.319 118.614 107.518 118.614C105.717 118.614 104.257 120.077 104.257 121.882C104.257 123.687 105.717 125.15 107.518 125.15Z" fill="#FFEFD3"/>
<path d="M189.648 184.835H10.1235L13.1528 181.015L57.5997 124.981L59.6456 122.401L78.01 99.2489L99.8858 71.6696L128.038 107.162L189.648 184.835Z" fill="#ADB6C4"/>
<path d="M129.406 107.807C128.25 108.495 127.042 109.093 125.795 109.596C119.436 112.128 112.363 112.198 105.956 109.792C98.3784 106.909 92.0809 100.661 84.0583 99.5106C81.6037 99.1587 79.1238 99.3129 76.6421 99.4616L99.7143 70.3741L129.406 107.807Z" fill="#E9F2FC"/>
<path d="M137.939 70.453C138.55 72.3476 138.145 74.4084 137.646 76.3359C137.148 78.2634 136.556 80.2352 136.81 82.2099C137.36 86.477 141.53 89.2138 145.4 91.0766C149.271 92.9394 153.625 94.8726 155.331 98.821C156.275 101.005 156.23 103.469 156.597 105.82C157.394 110.784 160.029 115.264 163.975 118.367C160.689 118.289 157.745 116.287 155.419 113.96C153.092 111.633 151.163 108.91 148.659 106.775C145.286 103.897 141.072 102.25 137.111 100.26C133.151 98.2703 129.204 95.7128 127.154 91.7771C125.059 87.7538 125.29 82.8341 126.758 78.5405C127.847 75.3517 129.852 70.4035 132.432 68.1271C134.463 66.3352 137.171 68.071 137.939 70.453Z" fill="#E9F2FC"/>
<path d="M240.298 159.716H122.045V184.825H240.298V159.716Z" fill="#E9F2FC"/>
<path d="M118.27 162.467L131.142 135.466H233.948L243.559 162.467H118.27Z" fill="#ADB6C4"/>
<path d="M198.077 137.186H150.364V153.008H198.077V137.186Z" fill="#E9F2FC"/>
<path d="M153.454 124.287L145.902 140.11H202.54L198.077 124.287H153.454Z" fill="#ADB6C4"/>
<path d="M192.242 164.703H154.569V184.825H192.242V164.703Z" fill="#CCCCCC"/>
<path d="M146.76 165.391H126.68V184.825H146.76V165.391Z" fill="#CCCCCC"/>
<path d="M209.147 166.595H198.764V184.825H209.147V166.595Z" fill="#ADB6C4"/>
<path d="M225.452 167.627H220.389V172.357H225.452V167.627Z" fill="#6A7B76"/>
<path d="M232.232 167.627H227.168V172.357H232.232V167.627Z" fill="#6A7B76"/>
<path d="M225.452 174.076H220.389V178.978H225.452V174.076Z" fill="#6A7B76"/>
<path d="M232.232 174.076H227.168V178.978H232.232V174.076Z" fill="#6A7B76"/>
<path d="M158.703 141.515H154.741V145.217H158.703V141.515Z" fill="#FFEFD3"/>
<path d="M164.009 141.515H160.046V145.217H164.009V141.515Z" fill="#FFEFD3"/>
<path d="M158.703 146.563H154.741V150.399H158.703V146.563Z" fill="#FFEFD3"/>
<path d="M164.009 146.563H160.046V150.399H164.009V146.563Z" fill="#FFEFD3"/>
<path d="M188.395 141.515H184.433V145.217H188.395V141.515Z" fill="#FFEFD3"/>
<path d="M193.701 141.515H189.738V145.217H193.701V141.515Z" fill="#FFEFD3"/>
<path d="M188.395 146.563H184.433V150.399H188.395V146.563Z" fill="#FFEFD3"/>
<path d="M193.701 146.563H189.738V150.399H193.701V146.563Z" fill="#FFEFD3"/>
<path d="M173.635 141.515H169.673V145.217H173.635V141.515Z" fill="#FFEFD3"/>
<path d="M178.941 141.515H174.979V145.217H178.941V141.515Z" fill="#FFEFD3"/>
<path d="M173.635 146.563H169.673V150.399H173.635V146.563Z" fill="#FFEFD3"/>
<path d="M178.941 146.563H174.979V150.399H178.941V146.563Z" fill="#FFEFD3"/>
<path d="M203.576 168.442H201.081V170.773H203.576V168.442Z" fill="#E9F2FC"/>
<path d="M206.916 168.442H204.421V170.773H206.916V168.442Z" fill="#E9F2FC"/>
<path d="M203.576 171.62H201.081V174.035H203.576V171.62Z" fill="#E9F2FC"/>
<path d="M206.916 171.62H204.421V174.035H206.916V171.62Z" fill="#E9F2FC"/>
<path d="M207.774 177.688C208.154 177.688 208.461 177.38 208.461 177C208.461 176.62 208.154 176.312 207.774 176.312C207.395 176.312 207.088 176.62 207.088 177C207.088 177.38 207.395 177.688 207.774 177.688Z" fill="#E9F2FC"/>
<path d="M166.387 120.162H160.723V121.526H161.856V125.494H165.254V121.526H166.387V120.162Z" fill="#E9F2FC"/>
<path d="M154.786 178.976C153.81 182.59 150.468 184.829 150.468 184.829C150.468 184.829 148.708 181.207 149.684 177.593C150.66 173.979 154.002 171.74 154.002 171.74C154.002 171.74 155.762 175.362 154.786 178.976Z" fill="#6A7B76"/>
<path d="M145.91 178.976C146.886 182.59 150.228 184.829 150.228 184.829C150.228 184.829 151.988 181.207 151.012 177.593C150.036 173.979 146.694 171.74 146.694 171.74C146.694 171.74 144.934 175.362 145.91 178.976Z" fill="#6A7B76"/>
<path d="M147.344 178.199C150.021 180.811 150.348 184.826 150.348 184.826C150.348 184.826 146.334 184.606 143.657 181.994C140.979 179.383 140.652 175.368 140.652 175.368C140.652 175.368 144.666 175.587 147.344 178.199Z" fill="#ADB6C4"/>
<path d="M153.353 178.199C150.675 180.811 150.348 184.826 150.348 184.826C150.348 184.826 154.362 184.606 157.039 181.994C159.717 179.383 160.044 175.368 160.044 175.368C160.044 175.368 156.03 175.587 153.353 178.199Z" fill="#ADB6C4"/>
<path d="M192.56 86.8251C192.556 87.1849 192.464 87.5381 192.292 87.8541C192.121 88.17 191.874 88.4391 191.575 88.6378L191.493 88.6894H154.378L154.527 88.2337C154.553 88.1528 157.27 80.2519 169.298 81.7774C170.432 81.3887 181.502 77.7667 188.129 81.8359C191.069 83.6417 192.56 85.3203 192.56 86.8251Z" fill="#E9F2FC"/>
<path d="M78.3113 130.533C78.3071 130.893 78.2151 131.246 78.0434 131.562C77.8717 131.878 77.6255 132.147 77.3262 132.346L77.2438 132.398H40.1289L40.2782 131.942C40.304 131.861 43.0209 123.96 55.0487 125.486C56.1831 125.097 67.2532 121.475 73.8798 125.544C76.8199 127.35 78.3113 129.029 78.3113 130.533Z" fill="#E9F2FC"/>
</svg>
