<svg width="206" height="197" viewBox="0 0 206 199" fill="none" xmlns="http://www.w3.org/2000/svg">
<g id="Illustration" clip-path="url(#clip0_151_4253)">
<g id="Group">
<path id="Vector" d="M205.872 139.095C205.872 171.964 159.722 198.609 102.793 198.609C45.8641 198.609 -0.285767 171.964 -0.285767 139.095C-0.285767 106.226 45.8641 79.5803 102.793 79.5803C159.722 79.5803 205.872 106.226 205.872 139.095Z" fill="#E9F2FC"/>
<path id="Vector_2" d="M185.975 159.423L151.879 139.68C151.732 139.604 151.568 139.564 151.402 139.564C151.236 139.564 151.072 139.604 150.925 139.68L119.768 157.627C119.711 157.647 119.661 157.684 119.626 157.733C119.59 157.783 119.571 157.842 119.571 157.902C119.571 157.963 119.59 158.022 119.626 158.072C119.661 158.121 119.711 158.158 119.768 158.178L153.868 177.921C154.015 177.997 154.178 178.036 154.343 178.036C154.509 178.036 154.672 177.997 154.818 177.921L185.979 159.973C186.239 159.823 186.239 159.577 185.975 159.423Z" fill="#E0E0E0"/>
<path id="Vector_3" d="M158 116.659L123.9 96.9165C123.752 96.8426 123.59 96.8041 123.425 96.8041C123.26 96.8041 123.097 96.8426 122.95 96.9165L30.4747 150.205C30.2107 150.355 30.2107 150.601 30.4747 150.755L64.5703 170.48C64.8689 170.632 65.2221 170.632 65.5207 170.48L158 117.209C158.057 117.19 158.107 117.153 158.143 117.103C158.178 117.054 158.197 116.995 158.197 116.934C158.197 116.874 158.178 116.814 158.143 116.765C158.107 116.716 158.057 116.679 158 116.659Z" fill="#E0E0E0"/>
<path id="Vector_4" d="M60.3815 113.905C60.3815 120.721 50.8094 126.247 39.002 126.247C27.1945 126.247 17.6224 120.721 17.6224 113.905C17.6224 107.088 27.1945 101.563 39.002 101.563C50.8094 101.563 60.3815 107.088 60.3815 113.905Z" fill="#D5E0EC"/>
<path id="Vector_5" d="M36.4411 152.062C34.1068 153.202 31.5132 153.708 28.9214 153.527C24.4379 153.276 22.9727 150.79 22.9727 150.79C22.9727 150.79 25.5554 147.09 28.2527 146.482C28.2527 146.482 23.8924 146.434 20.0599 147.943C20.0599 147.943 17.4199 147.415 17.2174 143.143C17.2174 143.143 19.3119 141.048 24.8604 140.872C24.8604 140.872 21.8331 139.376 16.9624 139.552C16.5884 139.614 16.2364 134.07 16.3111 131.562C16.3859 129.054 17.3494 129.291 19.3384 129.195C21.3271 129.098 27.7951 130.163 28.7499 131.452C29.7047 132.741 29.5374 136.402 29.5374 136.402C30.5309 135.101 31.2291 133.6 31.5834 132.002C31.5834 132.002 32.8462 131.821 35.4422 133.322C40.2249 136.081 40.5902 139.301 40.6387 141.748C40.7047 144.463 39.8731 149.523 36.4411 152.062Z" fill="#D0665F"/>
<path id="Vector_6" d="M36.3884 152.308C36.3432 152.297 36.3018 152.274 36.2685 152.242C36.2352 152.209 36.2112 152.168 36.1991 152.123C34.2676 144.093 23.0784 132.838 18.5991 130.928C18.5677 130.916 18.5391 130.898 18.5149 130.874C18.4908 130.851 18.4716 130.823 18.4585 130.791C18.4455 130.76 18.4388 130.727 18.439 130.693C18.4391 130.66 18.446 130.626 18.4593 130.595C18.4726 130.564 18.492 130.536 18.5163 130.513C18.5407 130.489 18.5694 130.471 18.601 130.459C18.6325 130.447 18.6661 130.442 18.6998 130.443C18.7335 130.444 18.7666 130.452 18.7971 130.467C23.3599 132.411 34.7251 143.851 36.6831 152C36.6914 152.031 36.6936 152.063 36.6895 152.094C36.6855 152.126 36.6752 152.156 36.6594 152.184C36.6435 152.211 36.6224 152.236 36.5973 152.255C36.5721 152.274 36.5433 152.289 36.5126 152.297L36.5027 152.299C36.4662 152.313 36.4265 152.316 36.3884 152.308Z" fill="white"/>
<path id="Vector_7" d="M151.84 112.246C151.571 111.555 151.374 110.839 151.25 110.108C150.934 108.472 151.072 106.781 151.651 105.219C151.946 104.442 152.398 103.734 152.978 103.139C153.559 102.544 154.256 102.075 155.025 101.761C155.563 101.627 156.063 101.371 156.486 101.013C156.885 100.536 157.185 99.9838 157.366 99.389C157.641 98.4164 158 97.4697 158.44 96.5598C159.769 94.4398 162.441 93.599 164.745 94.5755C165.247 94.8088 165.704 95.121 166.219 95.3103C167.86 95.913 169.664 94.3423 171.16 93.823C172.942 93.207 175.023 92.899 176.757 93.823C178.926 94.9846 179.102 97.409 177.426 99.1645C176.638 99.9873 175.666 100.74 175.384 101.844C174.988 103.441 176.264 105.052 176.04 106.684C175.82 108.418 174.826 109.056 173.224 109.549L171.424 110.108C170.689 110.261 170.012 110.62 169.471 111.142C168.718 112.021 168.736 113.421 168.441 114.486C168.266 115.043 167.976 115.558 167.589 115.997C167.203 116.436 166.728 116.789 166.197 117.033C164.208 118.03 161.966 118.409 159.76 118.12C158.406 118.006 157.085 117.64 155.866 117.042C154.106 116.109 152.68 114.235 151.906 112.435L151.84 112.246Z" fill="#D0665F"/>
<path id="Vector_8" d="M153.846 114.16C154.366 114.455 155.246 112.541 155.501 112.184C156.148 111.265 156.821 110.376 157.547 109.509C158.839 107.948 160.237 106.478 161.731 105.109C163.977 103.024 166.444 101.19 169.088 99.6398C170.169 98.9822 171.302 98.4141 172.476 97.9413C172.541 97.9166 172.594 97.8671 172.623 97.8037C172.652 97.7402 172.654 97.6679 172.63 97.6025C172.584 97.4695 172.439 97.3988 172.305 97.4451L172.295 97.4487C168.485 98.8875 164.939 101.523 161.925 104.198C160.339 105.606 158.855 107.125 157.485 108.744C156.948 109.373 153.283 113.672 153.811 114.112L153.846 114.16Z" fill="white"/>
<path id="Vector_9" d="M160.926 105.686H160.988C164.692 105.285 170.421 106.42 170.478 106.429C170.547 106.442 170.617 106.428 170.675 106.389C170.733 106.35 170.773 106.29 170.786 106.222C170.8 106.155 170.787 106.085 170.749 106.027C170.712 105.97 170.653 105.929 170.585 105.915L170.58 105.914C170.342 105.866 164.719 104.757 160.931 105.162C160.864 105.165 160.801 105.194 160.755 105.242C160.709 105.291 160.683 105.355 160.683 105.422C160.683 105.488 160.709 105.553 160.755 105.601C160.801 105.649 160.864 105.678 160.931 105.681L160.926 105.686Z" fill="white"/>
<path id="Vector_10" d="M162.84 103.961C162.874 103.963 162.908 103.959 162.94 103.948C162.973 103.937 163.003 103.92 163.028 103.898C163.054 103.875 163.075 103.848 163.09 103.817C163.105 103.787 163.114 103.754 163.117 103.72L163.117 103.714C163.217 101.821 163.045 99.9229 162.607 98.078C162.586 98.0135 162.542 97.9593 162.483 97.9265C162.424 97.8938 162.354 97.8849 162.289 97.9018C162.223 97.9188 162.167 97.9602 162.131 98.0175C162.095 98.0749 162.083 98.1438 162.096 98.21C162.516 100.003 162.683 101.845 162.593 103.684C162.59 103.753 162.614 103.821 162.66 103.873C162.706 103.925 162.771 103.956 162.84 103.961Z" fill="white"/>
<path id="Vector_11" d="M155.078 116.985L126.056 133.74V116.105L155.078 99.3453V116.985Z" fill="#3A4E48"/>
<path id="Vector_12" d="M97.0337 116.985L126.056 133.74V116.105L97.0337 99.3453V116.985Z" fill="#263238"/>
<path id="Vector_13" d="M155.078 99.3453L126.056 82.59L97.0337 99.3453L126.056 116.105L155.078 99.3453Z" fill="black"/>
<path id="Vector_14" d="M131.16 102.628C132.572 103.442 133.276 104.511 133.276 105.58V108.44C133.276 109.509 132.572 110.578 131.16 111.392C129.586 112.229 127.825 112.65 126.043 112.616V101.4C127.825 101.365 129.587 101.788 131.16 102.628Z" fill="#3A4E48"/>
<path id="Vector_15" d="M120.939 102.628C119.526 103.442 118.822 104.511 118.822 105.58V108.44C118.822 109.509 119.526 110.578 120.939 111.392C122.513 112.229 124.274 112.65 126.056 112.616V101.4C124.273 101.365 122.511 101.788 120.939 102.628Z" fill="#263238"/>
<path id="Vector_16" d="M120.939 102.628C118.114 104.256 118.114 106.9 120.939 108.532C123.764 110.165 128.344 110.165 131.173 108.532C134.002 106.9 133.998 104.256 131.173 102.628C128.348 101 123.764 100.995 120.939 102.628Z" fill="#6A7B76"/>
<path id="Vector_17" opacity="0.07" d="M120.939 102.628C118.114 104.256 118.114 106.9 120.939 108.532C123.764 110.165 128.344 110.165 131.173 108.532C134.002 106.9 133.998 104.256 131.173 102.628C128.348 101 123.764 100.995 120.939 102.628Z" fill="white"/>
<path id="Vector_18" d="M131.16 86.2818C132.572 87.0956 133.276 88.1648 133.276 89.234V92.0898C133.276 93.159 132.572 94.228 131.16 95.042C129.587 95.8805 127.825 96.3017 126.043 96.2653V85.0585C127.825 85.0242 129.586 85.4452 131.16 86.2818Z" fill="#3A4E48"/>
<path id="Vector_19" d="M120.939 86.2818C119.526 87.0956 118.822 88.1648 118.822 89.234V92.0898C118.822 93.159 119.526 94.228 120.939 95.042C122.512 95.8805 124.274 96.3017 126.056 96.2653V85.0585C124.274 85.0243 122.513 85.4453 120.939 86.2818Z" fill="#263238"/>
<path id="Vector_20" d="M120.939 86.2817C118.114 87.9142 118.114 90.5585 120.939 92.191C123.764 93.8235 128.344 93.8188 131.173 92.191C134.002 90.563 133.998 87.9142 131.173 86.2817C128.348 84.6493 123.764 84.6493 120.939 86.2817Z" fill="#6A7B76"/>
<path id="Vector_21" opacity="0.07" d="M120.939 86.2817C118.114 87.9142 118.114 90.5585 120.939 92.191C123.764 93.8235 128.344 93.8188 131.173 92.191C134.002 90.563 133.998 87.9142 131.173 86.2817C128.348 84.6493 123.764 84.6493 120.939 86.2817Z" fill="white"/>
<path id="Vector_22" d="M145.319 94.457C146.732 95.2708 147.44 96.34 147.44 97.4093V100.265C147.44 101.334 146.732 102.403 145.319 103.217C143.747 104.054 141.987 104.475 140.206 104.441V93.2338C141.987 93.1972 143.748 93.6184 145.319 94.457Z" fill="#3A4E48"/>
<path id="Vector_23" d="M135.089 94.457C133.677 95.2708 132.973 96.34 132.973 97.4093V100.265C132.973 101.334 133.677 102.403 135.089 103.217C136.663 104.054 138.424 104.475 140.206 104.441V93.2338C138.424 93.1973 136.662 93.6184 135.089 94.457Z" fill="#263238"/>
<path id="Vector_24" d="M135.089 94.4569C132.264 96.0847 132.264 98.7294 135.089 100.362C137.914 101.994 142.494 101.994 145.319 100.362C148.144 98.7292 148.148 96.0847 145.319 94.4569C142.49 92.8287 137.914 92.8245 135.089 94.4569Z" fill="#6A7B76"/>
<path id="Vector_25" opacity="0.07" d="M135.089 94.4569C132.264 96.0847 132.264 98.7294 135.089 100.362C137.914 101.994 142.494 101.994 145.319 100.362C148.144 98.7292 148.148 96.0847 145.319 94.4569C142.49 92.8287 137.914 92.8245 135.089 94.4569Z" fill="white"/>
<path id="Vector_26" d="M117.023 94.448C118.435 95.2665 119.139 96.3357 119.139 97.405V100.261C119.139 101.325 118.435 102.395 117.023 103.213C115.449 104.049 113.688 104.47 111.906 104.436V93.225C113.688 93.1907 115.449 93.6116 117.023 94.448Z" fill="#3A4E48"/>
<path id="Vector_27" d="M106.788 94.448C105.376 95.2665 104.672 96.3357 104.672 97.405V100.261C104.672 101.325 105.376 102.395 106.788 103.213C108.362 104.049 110.124 104.47 111.906 104.436V93.225C110.124 93.1907 108.362 93.6116 106.788 94.448Z" fill="#263238"/>
<path id="Vector_28" d="M106.788 94.448C103.964 96.0805 103.964 98.7248 106.788 100.357C109.613 101.99 114.198 101.99 117.023 100.357C119.848 98.7248 119.848 96.0805 117.023 94.448C114.198 92.8155 109.6 92.82 106.788 94.448Z" fill="#6A7B76"/>
<path id="Vector_29" opacity="0.07" d="M106.788 94.448C103.964 96.0805 103.964 98.7248 106.788 100.357C109.613 101.99 114.198 101.99 117.023 100.357C119.848 98.7248 119.848 96.0805 117.023 94.448C114.198 92.8155 109.6 92.82 106.788 94.448Z" fill="white"/>
<path id="Vector_30" d="M183.366 159.946L154.344 176.702V159.062L183.366 142.307V159.946Z" fill="#D0665F"/>
<path id="Vector_31" opacity="0.1" d="M183.366 159.946L154.344 176.702V159.062L183.366 142.307V159.946Z" fill="black"/>
<path id="Vector_32" d="M125.326 159.946L154.344 176.702V159.062L125.321 142.307L125.326 159.946Z" fill="#D0665F"/>
<path id="Vector_33" opacity="0.2" d="M125.326 159.946L154.344 176.702V159.062L125.321 142.307L125.326 159.946Z" fill="black"/>
<path id="Vector_34" d="M183.366 142.307L154.344 125.552L125.321 142.307L154.344 159.062L183.366 142.307Z" fill="#D0665F"/>
<path id="Vector_35" d="M161.577 132.2C161.577 131.131 160.873 130.062 159.461 129.248C156.636 127.615 152.056 127.615 149.231 129.248C147.818 130.062 147.11 131.131 147.11 132.2V135.056C147.11 136.125 147.818 137.19 149.231 138.008C152.056 139.64 156.636 139.64 159.461 138.008C160.873 137.19 161.582 136.125 161.577 135.056V132.2Z" fill="#D0665F"/>
<path id="Vector_36" opacity="0.1" d="M159.461 129.243C160.873 130.057 161.581 131.126 161.577 132.196V135.051C161.577 136.12 160.873 137.185 159.461 138.003C157.888 138.845 156.127 139.27 154.344 139.24V128.02C156.126 127.984 157.888 128.405 159.461 129.243Z" fill="black"/>
<path id="Vector_37" opacity="0.2" d="M149.231 129.243C147.818 130.057 147.11 131.126 147.11 132.196V135.051C147.11 136.121 147.818 137.185 149.231 138.004C150.802 138.844 152.562 139.27 154.344 139.24V128.02C152.563 127.984 150.803 128.405 149.231 129.243Z" fill="black"/>
<path id="Vector_38" d="M149.231 129.243C146.406 130.871 146.406 133.516 149.231 135.148C152.055 136.78 156.636 136.78 159.461 135.148C162.285 133.516 162.285 130.871 159.461 129.243C156.636 127.615 152.055 127.611 149.231 129.243Z" fill="#D0665F"/>
<path id="Vector_39" opacity="0.3" d="M149.231 129.243C146.406 130.871 146.406 133.516 149.231 135.148C152.055 136.78 156.636 136.78 159.461 135.148C162.285 133.516 162.285 130.871 159.461 129.243C156.636 127.615 152.055 127.611 149.231 129.243Z" fill="white"/>
<path id="Vector_40" d="M161.577 148.537C161.577 147.472 160.873 146.403 159.461 145.585C156.636 143.952 152.056 143.952 149.231 145.585C147.818 146.403 147.11 147.468 147.11 148.537V151.393C147.11 152.462 147.818 153.531 149.231 154.345C152.056 155.978 156.636 155.978 159.461 154.345C160.873 153.531 161.582 152.462 161.577 151.393V148.537Z" fill="#D0665F"/>
<path id="Vector_41" opacity="0.1" d="M159.461 145.585C160.873 146.403 161.581 147.468 161.577 148.537V151.393C161.577 152.462 160.873 153.531 159.461 154.345C157.888 155.186 156.126 155.607 154.344 155.569V144.362C156.126 144.327 157.887 144.748 159.461 145.585Z" fill="black"/>
<path id="Vector_42" opacity="0.2" d="M149.231 145.585C147.818 146.403 147.11 147.468 147.11 148.537V151.393C147.11 152.462 147.818 153.531 149.231 154.345C150.802 155.185 152.563 155.606 154.344 155.569V144.362C152.563 144.328 150.803 144.749 149.231 145.585Z" fill="black"/>
<path id="Vector_43" d="M149.231 145.585C146.406 147.217 146.406 149.862 149.231 151.494C152.055 153.126 156.636 153.122 159.461 151.494C162.285 149.866 162.285 147.217 159.461 145.585C156.636 143.952 152.055 143.952 149.231 145.585Z" fill="#D0665F"/>
<path id="Vector_44" opacity="0.3" d="M149.231 145.585C146.406 147.217 146.406 149.862 149.231 151.494C152.055 153.126 156.636 153.122 159.461 151.494C162.285 149.866 162.285 147.217 159.461 145.585C156.636 143.952 152.055 143.952 149.231 145.585Z" fill="white"/>
<path id="Vector_45" d="M147.44 140.362C147.44 139.293 146.732 138.224 145.319 137.41C142.494 135.777 137.914 135.777 135.089 137.41C133.677 138.224 132.968 139.293 132.968 140.362V143.2C132.968 144.269 133.677 145.339 135.089 146.153C137.914 147.785 142.494 147.785 145.319 146.153C146.732 145.339 147.44 144.269 147.44 143.2V140.362Z" fill="#D0665F"/>
<path id="Vector_46" opacity="0.1" d="M145.31 137.41C146.723 138.224 147.431 139.293 147.431 140.362V143.218C147.431 144.287 146.723 145.356 145.31 146.17C143.737 147.009 141.975 147.43 140.193 147.393V136.186C141.975 136.152 143.736 136.573 145.31 137.41Z" fill="black"/>
<path id="Vector_47" opacity="0.2" d="M135.08 137.41C133.668 138.224 132.959 139.293 132.959 140.362V143.2C132.959 144.269 133.668 145.339 135.08 146.153C136.652 146.99 138.412 147.411 140.193 147.376V136.187C138.413 136.153 136.653 136.574 135.08 137.41Z" fill="black"/>
<path id="Vector_48" d="M135.08 137.41C132.255 139.042 132.255 141.687 135.08 143.314C137.905 144.942 142.485 144.947 145.31 143.314C148.135 141.682 148.135 139.042 145.31 137.41C142.485 135.777 137.905 135.777 135.08 137.41Z" fill="#D0665F"/>
<path id="Vector_49" opacity="0.3" d="M135.08 137.41C132.255 139.042 132.255 141.687 135.08 143.314C137.905 144.942 142.485 144.947 145.31 143.314C148.135 141.682 148.135 139.042 145.31 137.41C142.485 135.777 137.905 135.777 135.08 137.41Z" fill="white"/>
<path id="Vector_50" d="M175.727 140.366C175.727 139.297 175.023 138.228 173.611 137.414C170.786 135.782 166.206 135.782 163.381 137.414C161.964 138.228 161.26 139.297 161.26 140.366V143.222C161.26 144.291 161.964 145.36 163.377 146.174C166.206 147.807 170.786 147.807 173.611 146.174C175.023 145.36 175.727 144.291 175.727 143.222V140.366Z" fill="#D0665F"/>
<path id="Vector_51" opacity="0.1" d="M173.611 137.414C175.024 138.228 175.728 139.297 175.728 140.366V143.222C175.728 144.291 175.024 145.36 173.611 146.174C172.038 147.013 170.276 147.434 168.494 147.398V136.191C170.276 136.157 172.037 136.578 173.611 137.414Z" fill="black"/>
<path id="Vector_52" opacity="0.2" d="M163.381 137.414C161.965 138.228 161.26 139.297 161.26 140.366V143.222C161.26 144.291 161.965 145.36 163.377 146.174C164.95 147.012 166.712 147.433 168.494 147.398V136.191C166.713 136.157 164.954 136.578 163.381 137.414Z" fill="black"/>
<path id="Vector_53" d="M163.381 137.414C160.552 139.046 160.552 141.691 163.381 143.323C166.21 144.955 170.791 144.951 173.615 143.323C176.44 141.695 176.44 139.046 173.615 137.414C170.791 135.782 166.206 135.782 163.381 137.414Z" fill="#D0665F"/>
<path id="Vector_54" opacity="0.3" d="M163.381 137.414C160.552 139.046 160.552 141.691 163.381 143.323C166.21 144.955 170.791 144.951 173.615 143.323C176.44 141.695 176.44 139.046 173.615 137.414C170.791 135.782 166.206 135.782 163.381 137.414Z" fill="white"/>
<path id="Vector_55" d="M155.078 98.0693L126.056 114.825V97.1848L155.078 80.4296V98.0693Z" fill="#D0665F"/>
<path id="Vector_56" opacity="0.3" d="M155.078 98.0693L126.056 114.825V97.1848L155.078 80.4296V98.0693Z" fill="black"/>
<path id="Vector_57" d="M97.0337 98.0693L126.056 114.825V97.1848L97.0337 80.4296V98.0693Z" fill="#D0665F"/>
<path id="Vector_58" opacity="0.4" d="M97.0337 98.0693L126.056 114.825V97.1848L97.0337 80.4296V98.0693Z" fill="black"/>
<path id="Vector_59" d="M155.078 80.4296L126.056 63.6743L97.0337 80.4296L126.056 97.1848L155.078 80.4296Z" fill="#D0665F"/>
<path id="Vector_60" opacity="0.55" d="M155.078 80.4296L126.056 63.6743L97.0337 80.4296L126.056 97.1848L155.078 80.4296Z" fill="black"/>
<path id="Vector_61" d="M133.29 70.3185C133.29 69.2493 132.586 68.18 131.173 67.366C128.348 65.7335 123.764 65.7335 120.939 67.366C119.526 68.18 118.822 69.2493 118.822 70.3185V73.1742C118.822 74.2435 119.526 75.3125 120.939 76.1265C123.764 77.759 128.344 77.759 131.173 76.1265C132.586 75.3125 133.29 74.2435 133.29 73.1742V70.3185Z" fill="#D0665F"/>
<path id="Vector_62" opacity="0.3" d="M131.16 67.366C132.572 68.18 133.276 69.2493 133.276 70.3185V73.1742C133.276 74.2435 132.572 75.3125 131.16 76.1265C129.586 76.9629 127.825 77.3839 126.043 77.3498V66.143C127.825 66.1065 129.587 66.5276 131.16 67.366Z" fill="black"/>
<path id="Vector_63" opacity="0.4" d="M120.939 67.366C119.526 68.18 118.822 69.2493 118.822 70.3185V73.1742C118.822 74.2435 119.526 75.3125 120.939 76.1265C122.513 76.9629 124.274 77.3839 126.056 77.3497V66.143C124.274 66.1065 122.512 66.5276 120.939 67.366Z" fill="black"/>
<path id="Vector_64" d="M120.939 67.366C118.114 68.994 118.114 71.6385 120.939 73.2708C123.764 74.9032 128.344 74.9032 131.173 73.2708C134.002 71.6385 133.998 68.994 131.173 67.366C128.348 65.738 123.764 65.7335 120.939 67.366Z" fill="#D0665F"/>
<path id="Vector_65" opacity="0.3" d="M120.939 67.366C118.114 68.994 118.114 71.6385 120.939 73.2708C123.764 74.9032 128.344 74.9032 131.173 73.2708C134.002 71.6385 133.998 68.994 131.173 67.366C128.348 65.738 123.764 65.7335 120.939 67.366Z" fill="white"/>
<path id="Vector_66" d="M133.29 86.6645C133.29 85.5953 132.586 84.526 131.173 83.7075C128.348 82.0797 123.764 82.0797 120.939 83.7075C119.526 84.526 118.822 85.5953 118.822 86.66V89.52C118.822 90.5891 119.526 91.6583 120.939 92.4768C123.764 94.1048 128.344 94.1048 131.173 92.4768C132.586 91.6583 133.29 90.5893 133.29 89.52V86.6645Z" fill="#D0665F"/>
<path id="Vector_67" opacity="0.3" d="M131.16 83.7075C132.572 84.526 133.276 85.5952 133.276 86.66V89.52C133.276 90.589 132.572 91.6583 131.16 92.4767C129.586 93.3131 127.825 93.7342 126.043 93.7V82.48C127.825 82.4472 129.586 82.8697 131.16 83.7075Z" fill="black"/>
<path id="Vector_68" opacity="0.4" d="M120.939 83.7076C119.526 84.526 118.822 85.5953 118.822 86.66V89.52C118.822 90.5891 119.526 91.6583 120.939 92.4768C122.513 93.3132 124.274 93.7342 126.056 93.7V82.48C124.273 82.4473 122.512 82.8698 120.939 83.7076Z" fill="black"/>
<path id="Vector_69" d="M120.939 83.7075C118.114 85.34 118.114 87.9843 120.939 89.6168C123.764 91.2493 128.344 91.2493 131.173 89.6168C134.002 87.9843 133.998 85.34 131.173 83.7075C128.348 82.075 123.764 82.0797 120.939 83.7075Z" fill="#D0665F"/>
<path id="Vector_70" opacity="0.3" d="M120.939 83.7075C118.114 85.34 118.114 87.9843 120.939 89.6168C123.764 91.2493 128.344 91.2493 131.173 89.6168C134.002 87.9843 133.998 85.34 131.173 83.7075C128.348 82.075 123.764 82.0797 120.939 83.7075Z" fill="white"/>
<path id="Vector_71" d="M119.139 78.4848C119.139 77.4155 118.435 76.3463 117.023 75.5323C114.198 73.8998 109.618 73.8998 106.788 75.5323C105.376 76.3463 104.672 77.4155 104.672 78.4848V81.3405C104.672 82.4095 105.376 83.4788 106.788 84.2928C109.613 85.9252 114.198 85.9252 117.023 84.2928C118.435 83.4788 119.139 82.4095 119.139 81.3405V78.4848Z" fill="#D0665F"/>
<path id="Vector_72" opacity="0.3" d="M117.023 75.5323C118.435 76.3463 119.139 77.4155 119.139 78.4848V81.3405C119.139 82.4095 118.435 83.4788 117.023 84.2928C115.45 85.1312 113.688 85.5524 111.906 85.516V74.309C113.688 74.2749 115.449 74.696 117.023 75.5323Z" fill="black"/>
<path id="Vector_73" opacity="0.4" d="M106.788 75.5323C105.376 76.3463 104.672 77.4155 104.672 78.4848V81.3405C104.672 82.4095 105.376 83.4788 106.788 84.2928C108.362 85.1313 110.123 85.5524 111.906 85.516V74.309C110.124 74.2749 108.362 74.696 106.788 75.5323Z" fill="black"/>
<path id="Vector_74" d="M106.788 75.5323C103.964 77.1648 103.964 79.8091 106.788 81.4415C109.613 83.074 114.198 83.0695 117.023 81.4415C119.848 79.8137 119.848 77.1648 117.023 75.5323C114.198 73.9002 109.6 73.9 106.788 75.5323Z" fill="#D0665F"/>
<path id="Vector_75" opacity="0.3" d="M106.788 75.5323C103.964 77.1648 103.964 79.8091 106.788 81.4415C109.613 83.074 114.198 83.0695 117.023 81.4415C119.848 79.8137 119.848 77.1648 117.023 75.5323C114.198 73.9002 109.6 73.9 106.788 75.5323Z" fill="white"/>
<path id="Vector_76" d="M147.44 78.4892C147.44 77.4243 146.736 76.3553 145.319 75.5368C142.494 73.9045 137.914 73.9045 135.089 75.5368C133.677 76.3555 132.973 77.42 132.973 78.4892V81.345C132.973 82.414 133.677 83.4832 135.089 84.2972C137.914 85.9297 142.494 85.9297 145.319 84.2972C146.736 83.4832 147.44 82.4142 147.44 81.345V78.4892Z" fill="#D0665F"/>
<path id="Vector_77" opacity="0.3" d="M145.319 75.537C146.732 76.3554 147.44 77.42 147.44 78.4892V81.345C147.44 82.4142 146.732 83.4832 145.319 84.2972C143.748 85.1357 141.987 85.5569 140.206 85.5205V74.3137C141.987 74.2793 143.747 74.7003 145.319 75.537Z" fill="black"/>
<path id="Vector_78" opacity="0.4" d="M135.089 75.5369C133.677 76.3554 132.973 77.42 132.973 78.4892V81.345C132.973 82.4142 133.677 83.4832 135.089 84.2972C136.662 85.1357 138.424 85.5569 140.206 85.5205V74.3137C138.424 74.2794 136.663 74.7004 135.089 75.5369Z" fill="black"/>
<path id="Vector_79" d="M135.089 75.537C132.264 77.1693 132.264 79.8137 135.089 81.446C137.914 83.0785 142.494 83.074 145.319 81.446C148.144 79.8182 148.148 77.1693 145.319 75.537C142.49 73.9045 137.914 73.9045 135.089 75.537Z" fill="#D0665F"/>
<path id="Vector_80" opacity="0.3" d="M135.089 75.537C132.264 77.1693 132.264 79.8137 135.089 81.446C137.914 83.0785 142.494 83.074 145.319 81.446C148.144 79.8182 148.148 77.1693 145.319 75.537C142.49 73.9045 137.914 73.9045 135.089 75.537Z" fill="white"/>
<path id="Vector_81" d="M124.529 134.62L95.5067 151.379V133.74L124.529 116.985V134.62Z" fill="#D0665F"/>
<path id="Vector_82" opacity="0.3" d="M124.529 134.62L95.5067 151.379V133.74L124.529 116.985V134.62Z" fill="black"/>
<path id="Vector_83" d="M66.4843 134.62L95.5067 151.379V133.74L66.4843 116.985V134.62Z" fill="#D0665F"/>
<path id="Vector_84" opacity="0.4" d="M66.4843 134.62L95.5067 151.379V133.74L66.4843 116.985V134.62Z" fill="black"/>
<path id="Vector_85" d="M124.529 116.985L95.5067 100.23L66.4843 116.985L95.5067 133.74L124.529 116.985Z" fill="#D0665F"/>
<path id="Vector_86" opacity="0.55" d="M124.529 116.985L95.5067 100.23L66.4843 116.985L95.5067 133.74L124.529 116.985Z" fill="black"/>
<path id="Vector_87" d="M102.74 106.874C102.74 105.805 102.036 104.735 100.624 103.921C97.7992 102.289 93.2187 102.289 90.3897 103.921C88.9772 104.735 88.2732 105.805 88.2732 106.874V109.729C88.2732 110.799 88.9772 111.868 90.3897 112.682C93.2144 114.314 97.7992 114.314 100.624 112.682C102.036 111.868 102.74 110.799 102.74 109.729V106.874Z" fill="#D0665F"/>
<path id="Vector_88" opacity="0.3" d="M100.624 103.921C102.036 104.735 102.74 105.805 102.74 106.874V109.729C102.74 110.799 102.036 111.868 100.624 112.682C99.0539 113.516 97.2975 113.937 95.5199 113.905V102.72C97.2958 102.679 99.0526 103.093 100.624 103.921Z" fill="black"/>
<path id="Vector_89" opacity="0.4" d="M90.3897 103.921C88.9772 104.735 88.2732 105.805 88.2732 106.874V109.729C88.2732 110.799 88.9772 111.868 90.3897 112.682C91.9675 113.52 93.7337 113.941 95.5202 113.905V102.72C93.7354 102.675 91.9688 103.088 90.3897 103.921Z" fill="black"/>
<path id="Vector_90" d="M90.3897 103.921C87.5649 105.549 87.5649 108.194 90.3897 109.826C93.2144 111.458 97.7992 111.459 100.624 109.826C103.449 108.194 103.449 105.549 100.624 103.921C97.7992 102.293 93.2187 102.28 90.3897 103.921Z" fill="#D0665F"/>
<path id="Vector_91" opacity="0.3" d="M90.3897 103.921C87.5649 105.549 87.5649 108.194 90.3897 109.826C93.2144 111.458 97.7992 111.459 100.624 109.826C103.449 108.194 103.449 105.549 100.624 103.921C97.7992 102.293 93.2187 102.28 90.3897 103.921Z" fill="white"/>
<path id="Vector_92" d="M102.74 123.215C102.74 122.15 102.036 121.081 100.624 120.263C97.7992 118.63 93.2187 118.63 90.3897 120.263C88.9772 121.081 88.2732 122.146 88.2732 123.215V126.071C88.2732 127.14 88.9772 128.209 90.3897 129.023C93.2144 130.656 97.7992 130.656 100.624 129.023C102.036 128.209 102.74 127.14 102.74 126.071V123.215Z" fill="#D0665F"/>
<path id="Vector_93" opacity="0.3" d="M100.624 120.263C102.036 121.081 102.74 122.146 102.74 123.215V126.071C102.74 127.14 102.036 128.209 100.624 129.023C99.055 129.861 97.298 130.283 95.5199 130.251V119.04C97.2975 119.008 99.0539 119.429 100.624 120.263Z" fill="black"/>
<path id="Vector_94" opacity="0.4" d="M90.3897 120.263C88.9772 121.081 88.2732 122.146 88.2732 123.215V126.071C88.2732 127.14 88.9772 128.209 90.3897 129.023C91.9664 129.865 93.7331 130.288 95.5202 130.251V119.04C93.7337 119.003 91.9676 119.424 90.3897 120.263Z" fill="black"/>
<path id="Vector_95" d="M90.3897 120.263C87.5649 121.895 87.5649 124.54 90.3897 126.172C93.2144 127.804 97.7992 127.8 100.624 126.172C103.449 124.544 103.449 121.895 100.624 120.263C97.7992 118.63 93.2187 118.63 90.3897 120.263Z" fill="#D0665F"/>
<path id="Vector_96" opacity="0.3" d="M90.3897 120.263C87.5649 121.895 87.5649 124.54 90.3897 126.172C93.2144 127.804 97.7992 127.8 100.624 126.172C103.449 124.544 103.449 121.895 100.624 120.263C97.7992 118.63 93.2187 118.63 90.3897 120.263Z" fill="white"/>
<path id="Vector_97" d="M88.5899 115.04C88.5899 113.971 87.8859 112.902 86.4734 112.088C83.6487 110.455 79.0682 110.455 76.2392 112.088C74.8267 112.902 74.1227 113.971 74.1227 115.04V117.896C74.1227 118.965 74.8267 120.034 76.2392 120.848C79.0639 122.481 83.6487 122.481 86.4734 120.848C87.8859 120.034 88.5899 118.965 88.5899 117.896V115.04Z" fill="#D0665F"/>
<path id="Vector_98" opacity="0.3" d="M86.4735 112.088C87.886 112.902 88.59 113.971 88.59 115.04V117.896C88.59 118.965 87.886 120.034 86.4735 120.848C84.9012 121.689 83.1394 122.114 81.3564 122.08V110.864C83.1384 110.83 84.8996 111.251 86.4735 112.088Z" fill="black"/>
<path id="Vector_99" opacity="0.4" d="M76.2392 112.088C74.8267 112.902 74.1227 113.971 74.1227 115.04V117.896C74.1227 118.965 74.8267 120.034 76.2392 120.848C77.8115 121.69 79.5734 122.114 81.3564 122.08V110.864C79.5744 110.831 77.8133 111.252 76.2392 112.088Z" fill="black"/>
<path id="Vector_100" d="M76.2392 112.087C73.4144 113.72 73.4144 116.364 76.2392 117.992C79.0639 119.62 83.6487 119.625 86.4735 117.992C89.2982 116.36 89.2982 113.72 86.4735 112.087C83.6487 110.455 79.0684 110.455 76.2392 112.087Z" fill="#D0665F"/>
<path id="Vector_101" opacity="0.3" d="M76.2392 112.087C73.4144 113.72 73.4144 116.364 76.2392 117.992C79.0639 119.62 83.6487 119.625 86.4735 117.992C89.2982 116.36 89.2982 113.72 86.4735 112.087C83.6487 110.455 79.0684 110.455 76.2392 112.087Z" fill="white"/>
<path id="Vector_102" d="M116.891 115.04C116.891 113.971 116.187 112.906 114.77 112.088C111.945 110.455 107.365 110.455 104.54 112.088C103.127 112.902 102.423 113.971 102.423 115.04V117.896C102.423 118.965 103.128 120.034 104.54 120.848C107.365 122.481 111.945 122.481 114.77 120.848C116.187 120.034 116.891 118.965 116.891 117.896V115.04Z" fill="#D0665F"/>
<path id="Vector_103" opacity="0.3" d="M114.77 112.092C116.182 112.906 116.891 113.975 116.891 115.044V117.9C116.891 118.969 116.187 120.038 114.774 120.852C113.201 121.692 111.44 122.114 109.657 122.08V110.869C111.438 110.835 113.198 111.256 114.77 112.092Z" fill="black"/>
<path id="Vector_104" opacity="0.4" d="M104.54 112.092C103.127 112.906 102.423 113.975 102.423 115.044V117.9C102.423 118.969 103.128 120.038 104.54 120.852C106.113 121.692 107.875 122.115 109.657 122.08V110.869C107.875 110.835 106.114 111.256 104.54 112.092Z" fill="black"/>
<path id="Vector_105" d="M104.54 112.092C101.715 113.725 101.715 116.369 104.54 118.001C107.365 119.634 111.945 119.629 114.77 118.001C117.595 116.373 117.599 113.725 114.77 112.092C111.941 110.46 107.365 110.46 104.54 112.092Z" fill="#D0665F"/>
<path id="Vector_106" opacity="0.3" d="M104.54 112.092C101.715 113.725 101.715 116.369 104.54 118.001C107.365 119.634 111.945 119.629 114.77 118.001C117.595 116.373 117.599 113.725 114.77 112.092C111.941 110.46 107.365 110.46 104.54 112.092Z" fill="white"/>
<path id="Vector_107" d="M124.529 115.704L95.5067 132.46V114.825L124.529 98.0693V115.704Z" fill="#D0665F"/>
<path id="Vector_108" opacity="0.1" d="M124.529 115.704L95.5067 132.46V114.825L124.529 98.0693V115.704Z" fill="black"/>
<path id="Vector_109" d="M66.4843 115.704L95.5067 132.46V114.825L66.4843 98.0693V115.704Z" fill="#D0665F"/>
<path id="Vector_110" opacity="0.2" d="M66.4843 115.704L95.5067 132.46V114.825L66.4843 98.0693V115.704Z" fill="black"/>
<path id="Vector_111" d="M124.529 98.0693L95.5067 81.3098L66.4843 98.0693L95.5067 114.825L124.529 98.0693Z" fill="#D0665F"/>
<path id="Vector_112" d="M102.74 87.9538C102.74 86.8845 102.036 85.8196 100.624 85.0013C97.7992 83.3688 93.2187 83.3688 90.3897 85.0013C88.9772 85.8198 88.2732 86.8845 88.2732 87.9538V90.8093C88.2732 91.8785 88.9772 92.9478 90.3897 93.7618C93.2144 95.3942 97.7992 95.3942 100.624 93.7618C102.036 92.9478 102.74 91.8785 102.74 90.8093V87.9538Z" fill="#D0665F"/>
<path id="Vector_113" opacity="0.1" d="M100.624 85.0012C102.036 85.8197 102.74 86.8845 102.74 87.9537V90.8092C102.74 91.8785 102.036 92.9477 100.624 93.7617C99.0547 94.5979 97.2977 95.019 95.5199 94.9849V83.8C97.2956 83.7612 99.0519 84.1746 100.624 85.0012Z" fill="black"/>
<path id="Vector_114" opacity="0.2" d="M90.3897 85.0012C88.9772 85.8197 88.2732 86.8845 88.2732 87.9537V90.8092C88.2732 91.8785 88.9772 92.9477 90.3897 93.7617C91.9668 94.6024 93.7334 95.0236 95.5202 94.985V83.8C93.7356 83.7568 91.9696 84.1703 90.3897 85.0012Z" fill="black"/>
<path id="Vector_115" d="M90.3897 85.0013C87.5649 86.6337 87.5649 89.278 90.3897 90.9105C93.2144 92.543 97.7992 92.5385 100.624 90.9105C103.449 89.2825 103.449 86.6337 100.624 85.0013C97.7992 83.3688 93.2187 83.36 90.3897 85.0013Z" fill="#D0665F"/>
<path id="Vector_116" opacity="0.3" d="M90.3897 85.0013C87.5649 86.6337 87.5649 89.278 90.3897 90.9105C93.2144 92.543 97.7992 92.5385 100.624 90.9105C103.449 89.2825 103.449 86.6337 100.624 85.0013C97.7992 83.3688 93.2187 83.36 90.3897 85.0013Z" fill="white"/>
<path id="Vector_117" d="M102.74 104.3C102.74 103.231 102.036 102.161 100.624 101.347C97.7992 99.7148 93.2187 99.7148 90.3897 101.347C88.9772 102.161 88.2732 103.231 88.2732 104.3V107.155C88.2732 108.225 88.9772 109.294 90.3897 110.108C93.2144 111.74 97.7992 111.74 100.624 110.108C102.036 109.294 102.74 108.225 102.74 107.155V104.3Z" fill="#D0665F"/>
<path id="Vector_118" opacity="0.1" d="M100.624 101.347C102.036 102.161 102.74 103.23 102.74 104.3V107.155C102.74 108.224 102.036 109.294 100.624 110.108C99.0539 110.942 97.2975 111.363 95.5199 111.331V100.124C97.2977 100.09 99.0547 100.511 100.624 101.347Z" fill="black"/>
<path id="Vector_119" opacity="0.2" d="M90.3897 101.347C88.9772 102.161 88.2732 103.231 88.2732 104.3V107.155C88.2732 108.225 88.9772 109.294 90.3897 110.108C91.9675 110.946 93.7337 111.367 95.5202 111.331V100.124C93.7334 100.085 91.9667 100.507 90.3897 101.347Z" fill="black"/>
<path id="Vector_120" d="M90.3897 101.347C87.5649 102.98 87.5649 105.624 90.3897 107.252C93.2144 108.88 97.7992 108.885 100.624 107.252C103.449 105.62 103.449 102.98 100.624 101.347C97.7992 99.715 93.2187 99.7148 90.3897 101.347Z" fill="#D0665F"/>
<path id="Vector_121" opacity="0.3" d="M90.3897 101.347C87.5649 102.98 87.5649 105.624 90.3897 107.252C93.2144 108.88 97.7992 108.885 100.624 107.252C103.449 105.62 103.449 102.98 100.624 101.347C97.7992 99.715 93.2187 99.7148 90.3897 101.347Z" fill="white"/>
<path id="Vector_122" d="M88.5899 96.12C88.5899 95.051 87.8859 93.9817 86.4734 93.1677C83.6487 91.5352 79.0682 91.5352 76.2392 93.1677C74.8267 93.9817 74.1227 95.051 74.1227 96.12V98.9757C74.1227 100.045 74.8267 101.11 76.2392 101.928C79.0639 103.556 83.6487 103.561 86.4734 101.928C87.8859 101.11 88.5899 100.04 88.5899 98.9757V96.12Z" fill="#D0665F"/>
<path id="Vector_123" opacity="0.1" d="M86.4735 93.172C87.886 93.986 88.59 95.0553 88.59 96.1245V98.98C88.59 100.049 87.886 101.114 86.4735 101.932C84.9 102.77 83.1388 103.193 81.3564 103.16V91.9443C83.139 91.9097 84.9007 92.3323 86.4735 93.172Z" fill="black"/>
<path id="Vector_124" opacity="0.2" d="M76.2392 93.172C74.8267 93.986 74.1227 95.0553 74.1227 96.1245V98.98C74.1227 100.049 74.8267 101.114 76.2392 101.933C77.8127 102.77 79.574 103.193 81.3564 103.16V91.9443C79.5738 91.91 77.8121 92.3327 76.2392 93.172Z" fill="black"/>
<path id="Vector_125" d="M76.2392 93.172C73.4144 94.8 73.4144 97.4445 76.2392 99.0768C79.0639 100.709 83.6487 100.709 86.4735 99.0768C89.2982 97.4443 89.2982 94.8 86.4735 93.172C83.6487 91.544 79.0684 91.5395 76.2392 93.172Z" fill="#D0665F"/>
<path id="Vector_126" opacity="0.3" d="M76.2392 93.172C73.4144 94.8 73.4144 97.4445 76.2392 99.0768C79.0639 100.709 83.6487 100.709 86.4735 99.0768C89.2982 97.4443 89.2982 94.8 86.4735 93.172C83.6487 91.544 79.0684 91.5395 76.2392 93.172Z" fill="white"/>
<path id="Vector_127" d="M116.891 96.12C116.891 95.051 116.187 93.9817 114.77 93.1677C111.945 91.5352 107.365 91.5352 104.54 93.1677C103.127 93.9817 102.423 95.051 102.423 96.12V98.9757C102.423 100.045 103.128 101.114 104.54 101.928C107.365 103.561 111.945 103.561 114.77 101.928C116.187 101.114 116.891 100.045 116.891 98.9757V96.12Z" fill="#D0665F"/>
<path id="Vector_128" opacity="0.1" d="M114.77 93.1763C116.182 93.9903 116.891 95.0595 116.891 96.1288V98.9843C116.891 100.054 116.187 101.123 114.774 101.937C113.2 102.773 111.439 103.194 109.657 103.16V91.953C111.438 91.9167 113.198 92.3379 114.77 93.1763Z" fill="black"/>
<path id="Vector_129" opacity="0.2" d="M104.54 93.1763C103.127 93.9903 102.423 95.0596 102.423 96.1288V98.9843C102.423 100.054 103.128 101.123 104.54 101.937C106.114 102.773 107.875 103.194 109.657 103.16V91.9531C107.875 91.9169 106.113 92.338 104.54 93.1763Z" fill="black"/>
<path id="Vector_130" d="M104.54 93.1763C101.715 94.8043 101.715 97.4488 104.54 99.081C107.365 100.713 111.945 100.714 114.77 99.081C117.595 97.4486 117.599 94.8043 114.77 93.1763C111.941 91.5483 107.365 91.544 104.54 93.1763Z" fill="#D0665F"/>
<path id="Vector_131" opacity="0.3" d="M104.54 93.1763C101.715 94.8043 101.715 97.4488 104.54 99.081C107.365 100.713 111.945 100.714 114.77 99.081C117.595 97.4486 117.599 94.8043 114.77 93.1763C111.941 91.5483 107.365 91.544 104.54 93.1763Z" fill="white"/>
<path id="Vector_132" d="M93.98 152.26L64.9575 169.015V151.38L93.98 134.62V152.26Z" fill="#3A4E48"/>
<path id="Vector_133" d="M35.9352 152.26L64.9575 169.015V151.38L35.9352 134.62V152.26Z" fill="#263238"/>
<path id="Vector_134" d="M93.9799 134.62L64.9575 117.865L35.9352 134.62L64.9575 151.379L93.9799 134.62Z" fill="#6A7B76"/>
<path id="Vector_135" d="M70.0748 137.92C71.4872 138.734 72.1912 139.803 72.1912 140.872V143.728C72.1912 144.797 71.4872 145.866 70.0748 146.68C68.5008 147.517 66.7395 147.938 64.9575 147.904V136.679C66.7413 136.648 68.5032 137.075 70.0748 137.92Z" fill="#3A4E48"/>
<path id="Vector_136" d="M59.8405 137.92C58.428 138.734 57.724 139.803 57.724 140.872V143.728C57.724 144.797 58.428 145.866 59.8405 146.68C61.4144 147.517 63.1756 147.938 64.9575 147.904V136.679C63.1738 136.648 61.4119 137.075 59.8405 137.92Z" fill="#263238"/>
<path id="Vector_137" d="M59.8405 137.92C57.0157 139.548 57.0157 142.197 59.8405 143.825C62.6653 145.453 67.25 145.457 70.0748 143.825C72.8995 142.192 72.8995 139.552 70.0748 137.92C67.25 136.288 62.6697 136.27 59.8405 137.92Z" fill="#6A7B76"/>
<path id="Vector_138" opacity="0.07" d="M59.8405 137.92C57.0157 139.548 57.0157 142.197 59.8405 143.825C62.6653 145.453 67.25 145.457 70.0748 143.825C72.8995 142.192 72.8995 139.552 70.0748 137.92C67.25 136.288 62.6697 136.27 59.8405 137.92Z" fill="white"/>
<path id="Vector_139" d="M70.0748 121.556C71.4872 122.37 72.1912 123.44 72.1912 124.509V127.36C72.1912 128.429 71.4872 129.498 70.0748 130.312C68.5016 131.151 66.7398 131.572 64.9575 131.536V120.32C66.7407 120.29 68.5021 120.715 70.0748 121.556Z" fill="#3A4E48"/>
<path id="Vector_140" d="M59.8405 121.556C58.428 122.37 57.724 123.44 57.724 124.509V127.36C57.724 128.429 58.428 129.498 59.8405 130.312C61.4135 131.151 63.1753 131.572 64.9575 131.536V120.32C63.1744 120.29 61.4131 120.715 59.8405 121.556Z" fill="#263238"/>
<path id="Vector_141" d="M59.8405 121.557C57.0157 123.189 57.0157 125.833 59.8405 127.466C62.6653 129.098 67.25 129.094 70.0748 127.466C72.8995 125.838 72.8995 123.189 70.0748 121.557C67.25 119.924 62.6697 119.924 59.8405 121.557Z" fill="#6A7B76"/>
<path id="Vector_142" opacity="0.07" d="M59.8405 121.557C57.0157 123.189 57.0157 125.833 59.8405 127.466C62.6653 129.098 67.25 129.094 70.0748 127.466C72.8995 125.838 72.8995 123.189 70.0748 121.557C67.25 119.924 62.6697 119.924 59.8405 121.557Z" fill="white"/>
<path id="Vector_143" d="M84.2209 129.732C85.6334 130.546 86.3416 131.615 86.3416 132.684V135.54C86.3416 136.609 85.6376 137.678 84.2252 138.492C82.651 139.328 80.8899 139.749 79.1079 139.715V128.508C80.8888 128.472 82.6493 128.893 84.2209 129.732Z" fill="#3A4E48"/>
<path id="Vector_144" d="M73.9908 129.732C72.5783 130.546 71.8743 131.615 71.8743 132.684V135.54C71.8743 136.609 72.5783 137.678 73.9908 138.492C75.5647 139.328 77.326 139.749 79.108 139.715V128.508C77.3257 128.472 75.5639 128.893 73.9908 129.732Z" fill="#263238"/>
<path id="Vector_145" d="M73.9908 129.732C71.166 131.36 71.166 134.004 73.9908 135.636C76.8155 137.269 81.3962 137.269 84.221 135.636C87.0457 134.004 87.0502 131.36 84.221 129.732C81.3917 128.104 76.8155 128.099 73.9908 129.732Z" fill="#6A7B76"/>
<path id="Vector_146" opacity="0.07" d="M73.9908 129.732C71.166 131.36 71.166 134.004 73.9908 135.636C76.8155 137.269 81.3962 137.269 84.221 135.636C87.0457 134.004 87.0502 131.36 84.221 129.732C81.3917 128.104 76.8155 128.099 73.9908 129.732Z" fill="white"/>
<path id="Vector_147" d="M55.92 129.723C57.3325 130.541 58.0365 131.611 58.0365 132.68V135.535C58.0365 136.6 57.3325 137.669 55.92 138.488C54.3461 139.324 52.5848 139.745 50.8027 139.711V128.5C52.5848 128.465 54.3461 128.886 55.92 129.723Z" fill="#3A4E48"/>
<path id="Vector_148" d="M45.69 129.723C44.2775 130.541 43.5735 131.611 43.5735 132.68V135.535C43.5735 136.6 44.2775 137.669 45.69 138.488C47.2639 139.324 49.0252 139.745 50.8072 139.711V128.5C49.0252 128.466 47.2641 128.887 45.69 129.723Z" fill="#263238"/>
<path id="Vector_149" d="M45.69 129.723C42.8652 131.355 42.8652 134 45.69 135.632C48.5147 137.264 53.0995 137.264 55.9243 135.632C58.749 134 58.749 131.355 55.9243 129.727C53.0995 128.099 48.5192 128.095 45.69 129.723Z" fill="#6A7B76"/>
<path id="Vector_150" opacity="0.07" d="M45.69 129.723C42.8652 131.355 42.8652 134 45.69 135.632C48.5147 137.264 53.0995 137.264 55.9243 135.632C58.749 134 58.749 131.355 55.9243 129.727C53.0995 128.099 48.5192 128.095 45.69 129.723Z" fill="white"/>
<path id="Vector_151" d="M155.078 79.1538L126.056 95.9133V78.2736L155.078 61.5183V79.1538Z" fill="#3A4E48"/>
<path id="Vector_152" d="M97.0337 79.1538L126.056 95.9133V78.2736L97.0337 61.5183V79.1538Z" fill="#263238"/>
<path id="Vector_153" d="M155.078 61.5183L126.056 44.7632L97.0337 61.5183L126.056 78.2735L155.078 61.5183Z" fill="#6A7B76"/>
<path id="Vector_154" d="M131.16 64.7965C132.572 65.615 133.276 66.684 133.276 67.749V70.6C133.276 71.6693 132.572 72.7385 131.16 73.5568C129.586 74.3932 127.825 74.8142 126.043 74.78V63.56C127.826 63.5298 129.587 63.9554 131.16 64.7965Z" fill="#3A4E48"/>
<path id="Vector_155" d="M120.939 64.7965C119.526 65.615 118.822 66.684 118.822 67.749V70.6C118.822 71.6693 119.526 72.7385 120.939 73.5568C122.513 74.3932 124.274 74.8142 126.056 74.78V63.56C124.273 63.5299 122.511 63.9555 120.939 64.7965Z" fill="#263238"/>
<path id="Vector_156" d="M120.939 64.7965C118.114 66.429 118.114 69.0732 120.939 70.7057C123.764 72.3382 128.344 72.3337 131.173 70.7057C134.002 69.0777 133.998 66.429 131.173 64.7965C128.348 63.164 123.764 63.1683 120.939 64.7965Z" fill="#6A7B76"/>
<path id="Vector_157" opacity="0.07" d="M120.939 64.7965C118.114 66.429 118.114 69.0732 120.939 70.7057C123.764 72.3382 128.344 72.3337 131.173 70.7057C134.002 69.0777 133.998 66.429 131.173 64.7965C128.348 63.164 123.764 63.1683 120.939 64.7965Z" fill="white"/>
<path id="Vector_158" d="M131.16 48.4548C132.572 49.2688 133.276 50.338 133.276 51.4073V54.263C133.276 55.3322 132.572 56.4015 131.16 57.2155C129.586 58.0519 127.825 58.4729 126.043 58.4387V47.2319C127.825 47.1953 129.587 47.6163 131.16 48.4548Z" fill="#3A4E48"/>
<path id="Vector_159" d="M120.939 48.4548C119.526 49.2688 118.822 50.338 118.822 51.4073V54.263C118.822 55.3322 119.526 56.4015 120.939 57.2155C122.513 58.0519 124.274 58.4729 126.056 58.4387V47.2319C124.274 47.1953 122.512 47.6163 120.939 48.4548Z" fill="#263238"/>
<path id="Vector_160" d="M120.939 48.4548C118.114 50.0828 118.114 52.7273 120.939 54.3596C123.764 55.9918 128.344 55.9921 131.173 54.3596C134.002 52.7271 133.998 50.0828 131.173 48.4548C128.348 46.8268 123.764 46.8401 120.939 48.4548Z" fill="#6A7B76"/>
<path id="Vector_161" opacity="0.07" d="M120.939 48.4548C118.114 50.0828 118.114 52.7273 120.939 54.3596C123.764 55.9918 128.344 55.9921 131.173 54.3596C134.002 52.7271 133.998 50.0828 131.173 48.4548C128.348 46.8268 123.764 46.8401 120.939 48.4548Z" fill="white"/>
<path id="Vector_162" d="M145.319 56.6256C146.732 57.444 147.44 58.5088 147.44 59.578V62.4338C147.44 63.503 146.732 64.5722 145.319 65.3862C143.748 66.2247 141.987 66.6458 140.206 66.6093V55.4025C141.987 55.3681 143.747 55.7891 145.319 56.6256Z" fill="#3A4E48"/>
<path id="Vector_163" d="M135.089 56.6255C133.677 57.444 132.973 58.5088 132.973 59.578V62.4338C132.973 63.503 133.677 64.5722 135.089 65.3862C136.662 66.2246 138.424 66.6457 140.206 66.6093V55.4025C138.424 55.3682 136.663 55.7892 135.089 56.6255Z" fill="#263238"/>
<path id="Vector_164" d="M135.089 56.6255C132.264 58.258 132.264 60.9023 135.089 62.5348C137.914 64.1672 142.494 64.1628 145.319 62.5348C148.144 60.9068 148.148 58.258 145.319 56.6255C142.49 54.9932 137.914 54.9932 135.089 56.6255Z" fill="#6A7B76"/>
<path id="Vector_165" opacity="0.07" d="M135.089 56.6255C132.264 58.258 132.264 60.9023 135.089 62.5348C137.914 64.1672 142.494 64.1628 145.319 62.5348C148.144 60.9068 148.148 58.258 145.319 56.6255C142.49 54.9932 137.914 54.9932 135.089 56.6255Z" fill="white"/>
<path id="Vector_166" d="M117.023 56.6213C118.435 57.4353 119.139 58.5045 119.139 59.5738V62.4295C119.139 63.4987 118.435 64.568 117.023 65.3818C115.45 66.2202 113.688 66.6414 111.906 66.605V55.3982C113.688 55.3639 115.449 55.7848 117.023 56.6213Z" fill="#3A4E48"/>
<path id="Vector_167" d="M106.788 56.6212C105.376 57.4352 104.672 58.5045 104.672 59.5737V62.4294C104.672 63.4987 105.376 64.5679 106.788 65.3817C108.362 66.2202 110.123 66.6414 111.906 66.6049V55.3982C110.124 55.3638 108.362 55.7848 106.788 56.6212Z" fill="#263238"/>
<path id="Vector_168" d="M106.788 56.6212C103.964 58.2537 103.964 60.898 106.788 62.526C109.613 64.154 114.198 64.1583 117.023 62.526C119.848 60.8935 119.848 58.249 117.023 56.6168C114.198 54.9845 109.6 54.9888 106.788 56.6212Z" fill="#6A7B76"/>
<path id="Vector_169" opacity="0.07" d="M106.788 56.6212C103.964 58.2537 103.964 60.898 106.788 62.526C109.613 64.154 114.198 64.1583 117.023 62.526C119.848 60.8935 119.848 58.249 117.023 56.6168C114.198 54.9845 109.6 54.9888 106.788 56.6212Z" fill="white"/>
<path id="Vector_170" d="M145.214 23.6213L147.854 25.1437C147.84 25.0283 147.832 24.9122 147.832 24.796V24.0305C147.832 22.671 148.786 22.1165 149.966 22.7985C150.474 23.1098 150.909 23.5269 151.242 24.0215C151.435 22.31 152.777 21.672 154.41 22.6135C155.338 23.2204 156.111 24.0373 156.665 24.9981C157.219 25.9589 157.539 27.0367 157.6 28.1443V29.2883C157.61 29.7428 157.518 30.1938 157.331 30.6083L159.531 31.8755C159.876 32.1 160.163 32.4027 160.369 32.759C160.575 33.1153 160.693 33.5152 160.715 33.926C160.715 34.6783 160.183 34.9863 159.531 34.608L145.214 26.3535C144.868 26.1296 144.581 25.827 144.375 25.4707C144.169 25.1143 144.051 24.7142 144.03 24.3033C144.03 23.5508 144.558 23.2428 145.214 23.6213Z" fill="#E9F2FC"/>
<path id="Vector_171" d="M162.673 16.6077L164.129 17.1665V13.9588C164.129 11.4113 166.157 10.804 168.362 12.0755C170.562 13.3471 172.348 16.4403 172.348 18.9835V19.45C172.658 19.3539 172.986 19.3297 173.307 19.3793C173.628 19.4288 173.934 19.5508 174.201 19.736C175.036 20.281 175.731 21.0152 176.229 21.8791C176.728 22.7429 177.015 23.7121 177.069 24.708V24.9193L179.12 26.094C179.67 26.4526 180.128 26.9359 180.457 27.5046C180.786 28.0734 180.976 28.7116 181.012 29.3675C181.012 30.5731 180.162 31.0615 179.12 30.4588L162.673 20.9723C162.122 20.6143 161.663 20.1311 161.334 19.5623C161.005 18.9934 160.816 18.3549 160.781 17.6988C160.781 16.48 161.626 16.0048 162.673 16.6077Z" fill="#E9F2FC"/>
<path id="Vector_172" d="M39.1999 17.3863H37.4134C32.5971 17.3936 28.6868 13.4951 28.6794 8.67877V8.66553C28.677 3.6475 32.7429 -0.422503 37.7612 -0.424744H38.8259C43.8448 -0.422299 47.9119 3.64689 47.9119 8.66553C47.9119 13.4784 44.0128 17.3816 39.1999 17.3863Z" fill="#263238"/>
<path id="Vector_173" d="M27.4784 13.6245C28.9919 12.1725 30.7564 13.0042 32.3184 14.6233C33.8804 16.2423 34.6329 18.042 33.1192 19.494C31.6057 20.946 29.1197 20.814 27.5619 19.1903C26.0042 17.5668 25.9647 15.0765 27.4784 13.6245Z" fill="#263238"/>
<path id="Vector_174" d="M48.5764 26.4593C50.6839 30.0277 53.2272 34.3485 54.6529 35.8355C57.3589 37.094 63.5452 39.448 66.0312 39.7955C66.4696 39.8491 66.9127 39.7446 67.2809 39.5008C68.2577 38.8583 69.0146 38.7573 70.0484 38.4008C70.8537 38.1193 71.1969 37.7363 71.3684 37.8815C71.5235 38.0644 71.6011 38.3005 71.5846 38.5397C71.5681 38.7789 71.4589 39.0022 71.2802 39.162C70.894 39.5295 70.4657 39.85 70.0042 40.117C71.1076 40.3892 72.2582 40.4088 73.3702 40.1742C75.5262 39.611 76.5425 40.645 75.0862 42.9815C74.5627 43.8217 72.5122 45.1595 68.3499 44.7987C66.8667 44.7138 65.39 44.5389 63.9279 44.275C59.937 43.4259 55.6735 42.1807 52.9279 41.3622C51.9177 40.9633 51.014 40.3352 50.2879 39.5275C45.6987 34.2957 43.4459 29.6627 41.4352 26.2747L41.6067 20.7395C44.8495 20.616 46.8119 23.4715 48.5764 26.4593Z" fill="#FFA8A7"/>
<path id="Vector_175" d="M26.9547 109.408C26.7403 110.606 26.6255 111.821 26.6114 113.038C26.5674 115.238 26.1714 116.021 26.1099 117.83C26.0484 119.893 26.4047 120.668 27.2452 121.829C28.0856 122.991 30.2812 124.029 31.2052 122.08C32.1292 120.131 32.0149 118.833 31.7199 116.8C31.425 114.767 31.3722 113.548 31.1964 111.96C31.0379 110.552 30.8487 109.483 30.8487 109.483L26.9547 109.408Z" fill="#263238"/>
<path id="Vector_176" d="M33.2071 92.0898L25.9514 91.9578C26.0614 96.798 26.8314 104.863 26.9547 109.408C26.9547 110.266 26.9547 116.057 27.2584 117.817C27.7424 120.457 30.8796 120.105 31.0469 118.521C31.2141 116.937 30.8399 110.2 30.8399 109.479C30.8136 106.566 32.1599 98.958 32.8947 93.7265C32.9431 93.48 33.1719 92.3405 33.2071 92.0898Z" fill="#FFA8A7"/>
<path id="Vector_177" d="M43.8684 105.642C43.8684 105.642 43.4944 105.664 43.4284 105.967C43.3624 106.271 43.3404 106.905 43.1907 107.503C42.9431 108.439 42.8554 109.411 42.9312 110.376C43.0544 111.049 44.5989 112.057 45.6549 112.237C46.7109 112.418 48.2024 113.456 49.0296 114.235C50.3571 115.333 52.0002 115.979 53.7199 116.078C55.4799 116.078 56.7119 115.493 57.2927 114.547C57.8736 113.601 56.7604 113.491 54.7496 112.184L53.1832 111.168C49.9932 109.082 48.8227 107.965 47.9032 105.888L43.8684 105.642Z" fill="#263238"/>
<path id="Vector_178" d="M47.956 104.348C47.9032 102.852 48.9327 87.4432 48.9327 87.4432L42.0422 90.5848C43.5162 99.3848 44.0267 104.313 43.855 105.593C43.8259 105.714 43.8126 105.838 43.8155 105.963C43.8155 107.674 45.7558 108.603 47.2607 109.738C47.8547 110.178 49.386 111.577 51.1767 112.184C52.3384 112.58 54.481 112.73 54.754 112.026C52.9235 110.627 50.4287 108.796 48.968 107.186C48.2727 106.438 48 105.848 47.956 104.348Z" fill="#FFA8A7"/>
<path id="Vector_179" d="M28.9259 44.838C26.2859 50.646 26.2859 55.1383 26.7259 62.548C27.1264 69.346 27.7644 75.3345 27.7644 75.3345C27.6632 76.54 26.0044 78.8942 25.7712 84.2268C25.6874 88.0025 25.802 91.78 26.1144 95.5437C26.1144 95.5437 29.8764 97.6293 32.6616 95.5437C32.6616 95.5437 35.3456 82.7222 36.1332 76.483C36.8196 71.0357 38.7424 59.7235 38.7424 59.7235L41.8839 76.4435C41.3378 78.1974 40.9418 79.9947 40.7002 81.8157C40.3437 85.4855 42.3942 92.6927 42.3942 92.6927C42.3942 92.6927 46.2839 93.8542 48.6599 91.7467C48.6599 91.7467 49.5399 80.0295 49.8787 75.6119C50.3187 69.6895 49.3154 53.4975 47.9604 45.1902L28.9259 44.838Z" fill="#263238"/>
<path id="Vector_180" d="M38.7335 59.7055L39.5388 54.166C39.5388 54.166 44.2203 53.5412 46.3412 51.526C45.734 52.4768 44.9248 53.2823 43.9713 53.8853C43.0177 54.4883 41.9431 54.874 40.8237 55.015L39.9965 60.0398L41.431 74.5598L38.7335 59.7055Z" fill="#263238"/>
<path id="blusa1" d="M34.5887 20.9153C33.1895 21.012 31.3767 21.298 31.3767 21.298C29.9072 22.1208 29.1767 23.6168 29.1767 25.3635C29.1767 27.2733 28.1119 28.3423 28.6927 31.4883L30.985 37.2083C30.875 38.6383 29.159 41.9998 28.1777 46.6595C33.7835 49.7878 40.9377 49.0575 44.8977 47.3635C46.0878 46.906 47.146 46.1607 47.9777 45.1943C47.3265 41.7623 47.0977 41.8063 46.737 38.6691C46.5598 37.4026 46.4892 36.1236 46.5257 34.8453C48.321 32.5353 49.28 30.2738 48.3737 28.1969C46.5257 23.9816 43.0717 20.5893 41.2942 20.7169L34.5887 20.9153Z" fill="#FFEFD3"/>
<path id="Vector_181" opacity="0.1" d="M42.5835 34.6168C42.5835 34.6168 40.0228 36.6055 37.1013 35.5673C36.281 35.3074 35.5416 34.8404 34.9543 34.2116C34.367 33.5827 33.9517 32.8131 33.7485 31.977C33.7485 31.977 33.4405 35.3165 37.1277 36.4562C38.1142 36.7741 39.1767 36.767 40.1589 36.4359C41.141 36.1047 41.9909 35.4671 42.5835 34.6168Z" fill="black"/>
<path id="Vector_182" d="M44.3434 3.66278C45.3599 4.26554 46.6182 6.81754 46.4952 12.1723C46.3894 16.7131 44.9156 17.8351 44.1764 18.1563C43.4372 18.4775 42.0161 18.2838 40.6299 18.0551V20.7788C40.6299 20.7788 42.2272 22.4508 42.1039 23.7003C41.9807 24.9498 39.6002 25.0908 37.805 23.8675C36.7177 23.1244 35.7478 22.2226 34.9274 21.1923V14.4383C34.9274 14.4383 34.1707 15.2435 32.8287 14.3195C31.6775 13.5895 31.3361 12.0641 32.0664 10.913C32.1066 10.8499 32.1493 10.7885 32.195 10.7293C32.7759 10.0428 34.2585 9.9945 34.9714 11.0593C34.9714 11.0593 36.8327 10.8965 39.7762 9.29926C40.8706 8.70609 41.8373 7.90295 42.621 6.93577C43.4047 5.9686 43.99 4.85639 44.3434 3.66278Z" fill="#FFA8A7"/>
<path id="Vector_183" d="M44.9199 3.6583C44.9199 3.6583 46.0904 6.43478 42.9047 8.72278C42.9047 8.72278 44.5724 6.72954 43.9694 4.22602C43.4722 2.1405 44.8144 2.68602 44.9199 3.6583Z" fill="#263238"/>
<path id="Vector_184" d="M40.916 11.0328C40.9244 11.185 40.8722 11.3344 40.7707 11.4482C40.6693 11.562 40.5269 11.631 40.3747 11.64C40.221 11.6436 40.072 11.5866 39.96 11.4811C39.848 11.3757 39.782 11.2305 39.7763 11.0768C39.7668 10.9989 39.7735 10.9198 39.7959 10.8446C39.8184 10.7693 39.856 10.6995 39.9066 10.6394C39.9572 10.5794 40.0196 10.5304 40.09 10.4955C40.1603 10.4606 40.2371 10.4406 40.3155 10.4367C40.3939 10.4328 40.4723 10.445 40.5458 10.4727C40.6193 10.5004 40.6862 10.5429 40.7426 10.5976C40.7989 10.6523 40.8434 10.718 40.8732 10.7906C40.903 10.8633 40.9176 10.9413 40.916 11.0198V11.0328Z" fill="#263238"/>
<path id="Vector_185" d="M41.5759 14.8828L42.8959 15.3228C42.8725 15.4137 42.8305 15.4987 42.7726 15.5727C42.7148 15.6466 42.6423 15.7078 42.5596 15.7524C42.477 15.797 42.3861 15.8241 42.2925 15.8319C42.199 15.8398 42.1048 15.8282 42.0159 15.798C41.8375 15.7332 41.6915 15.6012 41.6093 15.4301C41.527 15.259 41.5151 15.0625 41.5759 14.8828Z" fill="#F28F8F"/>
<path id="Vector_186" d="M45.976 9.28152L44.8232 8.48076C44.8714 8.4027 44.935 8.3353 45.0101 8.28269C45.0852 8.23009 45.1703 8.19339 45.2602 8.17485C45.35 8.15631 45.4426 8.15632 45.5325 8.17487C45.6223 8.19343 45.7074 8.23014 45.7825 8.28276C45.9356 8.39347 46.0409 8.55834 46.0768 8.74386C46.1127 8.92938 46.0767 9.12162 45.976 9.28152Z" fill="#263238"/>
<path id="Vector_187" d="M45.712 10.6235C45.7128 10.7355 45.6806 10.8453 45.6196 10.9392C45.5585 11.0332 45.4712 11.1071 45.3685 11.1519C45.2659 11.1967 45.1523 11.2103 45.0419 11.1911C44.9315 11.172 44.8292 11.1208 44.7477 11.0441C44.6661 10.9673 44.6088 10.8682 44.583 10.7592C44.5572 10.6502 44.564 10.536 44.6024 10.4308C44.6409 10.3256 44.7094 10.234 44.7995 10.1674C44.8896 10.1008 44.9972 10.062 45.1091 10.056C45.264 10.0524 45.4141 10.1099 45.5269 10.2161C45.6397 10.3223 45.7062 10.4687 45.712 10.6235Z" fill="#263238"/>
<path id="Vector_188" d="M42.5439 10.2938L42.6319 13.73L44.4402 13.1713L42.5439 10.2938Z" fill="#F28F8F"/>
<path id="Vector_189" d="M40.6299 18.0553C39.1692 17.8618 36.1639 16.9993 35.6976 15.8113C35.8847 16.4129 36.2517 16.9427 36.7492 17.3293C37.6292 18.095 40.6299 18.9618 40.6299 18.9618V18.0553Z" fill="#F28F8F"/>
<path id="Vector_190" d="M90.1475 65.5575L61.1252 82.3172V64.6775L90.1475 47.9225V65.5575Z" fill="#D0665F"/>
<path id="Vector_191" opacity="0.3" d="M90.1475 65.5575L61.1252 82.3172V64.6775L90.1475 47.9225V65.5575Z" fill="black"/>
<path id="Vector_192" d="M32.1027 65.5575L61.1251 82.3172V64.6775L32.1027 47.9225V65.5575Z" fill="#D0665F"/>
<path id="Vector_193" opacity="0.4" d="M32.1027 65.5575L61.1251 82.3172V64.6775L32.1027 47.9225V65.5575Z" fill="black"/>
<path id="Vector_194" opacity="0.1" d="M37.3651 58.6188L35.8076 57.0613C35.5876 56.8456 35.3456 56.652 35.1344 56.4188C35.0551 56.3353 34.6504 55.8643 34.7779 55.7368C34.7929 55.7256 34.8101 55.7179 34.8283 55.7141C34.8466 55.7103 34.8655 55.7105 34.8836 55.7148C35.5744 55.7853 36.4499 55.7543 36.9339 55.1736C37.0179 55.0769 37.0755 54.9602 37.1011 54.8348C37.1156 54.7427 37.0952 54.6486 37.0439 54.5708C36.9427 54.4213 36.6789 54.4213 36.5159 54.3728C36.3091 54.3098 36.1099 54.2242 35.9219 54.1176C35.5982 53.9446 35.2613 53.7975 34.9144 53.6776L33.5329 53.3828C33.3331 53.2245 33.1036 53.1079 32.8579 53.0399C32.6122 52.9719 32.3554 52.9538 32.1027 52.9868V60.8673C32.6738 61.1864 33.3072 61.3786 33.9594 61.4305C34.8215 61.5302 35.6944 61.3885 36.4807 61.0213C37.1187 60.7045 38.1307 59.886 37.7259 59.0545C37.63 58.8908 37.5081 58.7436 37.3651 58.6188Z" fill="black"/>
<path id="Vector_195" d="M90.1474 47.9225L61.1251 31.1672L32.1027 47.9225L61.1251 64.6775L90.1474 47.9225Z" fill="#D0665F"/>
<path id="Vector_196" opacity="0.15" d="M90.1474 47.9225L61.1251 31.1672L32.1027 47.9225L61.1251 64.6775L90.1474 47.9225Z" fill="black"/>
<path id="Vector_197" d="M68.3587 37.8112C68.3587 36.742 67.6547 35.6728 66.238 34.8588C63.4132 33.2263 58.8327 33.2263 56.008 34.8588C54.5955 35.6728 53.8915 36.742 53.8915 37.8112V40.68C53.8915 41.7492 54.5955 42.814 56.008 43.6325C58.8327 45.2605 63.4132 45.265 66.238 43.6325C67.6547 42.814 68.3587 41.7448 68.3587 40.68V37.8112Z" fill="#D0665F"/>
<path id="Vector_198" opacity="0.3" d="M66.238 34.8588C67.6504 35.6728 68.3587 36.742 68.3587 37.811V40.6798C68.3587 41.749 67.6547 42.8138 66.238 43.6323C64.6656 44.4687 62.9057 44.8898 61.125 44.8555V33.64C62.9055 33.6025 64.6658 34.0221 66.238 34.8588Z" fill="black"/>
<path id="Vector_199" opacity="0.4" d="M56.0082 34.8588C54.5957 35.6728 53.8917 36.742 53.8917 37.811V40.6798C53.8917 41.749 54.5957 42.8138 56.0082 43.6323C57.582 44.4687 59.3433 44.8897 61.1252 44.8555V33.64C59.3435 33.6025 57.5818 34.0221 56.0082 34.8588Z" fill="black"/>
<path id="Vector_200" d="M56.0081 34.8588C53.1832 36.4868 53.1832 39.1313 56.0081 40.7635C58.8329 42.3958 63.4134 42.3958 66.2381 40.7635C69.0629 39.1311 69.0674 36.4866 66.2381 34.8588C63.4089 33.2308 58.8329 33.2265 56.0081 34.8588Z" fill="#D0665F"/>
<path id="Vector_201" d="M68.3587 54.1528C68.3587 53.0836 67.6547 52.0188 66.238 51.2003C63.4132 49.5678 58.8327 49.5678 56.008 51.2003C54.5955 52.0143 53.8915 53.0836 53.8915 54.1528V57.0085C53.8915 58.0778 54.5955 59.147 56.008 59.961C58.8327 61.5933 63.4132 61.5933 66.238 59.961C67.6547 59.147 68.3587 58.0778 68.3587 57.0085V54.1528Z" fill="#D0665F"/>
<path id="Vector_202" opacity="0.3" d="M66.238 51.2005C67.6504 52.0145 68.3587 53.0838 68.3587 54.153V57.0087C68.3587 58.078 67.6547 59.1472 66.238 59.9612C64.6664 60.7996 62.9059 61.2207 61.125 61.1842V49.9775C62.9057 49.9431 64.6656 50.3641 66.238 51.2005Z" fill="black"/>
<path id="Vector_203" opacity="0.4" d="M56.0082 51.2005C54.5957 52.0145 53.8917 53.0838 53.8917 54.153V57.0087C53.8917 58.078 54.5957 59.1472 56.0082 59.9612C57.5813 60.7996 59.3431 61.2207 61.1252 61.1842V49.9775C59.3433 49.9431 57.582 50.364 56.0082 51.2005Z" fill="black"/>
<path id="Vector_204" d="M56.0081 51.2005C53.1832 52.833 53.1832 55.4773 56.0081 57.1097C58.8329 58.7422 63.4134 58.7377 66.2381 57.1097C69.0629 55.4817 69.0674 52.833 66.2381 51.2005C63.4089 49.568 58.8329 49.568 56.0081 51.2005Z" fill="#D0665F"/>
<path id="Vector_205" d="M54.2085 45.96C54.2085 44.8908 53.5045 43.8216 52.092 43.0076C49.2627 41.3751 44.6825 41.3751 41.8575 43.0076C40.445 43.8216 39.7412 44.8908 39.7412 45.96V48.8158C39.7412 49.885 40.4452 50.9542 41.8575 51.7682C44.6825 53.4007 49.2627 53.4007 52.092 51.7682C53.5045 50.9542 54.2085 49.885 54.2085 48.8158V45.96Z" fill="#D0665F"/>
<path id="Vector_206" opacity="0.3" d="M52.092 43.0253C53.5045 43.8393 54.2085 44.9085 54.2085 45.9778V48.8335C54.2085 49.9027 53.5045 50.972 52.092 51.786C50.5173 52.6194 48.756 53.0373 46.9747 53.0002V41.8022C48.7567 41.7685 50.5179 42.1894 52.092 43.0253Z" fill="black"/>
<path id="Vector_207" opacity="0.4" d="M41.8399 43.0253C40.4274 43.8393 39.7236 44.9085 39.7236 45.9777V48.8335C39.7236 49.9027 40.4276 50.9719 41.8399 51.7859C43.4199 52.6222 45.1877 53.0402 46.9749 53.0002V41.8022C45.1869 41.7648 43.4191 42.1859 41.8399 43.0253Z" fill="black"/>
<path id="Vector_208" d="M41.84 43.0253C39.0152 44.6577 39.0152 47.302 41.84 48.93C44.6648 50.558 49.2452 50.5625 52.0745 48.93C54.9037 47.2975 54.8995 44.6575 52.0745 43.0253C49.2495 41.3928 44.6825 41.3928 41.84 43.0253Z" fill="#D0665F"/>
<path id="Vector_209" d="M82.5092 45.982C82.5092 44.9128 81.8007 43.8435 80.3885 43.0297C77.5637 41.3972 72.983 41.3972 70.1583 43.0297C68.7458 43.8437 68.0375 44.913 68.0418 45.982V48.8377C68.0418 49.907 68.7458 50.9762 70.1583 51.7902C72.983 53.4227 77.5637 53.4227 80.3885 51.7902C81.8009 50.9762 82.5092 49.907 82.5092 48.8377V45.982Z" fill="#D0665F"/>
<path id="Vector_210" opacity="0.3" d="M80.3884 43.0297C81.8009 43.8437 82.5091 44.913 82.5091 45.982V48.8377C82.5091 49.907 81.8007 50.9762 80.3884 51.7902C78.8167 52.6227 77.0581 53.0393 75.2799 53.0002V41.8067C77.059 41.7736 78.8172 42.1945 80.3884 43.0297Z" fill="black"/>
<path id="Vector_211" opacity="0.4" d="M70.1583 43.0298C68.7458 43.8438 68.0375 44.913 68.0418 45.982V48.8378C68.0418 49.907 68.7458 50.9762 70.1583 51.7902C71.734 52.6248 73.4974 53.0414 75.28 53.0002V41.8067C73.4964 41.7716 71.7335 42.1925 70.1583 43.0298Z" fill="black"/>
<path id="Vector_212" d="M70.1582 43.0297C67.3335 44.662 67.3335 47.3065 70.1582 48.939C72.983 50.5712 77.5637 50.567 80.3884 48.939C83.2132 47.311 83.2132 44.662 80.3884 43.0297C77.5637 41.3972 72.9832 41.3972 70.1582 43.0297Z" fill="#D0665F"/>
<path id="Vector_213" d="M19.642 38.3083C21.3007 34.6916 24.24 29.0993 25.6302 26.2568C27.6587 22.1648 29.322 21.276 32.1025 21.1923C33.198 22.1428 33.7262 25.4428 31.953 29.6756C30.4702 32.2188 25.903 40.0288 25.903 40.0288C26.123 40.6623 29.687 49.458 31.1478 51.4688C31.411 51.8218 31.7946 52.0659 32.2258 52.1551C33.3785 52.4016 34.8658 53.3123 35.825 53.7963C36.5905 54.1746 37.1143 54.1483 37.1055 54.3596C37.0726 54.6014 36.9497 54.8219 36.7612 54.9769C36.5727 55.1319 36.3326 55.21 36.089 55.1956C35.3241 55.1037 34.5668 54.9566 33.823 54.7556C34.6572 55.6303 35.5495 56.4476 36.4938 57.202C38.2538 58.5528 38.4825 59.9696 35.7193 60.5725C33.6293 61.0125 32.2873 60.0708 29.7045 56.85C28.961 55.9216 28.0633 54.4873 27.1525 53.2816C24.8602 50.25 23.6325 48.116 22.2378 46.2153C18.2472 40.856 19.0304 39.6416 19.642 38.3083Z" fill="#FFA8A7"/>
</g>
</g>
<defs>
<clipPath id="clip0_151_4253">
<rect width="206" height="199" fill="white"/>
</clipPath>
</defs>
</svg>
