<svg width="357" height="345" viewBox="0 0 357 345" fill="none" xmlns="http://www.w3.org/2000/svg">
<g clip-path="url(#clip0_744_304)">
<path d="M325.704 344.656V310.057C325.704 310.057 339.195 334.586 325.704 344.656Z" fill="#F1F1F1"/>
<path d="M326.537 344.65L301.035 321.252C301.035 321.252 328.239 327.907 326.537 344.65Z" fill="#F1F1F1"/>
<path d="M236.59 152.66L101.263 231.708C100.789 231.984 100.225 232.061 99.695 231.922C99.1647 231.783 98.7112 231.44 98.4341 230.967L11.4096 82.1573C11.1335 81.684 11.0566 81.1205 11.1957 80.5905C11.3347 80.0605 11.6785 79.6072 12.1515 79.3302L147.479 0.282029C147.953 0.00608667 148.517 -0.070822 149.047 0.0681754C149.577 0.207173 150.031 0.550726 150.308 1.02347L237.332 149.833C237.608 150.306 237.685 150.87 237.546 151.4C237.407 151.93 237.063 152.383 236.59 152.66Z" fill="white"/>
<path d="M236.59 152.66L101.263 231.708C100.789 231.984 100.225 232.061 99.695 231.922C99.1647 231.783 98.7112 231.44 98.4341 230.967L11.4096 82.1573C11.1335 81.684 11.0566 81.1205 11.1957 80.5905C11.3347 80.0605 11.6785 79.6072 12.1515 79.3302L147.479 0.282029C147.953 0.00608667 148.517 -0.070822 149.047 0.0681754C149.577 0.207173 150.031 0.550726 150.308 1.02347L237.332 149.833C237.608 150.306 237.685 150.87 237.546 151.4C237.407 151.93 237.063 152.383 236.59 152.66ZM12.5689 80.0439C12.2851 80.2101 12.0788 80.4821 11.9954 80.8001C11.9119 81.1181 11.9581 81.4562 12.1238 81.7402L99.1482 230.55C99.3145 230.833 99.5866 231.04 99.9048 231.123C100.223 231.206 100.561 231.16 100.845 230.995L236.173 151.946C236.457 151.78 236.663 151.508 236.746 151.19C236.83 150.872 236.784 150.534 236.618 150.25L149.594 1.44058C149.427 1.15693 149.155 0.950782 148.837 0.867382C148.519 0.783982 148.181 0.830135 147.896 0.995719L12.5689 80.0439Z" fill="#6A7B76"/>
<path d="M99.5577 94.8632L65.9936 114.469C65.52 114.745 64.9561 114.822 64.4258 114.683C63.8955 114.544 63.442 114.2 63.1648 113.727L43.5478 80.1828C43.2717 79.7094 43.1948 79.1459 43.3338 78.6159C43.4729 78.0859 43.8167 77.6327 44.2897 77.3557L77.8538 57.75C78.3274 57.4741 78.8912 57.3972 79.4215 57.5362C79.9519 57.6752 80.4053 58.0187 80.6825 58.4915L100.3 92.0361C100.576 92.5094 100.653 93.073 100.514 93.603C100.374 94.133 100.031 94.5862 99.5577 94.8632ZM44.7071 78.0694C44.4233 78.2356 44.217 78.5075 44.1335 78.8255C44.0501 79.1435 44.0963 79.4816 44.262 79.7657L63.879 113.31C64.0453 113.594 64.3174 113.8 64.6356 113.883C64.9538 113.967 65.2921 113.921 65.5762 113.755L99.1403 94.1495C99.4241 93.9833 99.6304 93.7114 99.7139 93.3933C99.7973 93.0753 99.7511 92.7372 99.5854 92.4532L79.9684 58.9086C79.8021 58.625 79.53 58.4188 79.2118 58.3354C78.8936 58.252 78.5553 58.2982 78.2712 58.4638L44.7071 78.0694Z" fill="#F2F2F2"/>
<path d="M92.317 104.598L58.7529 124.204C58.3266 124.452 57.8192 124.522 57.3419 124.397C56.8646 124.271 56.4564 123.962 56.207 123.537L36.59 89.9922C36.3415 89.5661 36.2722 89.059 36.3974 88.582C36.5226 88.105 36.8319 87.6971 37.2576 87.4478L70.8217 67.8421C71.248 67.5938 71.7555 67.5246 72.2327 67.6497C72.71 67.7748 73.1182 68.084 73.3676 68.5094L92.9846 102.054C93.2331 102.48 93.3024 102.987 93.1772 103.464C93.0521 103.941 92.7427 104.349 92.317 104.598Z" fill="#263238"/>
<path d="M173.33 79.2998L68.353 140.62C67.9268 140.868 67.4192 140.938 66.9417 140.813C66.4643 140.688 66.0561 140.378 65.8071 139.952C65.558 139.526 65.4884 139.019 65.6136 138.542C65.7388 138.065 66.0486 137.657 66.4747 137.408L171.452 76.0881C171.663 75.9648 171.896 75.8843 172.138 75.8512C172.38 75.818 172.627 75.8328 172.863 75.8948C173.099 75.9567 173.321 76.0646 173.516 76.2123C173.711 76.36 173.874 76.5445 173.998 76.7554C174.121 76.9663 174.202 77.1994 174.235 77.4414C174.268 77.6834 174.253 77.9295 174.191 78.1658C174.129 78.4021 174.021 78.6238 173.873 78.8184C173.726 79.013 173.541 79.1766 173.33 79.2998Z" fill="#CCCCCC"/>
<path d="M154.448 105.171L74.8222 151.682C74.6112 151.805 74.378 151.886 74.1358 151.919C73.8937 151.952 73.6474 151.937 73.411 151.875C72.9335 151.75 72.5254 151.441 72.2763 151.015C72.0272 150.589 71.9576 150.082 72.0829 149.604C72.2081 149.127 72.5178 148.719 72.944 148.47L152.569 101.959C152.78 101.836 153.014 101.755 153.256 101.722C153.498 101.689 153.744 101.704 153.981 101.766C154.217 101.828 154.439 101.936 154.634 102.083C154.828 102.231 154.992 102.416 155.115 102.626C155.239 102.837 155.319 103.07 155.352 103.312C155.386 103.554 155.371 103.801 155.309 104.037C155.247 104.273 155.139 104.495 154.991 104.689C154.843 104.884 154.659 105.048 154.448 105.171Z" fill="#CCCCCC"/>
<path d="M149.182 38.8266L102.764 65.9408C102.337 66.1897 101.83 66.2592 101.352 66.1341C100.875 66.0089 100.467 65.6994 100.218 65.2735C99.9686 64.8476 99.899 64.3402 100.024 63.8631C100.149 63.3859 100.459 62.978 100.885 62.729L147.304 35.6149C147.73 35.366 148.238 35.2964 148.715 35.4216C148.951 35.4835 149.173 35.5914 149.368 35.7391C149.563 35.8867 149.726 36.0713 149.85 36.2822C149.973 36.4931 150.054 36.7262 150.087 36.9682C150.12 37.2102 150.105 37.4563 150.043 37.6926C149.981 37.9289 149.873 38.1506 149.725 38.3452C149.578 38.5398 149.393 38.7033 149.182 38.8266Z" fill="#CCCCCC"/>
<path d="M144.067 56.656L109.233 77.0034C109.022 77.1266 108.789 77.2072 108.546 77.2403C108.304 77.2735 108.058 77.2587 107.822 77.1967C107.585 77.1347 107.363 77.0269 107.169 76.8792C106.974 76.7315 106.81 76.547 106.687 76.3361C106.564 76.1252 106.483 75.8921 106.45 75.6501C106.417 75.4081 106.431 75.162 106.493 74.9257C106.555 74.6894 106.663 74.4677 106.811 74.2731C106.959 74.0785 107.144 73.9149 107.355 73.7917L142.189 53.4443C142.615 53.1954 143.122 53.1258 143.6 53.251C144.077 53.3761 144.485 53.6857 144.734 54.1116C144.984 54.5375 145.053 55.0448 144.928 55.522C144.803 55.9992 144.493 56.4071 144.067 56.656Z" fill="#CCCCCC"/>
<path d="M186.269 101.425L81.2919 162.745C80.8658 162.994 80.3581 163.063 79.8807 162.938C79.4032 162.813 78.9951 162.503 78.746 162.077C78.4969 161.651 78.4274 161.144 78.5526 160.667C78.6778 160.19 78.9875 159.782 79.4137 159.533L184.391 98.2132C184.817 97.9643 185.324 97.8948 185.802 98.0199C186.279 98.145 186.688 98.4546 186.937 98.8805C187.186 99.3064 187.255 99.8138 187.13 100.291C187.005 100.768 186.695 101.176 186.269 101.425Z" fill="#CCCCCC"/>
<path d="M167.387 127.296L87.7612 173.807C87.5501 173.931 87.3169 174.011 87.0748 174.044C86.8326 174.077 86.5863 174.063 86.3499 174.001C86.1135 173.939 85.8916 173.831 85.6969 173.683C85.5023 173.535 85.3386 173.351 85.2152 173.14C85.0919 172.929 85.0114 172.696 84.9782 172.454C84.945 172.212 84.9598 171.966 85.0218 171.73C85.0838 171.493 85.1918 171.272 85.3395 171.077C85.4873 170.882 85.6719 170.719 85.8829 170.596L165.508 124.084C165.719 123.961 165.953 123.881 166.195 123.847C166.437 123.814 166.683 123.829 166.92 123.891C167.156 123.953 167.378 124.061 167.573 124.209C167.767 124.356 167.931 124.541 168.054 124.752C168.178 124.963 168.258 125.196 168.291 125.438C168.325 125.68 168.31 125.926 168.248 126.162C168.186 126.398 168.078 126.62 167.93 126.815C167.782 127.009 167.598 127.173 167.387 127.296Z" fill="#CCCCCC"/>
<path d="M199.207 123.55L94.2304 184.87C94.0194 184.993 93.7862 185.074 93.544 185.107C93.3019 185.14 93.0556 185.125 92.8192 185.063C92.5828 185.001 92.3609 184.893 92.1662 184.746C91.9715 184.598 91.8078 184.413 91.6845 184.203C91.5612 183.992 91.4806 183.759 91.4474 183.517C91.4142 183.275 91.4291 183.028 91.4911 182.792C91.5531 182.556 91.661 182.334 91.8088 182.14C91.9565 181.945 92.1412 181.781 92.3522 181.658L197.329 120.338C197.54 120.215 197.773 120.135 198.016 120.101C198.258 120.068 198.504 120.083 198.74 120.145C198.977 120.207 199.199 120.315 199.393 120.463C199.588 120.61 199.752 120.795 199.875 121.006C199.998 121.217 200.079 121.45 200.112 121.692C200.145 121.934 200.131 122.18 200.069 122.416C200.007 122.652 199.899 122.874 199.751 123.069C199.603 123.263 199.418 123.427 199.207 123.55Z" fill="#CCCCCC"/>
<path d="M205.677 134.613L100.7 195.932C100.489 196.056 100.256 196.136 100.014 196.169C99.7716 196.202 99.5253 196.188 99.2889 196.126C99.0525 196.064 98.8306 195.956 98.6359 195.808C98.4412 195.661 98.2775 195.476 98.1542 195.265C98.0309 195.054 97.9503 194.821 97.9171 194.579C97.884 194.337 97.8988 194.091 97.9608 193.855C98.0228 193.618 98.1307 193.397 98.2785 193.202C98.4262 193.007 98.6109 192.844 98.8219 192.721L203.799 131.401C204.01 131.278 204.243 131.197 204.485 131.164C204.727 131.131 204.974 131.146 205.21 131.208C205.447 131.27 205.668 131.377 205.863 131.525C206.058 131.673 206.221 131.857 206.345 132.068C206.468 132.279 206.549 132.512 206.582 132.754C206.615 132.996 206.6 133.242 206.538 133.479C206.476 133.715 206.368 133.937 206.221 134.131C206.073 134.326 205.888 134.489 205.677 134.613Z" fill="#CCCCCC"/>
<path d="M171.729 177.678C173.188 175.961 174.501 174.126 175.654 172.192C176.689 170.447 177.704 168.581 177.932 166.534C178.048 165.663 177.957 164.776 177.666 163.946C177.376 163.116 176.893 162.367 176.257 161.758C175.643 161.193 174.865 160.837 174.035 160.743C173.205 160.648 172.367 160.82 171.641 161.234C170.907 161.655 170.3 162.267 169.886 163.004C169.471 163.742 169.263 164.578 169.285 165.424C169.345 166.355 169.614 167.261 170.073 168.073C170.531 168.886 171.168 169.585 171.934 170.117C175.037 172.364 179.883 172.247 183.19 170.537C186.915 168.611 188.84 163.573 185.914 160.124C185.305 159.406 184.292 160.208 184.444 160.982C184.638 162.027 185.223 162.959 186.081 163.587C186.939 164.216 188.004 164.493 189.06 164.363C190.116 164.232 191.082 163.704 191.761 162.886C192.44 162.068 192.78 161.021 192.713 159.96L191.398 160.729C193.011 161.443 194.783 161.72 196.537 161.532C198.291 161.344 199.965 160.697 201.389 159.658C202.094 159.146 202.723 158.538 203.259 157.852C203.903 157.012 204.985 156.469 205.861 155.865L212.173 151.506C213.102 150.864 212.219 149.336 211.283 149.983L205.566 153.931C204.613 154.589 203.654 155.238 202.707 155.905C202.031 156.381 201.614 157.15 200.998 157.715C199.832 158.764 198.392 159.459 196.845 159.72C195.299 159.982 193.71 159.799 192.264 159.192C192.129 159.12 191.978 159.083 191.825 159.086C191.672 159.088 191.522 159.13 191.39 159.207C191.258 159.285 191.148 159.394 191.071 159.526C190.993 159.658 190.951 159.808 190.948 159.96C191.018 160.593 190.835 161.228 190.438 161.727C190.041 162.225 189.464 162.547 188.831 162.622C188.198 162.697 187.561 162.519 187.059 162.127C186.557 161.735 186.231 161.16 186.15 160.528L184.681 161.387C186.569 163.612 185.312 167.024 183.137 168.517C180.704 170.187 177.11 170.476 174.369 169.439C173.696 169.207 173.078 168.84 172.554 168.359C172.03 167.879 171.611 167.295 171.323 166.646C171.055 166.058 170.979 165.402 171.105 164.77C171.23 164.137 171.551 163.56 172.022 163.119C172.43 162.716 172.979 162.487 173.553 162.481C174.127 162.475 174.681 162.692 175.098 163.086C175.552 163.55 175.885 164.117 176.068 164.739C176.251 165.361 176.278 166.019 176.146 166.654C175.863 168.421 174.886 170.05 173.977 171.56C172.939 173.279 171.765 174.913 170.466 176.446C169.738 177.307 170.994 178.548 171.729 177.678Z" fill="#263238"/>
<path d="M187.397 219.614C187.549 219.77 187.689 219.938 187.815 220.116L207.363 219.638L209.643 215.474L216.382 218.092L213.062 225.857C212.794 226.484 212.329 227.008 211.738 227.348C211.147 227.689 210.461 227.83 209.783 227.748L187.697 225.081C187.176 225.74 186.467 226.225 185.663 226.472C184.86 226.718 184 226.714 183.199 226.46C182.398 226.207 181.693 225.715 181.178 225.051C180.663 224.387 180.363 223.582 180.317 222.744C180.271 221.905 180.481 221.072 180.92 220.356C181.36 219.64 182.007 219.074 182.775 218.734C183.544 218.394 184.398 218.297 185.223 218.454C186.049 218.611 186.807 219.015 187.397 219.614Z" fill="#FFB7B7"/>
<path d="M251.122 338.262H244.694L241.636 313.484L251.123 313.485L251.122 338.262Z" fill="#FFB7B7"/>
<path d="M252.761 344.49L232.036 344.489V344.227C232.036 342.089 232.886 340.038 234.399 338.526C235.911 337.014 237.963 336.165 240.102 336.165H240.103L252.761 336.165L252.761 344.49Z" fill="#263238"/>
<path d="M192.757 338.12L186.847 335.596L193.774 311.61L202.497 315.334L192.757 338.12Z" fill="#FFB7B7"/>
<path d="M191.817 344.49L172.758 336.352L172.861 336.111C173.702 334.145 175.289 332.593 177.275 331.797C179.26 331 181.481 331.025 183.448 331.864L183.449 331.865L195.089 336.835L191.817 344.49Z" fill="#263238"/>
<path d="M219.879 224.981L219.414 232.509L233.001 233.962L247.217 235.482L243.032 224.052L219.879 224.981Z" fill="#FFB7B7"/>
<path d="M218.987 232.606L213.708 195.832L222.857 192.836L225.544 189.153L238.619 189.926L240.539 194.224L247.511 197.516L246.439 217.404L247.221 234.04L218.987 232.606Z" fill="#263238"/>
<path d="M215.665 222.751L206.359 219.03L206.399 218.865C206.439 218.698 210.399 202.157 210.925 199.499C211.473 196.73 213.474 195.965 213.559 195.933L213.622 195.911L217.304 197.031L218.921 209.731L215.665 222.751Z" fill="#263238"/>
<path d="M197.544 333.765L185.158 331.226L204.955 276.629L211.731 258.007C211.731 258.007 216.028 243.075 217.97 237.297L219.142 229.544L246.88 232.613C246.88 232.613 254.627 243.984 252.273 262.517L253.338 332.178L240.951 332.813L230.576 262.556L212.366 301.07C212.366 301.07 206.627 317.506 202.52 321.068L197.544 333.765Z" fill="#263238"/>
<path d="M235.756 235.198C235.974 235.193 236.192 235.205 236.408 235.234L249.349 220.583L247.843 216.08L254.346 212.922L257.786 220.634C258.064 221.257 258.132 221.954 257.98 222.619C257.829 223.284 257.465 223.882 256.944 224.323L239.972 238.696C240.101 239.526 239.975 240.376 239.609 241.132C239.243 241.888 238.656 242.516 237.925 242.93C237.194 243.345 236.354 243.527 235.517 243.453C234.68 243.379 233.885 243.052 233.238 242.516C232.592 241.979 232.124 241.259 231.897 240.45C231.67 239.641 231.695 238.782 231.968 237.988C232.241 237.194 232.75 236.501 233.427 236.003C234.103 235.505 234.916 235.224 235.756 235.198Z" fill="#FFB7B7"/>
<path d="M248.316 222.009L242.918 209.319L245.023 200.48L247.292 197.615C247.458 197.544 247.637 197.509 247.818 197.51C247.998 197.512 248.177 197.551 248.342 197.625C249.178 197.962 249.891 198.993 250.459 200.691L255.518 215.092L248.316 222.009Z" fill="#263238"/>
<path d="M220.31 184.451V174.884C220.31 171.484 221.662 168.223 224.067 165.819C226.473 163.415 229.735 162.064 233.137 162.064C236.539 162.064 239.802 163.415 242.208 165.819C244.613 168.223 245.965 171.484 245.965 174.884V184.451C245.964 184.907 245.782 185.345 245.459 185.668C245.136 185.991 244.698 186.172 244.242 186.173H222.033C221.576 186.172 221.138 185.991 220.815 185.668C220.492 185.345 220.311 184.907 220.31 184.451Z" fill="#263238"/>
<path d="M230.501 185.95C235.695 185.95 239.906 181.742 239.906 176.551C239.906 171.36 235.695 167.152 230.501 167.152C225.307 167.152 221.097 171.36 221.097 176.551C221.097 181.742 225.307 185.95 230.501 185.95Z" fill="#FFB7B7"/>
<path d="M217.275 175.649C217.278 172.961 218.348 170.383 220.251 168.482C222.153 166.581 224.732 165.511 227.422 165.508H229.337C232.027 165.511 234.606 166.581 236.509 168.482C238.411 170.383 239.481 172.961 239.484 175.649V175.84H235.438L234.058 171.979L233.782 175.84H231.691L230.995 173.892L230.855 175.84H217.275L217.275 175.649Z" fill="#263238"/>
<path d="M229.576 187.249C229.386 186.992 229.272 186.686 229.248 186.368C229.225 186.049 229.291 185.73 229.441 185.447C231.47 181.591 234.31 174.464 230.54 170.07L230.269 169.754H241.215V186.178L231.271 187.932C231.17 187.95 231.068 187.959 230.966 187.959C230.695 187.959 230.427 187.894 230.185 187.771C229.944 187.648 229.735 187.469 229.576 187.249Z" fill="#263238"/>
<path d="M101.886 332.85L107.694 334.925L118.466 313.52L109.893 310.458L101.886 332.85Z" fill="#9F616A"/>
<path d="M98.3916 337.949L101.082 330.426L112.522 334.512C114.454 335.204 116.032 336.634 116.91 338.489C117.789 340.343 117.895 342.469 117.207 344.402L117.122 344.639L98.3916 337.949Z" fill="#263238"/>
<path d="M139.659 338.592L145.827 338.592L148.762 314.813L139.658 314.813L139.659 338.592Z" fill="#9F616A"/>
<path d="M138.085 336.58L150.234 336.579H150.234C151.251 336.579 152.258 336.779 153.197 337.168C154.136 337.557 154.99 338.127 155.709 338.845C156.427 339.564 156.998 340.417 157.387 341.356C157.776 342.294 157.976 343.3 157.976 344.316V344.568L138.086 344.569L138.085 336.58Z" fill="#263238"/>
<path d="M125.6 186.671L128.283 181.373C128.283 181.373 138.277 183.875 139.185 189.664L125.6 186.671Z" fill="#F1F1F1"/>
<path d="M114.531 247.249L121.826 287.937L102.455 322.176L114.027 326.702L133.651 293.513L136.167 284.461L137.676 331.731L148.113 331.414L152.898 287.276L145.223 246.243L114.531 247.249Z" fill="#263238"/>
<path d="M128.38 256.868C117.662 256.868 110.857 254.819 110.705 254.786L110.458 254.734L116.041 228.866L116.292 205.005C116.292 194.894 122.951 187.439 123.875 186.751C124.03 186.137 124.318 185.565 124.718 185.074C125.118 184.583 125.62 184.185 126.19 183.908C128.411 182.9 131.125 184.109 131.239 184.161L139.386 187.214L139.424 187.327C139.522 187.616 150.252 222.821 150.252 222.821C150.252 222.821 149.603 253.581 149.377 254.589C149.377 254.589 134.335 256.868 128.38 256.868Z" fill="#6A7B76"/>
<path d="M136.616 179.705C142.697 179.705 147.626 174.778 147.626 168.7C147.626 162.623 142.697 157.696 136.616 157.696C130.535 157.696 125.605 162.623 125.605 168.7C125.605 174.778 130.535 179.705 136.616 179.705Z" fill="#9F616A"/>
<path opacity="0.2" d="M124.339 206.957L143.602 233.817L146.447 221.274L124.339 206.957Z" fill="black"/>
<path d="M184.732 225.233C184.191 225.661 183.561 225.966 182.889 226.125C182.217 226.284 181.518 226.293 180.842 226.153C180.165 226.013 179.528 225.727 178.974 225.314C178.421 224.901 177.965 224.371 177.638 223.763L161.058 226.415L164.65 218.468L179.844 217.168C180.903 216.687 182.101 216.611 183.212 216.954C184.323 217.297 185.27 218.036 185.873 219.03C186.475 220.024 186.692 221.205 186.482 222.348C186.272 223.491 185.649 224.518 184.732 225.233Z" fill="#9F616A"/>
<path d="M165.503 218.016L171.461 217.432L173.112 225.737L165.615 225.87L165.503 218.016Z" fill="#F1F1F1"/>
<path d="M170.387 228.631L141.21 226.035L126.477 202.618L126.432 202.411C126.014 200.499 126.307 198.499 127.256 196.786C128.205 195.073 129.745 193.764 131.589 193.103C133.433 192.442 135.455 192.474 137.277 193.194C139.099 193.913 140.597 195.271 141.49 197.014L150.139 213.873L167.593 216.51L170.387 228.631Z" fill="#6A7B76"/>
<path d="M127.237 178.255L136.376 178.582C136.933 178.602 138.445 172.594 138.643 171.347C138.799 170.536 139.246 169.809 139.899 169.303C140.553 168.796 141.368 168.545 142.193 168.595C142.878 168.66 144.603 167.383 146.383 165.87C149.762 162.999 149.586 157.606 145.874 155.179C145.773 155.113 145.673 155.052 145.575 154.998C143.233 153.687 140.494 153.248 137.81 153.214C135.377 153.184 132.875 153.49 130.732 154.64C126.89 156.704 124.845 161.212 124.665 165.568C124.485 169.924 125.883 174.183 127.468 178.244" fill="#263238"/>
<path d="M356.331 345H0.478552C0.351632 345 0.22991 344.95 0.140164 344.86C0.0504184 344.77 0 344.649 0 344.522C0 344.395 0.0504184 344.273 0.140164 344.184C0.22991 344.094 0.351632 344.043 0.478552 344.043H356.521C356.648 344.043 356.77 344.094 356.86 344.184C356.95 344.273 357 344.395 357 344.522C357 344.786 356.595 345 356.331 345Z" fill="#CBCBCB"/>
</g>
<defs>
<clipPath id="clip0_744_304">
<rect width="357" height="345" fill="white"/>
</clipPath>
</defs>
</svg>
