<svg width="557" height="400" viewBox="0 0 557 400" fill="none" xmlns="http://www.w3.org/2000/svg">
<g clip-path="url(#clip0_148_3811)">
<path d="M377.639 69.6524C377.417 69.3652 377.195 69.078 376.957 68.7989C373.417 64.5399 368.481 61.8073 362.961 61.036C357.343 60.2564 351.75 61.6104 347.134 64.8436C339.627 55.6199 326.042 53.9212 316.473 61.1509C315.816 61.6432 315.2 62.1684 314.617 62.7182C314.206 63.1039 313.82 63.506 313.451 63.9163C313.492 63.9819 313.533 64.0394 313.582 64.105L339.635 99.1206L340.292 98.6283C341.672 97.6107 373.934 73.6406 374.953 72.8774C376.062 72.0404 377.072 71.1131 377.975 70.1201C377.869 69.9642 377.754 69.8083 377.639 69.6524Z" fill="#6A7B76"/>
<path d="M379.281 41.7515C375.7 37.0084 370.485 33.9557 364.604 33.1351C358.986 32.3555 353.393 33.7095 348.777 36.9427C341.27 27.719 327.685 26.0203 318.116 33.25C308.539 40.4714 306.478 54.192 313.451 63.9163C313.492 63.9819 313.533 64.0394 313.582 64.105L339.635 99.1206L340.292 98.6283C341.672 97.6107 373.934 73.6406 374.953 72.8774C376.062 72.0404 377.072 71.1131 377.975 70.1202C385.055 62.3736 385.844 50.4172 379.281 41.7515ZM376.957 68.7989C376.062 69.8083 375.06 70.7356 373.959 71.5644C373.031 72.2702 344.686 93.3189 339.972 96.8229L314.905 63.1285C314.806 62.9972 314.707 62.8577 314.617 62.7182C308.358 53.7243 310.321 41.1935 319.11 34.5547C322.822 31.7565 327.175 30.4024 331.504 30.4024C337.746 30.4024 343.923 33.2171 347.964 38.5675L348.456 39.224L349.113 38.7235C358.173 31.8877 371.125 33.6849 377.975 42.7363C381.294 47.1265 382.698 52.5344 381.942 57.9832C381.376 62.0699 379.643 65.7955 376.957 68.7989Z" fill="#263238"/>
<path d="M556.201 83.7026L550.838 82.882C550.099 79.1236 549.007 75.4226 547.586 71.8612C548.193 75.3241 547.963 78.9266 546.961 82.2911L489.213 73.4695C492.038 61.0619 493.64 49.4666 492.687 39.5454C491.266 24.6594 502.305 11.2588 517.262 10.7336C517.672 10.7172 518.091 10.709 518.51 10.709C532.366 10.709 543.807 18.8002 545.475 29.2549C546.066 32.9969 546.896 36.706 547.586 40.4398C550.173 54.4231 560.998 73.0592 556.201 83.7026Z" fill="#263238"/>
<path d="M404.404 105.968C406.267 106.74 407.8 107.869 408.842 109.121L427.054 115.358L423.829 123.929L405.703 116.679C404.08 116.826 402.197 116.538 400.334 115.766C396.078 114.002 393.54 110.378 394.663 107.672C395.787 104.967 400.148 104.203 404.404 105.968Z" fill="#FFB6B6"/>
<path d="M462.962 381.1L455.76 381.27L451.745 348.94L462.374 348.689L462.962 381.1Z" fill="#FFB7B7"/>
<path d="M438.252 396.113C438.252 397.329 439.115 398.314 440.18 398.314H454.477C454.477 398.314 455.884 392.664 461.62 390.232L462.016 398.314H469.39L468.497 385.319C468.497 385.319 470.47 378.366 466.373 374.812C462.275 371.258 465.594 371.753 465.594 371.753L463.982 363.71L452.838 365.019L452.756 377.645L447.348 390.178L439.415 394.093C438.709 394.441 438.252 395.235 438.252 396.113Z" fill="#263238"/>
<path d="M540.388 381.1L533.186 381.27L529.171 348.94L539.8 348.689L540.388 381.1Z" fill="#FFB7B7"/>
<path d="M515.677 396.113C515.677 397.329 516.541 398.314 517.606 398.314H531.902C531.902 398.314 533.309 392.664 539.045 390.232L539.441 398.314H546.816L545.923 385.319C545.923 385.319 547.896 378.366 543.798 374.812C539.701 371.258 543.02 371.753 543.02 371.753L541.408 363.71L530.264 365.019L530.182 377.645L524.773 390.178L516.841 394.093C516.135 394.441 515.677 395.235 515.677 396.113Z" fill="#263238"/>
<path d="M482.281 146.069L526.633 153.455C532.448 163.058 543.881 199.409 543.881 199.409C543.881 199.409 540.886 300.396 543.447 358.824L524.991 359.429L500.35 228.951L467.497 356.146L449.575 357.414L451.891 266.7C451.891 266.7 476.656 147.193 482.281 146.069Z" fill="#263238"/>
<path d="M503.216 65.4698L525.802 66.1749L549.093 97.2028C540.06 120.01 531.565 136.478 531.936 152.74C531.967 154.117 534.216 157.212 534.4 158.484C534.649 160.202 531.38 162.723 531.936 164.228L477.353 152.634C478.457 151.078 477.506 149.111 478.174 147.71C478.761 146.479 481.015 145.804 481.288 144.61C482.767 138.164 483.555 127.409 477.993 114.779C474.038 105.798 491.447 84.8483 490.512 74.6371L503.216 65.4698Z" fill="#FFEFD3"/>
<path d="M508.394 79.9572L466.848 135.988L418.148 122.589L420.265 109.896L457.349 116.913L478.037 85.1363C484.793 72.0893 498.108 69.4618 508.394 79.9572Z" fill="#FFEFD3"/>
<path d="M513.75 58.3213C524.572 58.3213 533.344 49.5564 533.344 38.7443C533.344 27.9322 524.572 19.1673 513.75 19.1673C502.928 19.1673 494.156 27.9322 494.156 38.7443C494.156 49.5564 502.928 58.3213 513.75 58.3213Z" fill="#FFB7B7"/>
<path d="M531.971 214.446C532.522 212.508 533.466 210.854 534.589 209.675L538.67 190.877L547.566 193.079L542.468 211.91C542.804 213.504 542.737 215.406 542.186 217.344C540.927 221.773 537.62 224.714 534.8 223.913C531.979 223.113 530.713 218.875 531.971 214.446Z" fill="#FFB6B6"/>
<path d="M533.202 76.8328C533.202 76.8328 549.627 75.997 550.823 86.8789C552.019 97.7608 555.845 159.737 555.845 159.737L546.976 201.569L534.329 199.813L539.918 146.565L533.202 76.8328Z" fill="#FFEFD3"/>
<path d="M533.672 22.1073C533.672 26.5304 531.216 32.2255 531.216 38.9135L523.767 36.9769C523.619 35.6803 522.863 31.6264 522.527 30.3627C522.699 31.5526 523.069 35.549 522.658 36.6814L519.003 35.7295C518.978 35.0484 518.921 34.3673 518.839 33.6944C518.691 32.3978 518.444 31.1177 518.108 29.8539C518.28 31.0438 518.141 32.2665 517.73 33.399C517.492 34.0226 517.18 34.6135 516.785 35.1551L498.749 30.453C494.379 28.8104 493.71 34.5908 493.78 41.8513C493.78 41.8513 491.316 16.4123 510.042 14.9433L512.868 12.1204C529.878 13.097 533.672 16.6174 533.672 22.1073Z" fill="#263238"/>
<path d="M493.522 46.1897C494.193 53.022 493.375 59.8959 492.402 66.6995C492.089 68.8891 491.74 71.1304 490.573 73.0797C489.405 75.029 487.233 76.6566 484.744 76.7071C488.657 77.763 493.169 76.8375 496.161 74.3654C499.199 71.8556 500.535 68.0514 500.637 64.3709C500.739 60.6904 499.743 57.0636 498.753 53.4881L493.522 46.1897Z" fill="#263238"/>
<path d="M529.287 19.8672C529.958 32.3237 529.14 44.856 528.167 57.2601C527.853 61.2522 527.505 65.3385 526.338 68.8924C525.17 72.4463 522.998 75.4137 520.509 75.5058C524.422 77.4308 528.934 75.7435 531.926 71.2363C534.964 66.6606 536.3 59.7249 536.402 53.0147C536.504 46.3045 535.507 39.6921 534.517 33.1735L529.287 19.8672Z" fill="#263238"/>
<path d="M112.791 391.254L124.58 391.253L130.189 345.818L112.788 345.819L112.791 391.254Z" fill="#A0616A"/>
<path d="M153.183 390.987C153.551 391.604 153.744 393.598 153.744 394.316C153.744 396.524 151.953 398.314 149.743 398.314H113.232C111.724 398.314 110.502 397.093 110.502 395.587V394.068C110.502 394.068 108.696 389.503 112.414 383.877C112.414 383.877 117.036 388.283 123.942 381.383L125.979 377.697L140.72 388.468L148.891 389.473C150.679 389.693 152.264 389.439 153.183 390.987Z" fill="#263238"/>
<path d="M76.6516 391.254L88.4412 391.253L94.0497 345.818L76.6492 345.819L76.6516 391.254Z" fill="#A0616A"/>
<path d="M117.044 390.987C117.412 391.604 117.605 393.598 117.605 394.316C117.605 396.524 115.814 398.314 113.604 398.314H77.0925C75.5849 398.314 74.3627 397.093 74.3627 395.587V394.068C74.3627 394.068 72.5566 389.503 76.2752 383.877C76.2752 383.877 80.8969 388.283 87.803 381.383L89.8395 377.697L104.581 388.468L112.752 389.473C114.54 389.693 116.125 389.439 117.044 390.987Z" fill="#263238"/>
<path d="M78.5914 163.712L71.1993 281.06L74.8954 371.602H97.8994L112.266 217.873L109.075 371.602L130.336 371.328L152.923 194.486C152.923 194.486 152.512 176.022 145.531 166.585C138.549 157.148 78.5914 163.712 78.5914 163.712Z" fill="#263238"/>
<path d="M164.187 136.717L145.671 137.446L147.834 158.11L184.134 185.459L189.062 178.073L162.996 148.085L164.187 136.717Z" fill="#A0616A"/>
<path d="M129.104 60.7254L103.642 58.2636L84.7515 67.2903V141.966L78.7445 154.515C76.81 158.556 76.6064 163.211 78.1808 167.405L145.531 166.585L143.888 157.558L147.173 140.325L149.637 77.1377L129.104 60.7254Z" fill="#FFEFD3"/>
<path d="M144.299 76.7274C144.299 76.7274 150.048 70.9831 154.155 85.7541C158.262 100.525 168.118 153.044 168.118 153.044L144.709 153.455L138.549 97.2427L144.299 76.7274Z" fill="#FFEFD3"/>
<path d="M78.5915 139.915L76.1275 200.521L67.0927 201.461L63.8074 141.556L78.5915 139.915Z" fill="#A0616A"/>
<path d="M94.1969 67.7006C94.1969 67.7006 79.4128 61.9563 75.3061 76.7274C71.1994 91.4984 61.3433 144.018 61.3433 144.018L79.4128 145.313L99.9463 88.216L94.1969 67.7006Z" fill="#FFEFD3"/>
<path d="M115.669 53.5772C128.075 53.5772 138.133 43.5287 138.133 31.1332C138.133 18.7377 128.075 8.68912 115.669 8.68912C103.262 8.68912 93.2048 18.7377 93.2048 31.1332C93.2048 43.5287 103.262 53.5772 115.669 53.5772Z" fill="#A0616A"/>
<path d="M72.1085 218.764C75.8565 218.636 78.7209 213.42 78.5064 207.113C78.2918 200.807 75.0795 195.797 71.3315 195.924C67.5834 196.052 64.719 201.268 64.9336 207.574C65.1481 213.881 68.3604 218.891 72.1085 218.764Z" fill="#A0616A"/>
<path d="M201.744 194.511C204.266 191.737 202.519 186.049 197.844 181.806C193.168 177.564 187.334 176.373 184.813 179.146C182.291 181.92 184.038 187.608 188.713 191.851C193.389 196.093 199.223 197.284 201.744 194.511Z" fill="#A0616A"/>
<path d="M133.075 11.8184C130.847 8.31704 129.315 9.7335 125.185 9.30135C122.817 9.05367 118.389 5.33634 116.07 5.87436C113.014 6.58355 109.882 7.32514 107.28 9.07592C101.762 5.833 99.7997 12.1805 95.0156 16.4299C90.2315 20.6793 88.609 28.1087 91.1864 33.9631C92.4139 36.751 92.32 39.7095 94.3165 42.0112C96.6149 44.661 97.881 48.349 98.0581 48.5531C99.0145 49.6559 103.52 50.43 103.704 50.6419C105.508 52.7216 108.414 52.0807 110.218 54.1605L111.258 43.1572C109.798 41.8173 108.286 40.4035 107.605 38.543C106.924 36.6826 107.375 34.246 109.125 33.3138C110.501 32.5806 112.342 32.9103 113.541 31.9138C115.371 30.3928 114.242 27.2111 115.575 25.2401C116.362 24.0747 117.824 23.6057 119.176 23.2137C121.367 22.5784 123.558 21.9431 125.748 21.3079C127.787 20.7169 129.88 20.1198 131.995 20.2885C134.111 20.4572 136.287 21.5599 137.122 23.5089C136.351 19.4319 135.303 15.3197 133.075 11.8184Z" fill="#263238"/>
<path d="M209.493 152.88C206.707 145.706 198.628 142.148 191.448 144.932C184.337 147.689 180.779 155.634 183.42 162.756L183.211 162.837L193.301 188.813L217.226 179.537C218.017 179.381 218.805 179.158 219.583 178.856C226.763 176.073 230.324 168.001 227.538 160.828C224.752 153.654 216.673 150.096 209.493 152.88Z" fill="#6A7B76"/>
<path d="M404.253 13.9504V100.936C404.253 108.628 397.99 114.886 390.291 114.886H303.228C295.529 114.886 289.266 108.628 289.266 100.936V13.9504C289.266 6.25799 295.529 0 303.228 0H390.291C397.99 0 404.253 6.25799 404.253 13.9504ZM390.291 113.245C397.095 113.245 402.611 107.734 402.611 100.936V57.0811C402.611 26.4625 377.767 1.64123 347.122 1.64123C316.076 1.64123 290.908 26.7865 290.908 57.8047V100.936C290.908 107.734 296.424 113.245 303.228 113.245H390.291Z" fill="#263238"/>
<path d="M385.622 31.3669C378.023 30.1134 370.846 35.2516 369.592 42.8433C368.349 50.363 373.384 57.4658 380.864 58.8182L380.828 59.0384L408.344 63.5778L412.525 38.2802C412.793 37.5204 413.002 36.7289 413.138 35.9065C414.393 28.3148 409.25 21.1442 401.652 19.8907C394.053 18.6372 386.876 23.7752 385.622 31.3669Z" fill="#6A7B76"/>
<path d="M294.913 92.1543C292.126 84.981 284.047 81.4227 276.868 84.2065C269.756 86.9639 266.198 94.9089 268.839 102.03L268.631 102.111L278.721 128.088L302.645 118.812C303.436 118.655 304.225 118.433 305.003 118.131C312.182 115.347 315.744 107.275 312.957 100.102C310.171 92.9288 302.092 89.3705 294.913 92.1543Z" fill="#6A7B76"/>
<path d="M511.812 185.176C504.286 183.546 496.862 188.321 495.23 195.84C493.614 203.289 498.289 210.633 505.692 212.356L505.645 212.575L532.901 218.478L538.337 193.42C538.643 192.674 538.891 191.894 539.068 191.08C540.7 183.56 535.921 176.142 528.394 174.512C520.868 172.882 513.444 177.656 511.812 185.176Z" fill="#6A7B76"/>
<path d="M44.4883 385.404C42.7915 385.51 41.8537 383.404 43.1374 382.176L43.2652 381.669C43.2483 381.628 43.2314 381.588 43.2144 381.547C41.4985 377.459 35.6828 377.487 33.9814 381.582C32.4713 385.215 30.5487 388.855 30.0753 392.698C29.8631 394.394 29.9585 396.122 30.3352 397.786C26.7968 390.063 24.9348 381.631 24.9348 373.15C24.9348 371.02 25.0515 368.889 25.2902 366.764C25.4865 365.025 25.7571 363.297 26.1072 361.585C28.001 352.331 32.1018 343.517 38.0168 336.155C40.8602 334.602 43.2315 332.174 44.6638 329.264C45.1784 328.215 45.5816 327.086 45.7726 325.936C45.449 325.978 44.5524 321.054 44.7965 320.752C44.3455 320.068 43.5384 319.729 43.0458 319.061C40.5963 315.743 37.2215 316.323 35.4597 320.832C31.6962 322.73 31.6597 325.877 33.969 328.904C35.4382 330.83 35.6401 333.436 36.9292 335.497C36.7966 335.667 36.6586 335.831 36.526 336.001C34.094 339.118 31.9905 342.467 30.2173 345.987C30.7184 342.075 29.9785 337.363 28.7172 334.326C27.2813 330.865 24.59 327.951 22.22 324.959C19.3732 321.365 13.5356 322.933 13.0341 327.489C13.0292 327.533 13.0245 327.577 13.0199 327.621C13.3719 327.82 13.7168 328.03 14.0537 328.253C15.9752 329.523 15.3111 332.499 13.0343 332.85L12.9828 332.858C13.1101 334.125 13.3276 335.381 13.6459 336.616C10.6054 348.364 17.1695 352.642 26.5421 352.834C26.749 352.94 26.9506 353.046 27.1576 353.147C26.2079 355.819 25.4493 358.559 24.887 361.336C24.3831 363.79 24.0329 366.271 23.8367 368.762C23.5926 371.905 23.6138 375.064 23.8791 378.201L23.8632 378.09C23.1895 374.634 21.3115 371.407 18.5847 369.17C14.5227 365.836 8.78382 364.608 4.4016 361.929C2.29213 360.639 -0.411007 362.306 -0.042849 364.749L-0.0249272 364.866C0.627571 365.131 1.26414 365.438 1.87953 365.783C2.23155 365.981 2.57642 366.192 2.9133 366.415C4.83482 367.685 4.17074 370.661 1.89396 371.012L1.84236 371.02C1.80524 371.025 1.77339 371.03 1.73632 371.036C2.85566 373.691 4.41527 376.156 6.36748 378.281C8.26859 388.536 16.4339 389.509 25.1682 386.523H25.1735C26.1284 390.678 27.5236 394.738 29.3167 398.607H44.1174C44.1705 398.443 44.2182 398.273 44.266 398.109C42.8973 398.194 41.518 398.114 40.1705 397.865C41.2687 396.519 42.3668 395.162 43.4649 393.816C43.4914 393.789 43.5127 393.763 43.5339 393.736C44.0909 393.047 44.6532 392.364 45.2102 391.675L45.2105 391.674C45.2454 389.559 44.9911 387.45 44.4883 385.404Z" fill="#FFEFD3"/>
</g>
<defs>
<clipPath id="clip0_148_3811">
<rect width="557" height="400" fill="white"/>
</clipPath>
</defs>
</svg>
